<mxfile host="app.diagrams.net" modified="2020-09-20T19:50:34.841Z" agent="5.0 (Windows NT 10.0; Win64; x64) AppleWebKit/537.36 (KHTML, like Gecko) Chrome/85.0.4183.102 Safari/537.36" etag="tiBf_QKPh8xhG4Pphpeg" version="13.7.3" type="github">
  <diagram id="DlaaNgQT1CgxiDLczHyr" name="Page-1">
    <mxGraphModel dx="9667" dy="6722" grid="1" gridSize="10" guides="1" tooltips="1" connect="1" arrows="1" fold="1" page="1" pageScale="1" pageWidth="1169" pageHeight="827" math="1" shadow="0">
      <root>
        <mxCell id="0" />
        <mxCell id="1" parent="0" />
        <mxCell id="2_stQIjKN3dvnfmhALIY-34" value="" style="ellipse;whiteSpace=wrap;html=1;aspect=fixed;fillColor=#e51400;strokeColor=#B20000;fontColor=#ffffff;" vertex="1" parent="1">
          <mxGeometry x="270" y="150" width="20" height="20" as="geometry" />
        </mxCell>
        <mxCell id="2_stQIjKN3dvnfmhALIY-19" value="" style="ellipse;whiteSpace=wrap;html=1;aspect=fixed;fillColor=#647687;strokeColor=#314354;fontColor=#ffffff;" vertex="1" parent="1">
          <mxGeometry x="390" y="270" width="20" height="20" as="geometry" />
        </mxCell>
        <mxCell id="2_stQIjKN3dvnfmhALIY-20" value="" style="ellipse;whiteSpace=wrap;html=1;aspect=fixed;fillColor=#0050ef;strokeColor=#001DBC;fontColor=#ffffff;" vertex="1" parent="1">
          <mxGeometry x="310" y="350" width="20" height="20" as="geometry" />
        </mxCell>
        <mxCell id="2_stQIjKN3dvnfmhALIY-22" value="" style="ellipse;whiteSpace=wrap;html=1;aspect=fixed;fillColor=#0050ef;strokeColor=#001DBC;fontColor=#ffffff;" vertex="1" parent="1">
          <mxGeometry x="470" y="350" width="20" height="20" as="geometry" />
        </mxCell>
        <mxCell id="2_stQIjKN3dvnfmhALIY-25" value="" style="ellipse;whiteSpace=wrap;html=1;aspect=fixed;" vertex="1" parent="1">
          <mxGeometry x="310" y="190" width="20" height="20" as="geometry" />
        </mxCell>
        <mxCell id="2_stQIjKN3dvnfmhALIY-26" value="" style="ellipse;whiteSpace=wrap;html=1;aspect=fixed;fillColor=#0050ef;strokeColor=#001DBC;fontColor=#ffffff;" vertex="1" parent="1">
          <mxGeometry x="470" y="190" width="20" height="20" as="geometry" />
        </mxCell>
        <mxCell id="2_stQIjKN3dvnfmhALIY-30" value="" style="endArrow=none;dashed=1;html=1;dashPattern=1 3;strokeWidth=2;exitX=1;exitY=0;exitDx=0;exitDy=0;entryX=0;entryY=1;entryDx=0;entryDy=0;" edge="1" parent="1" source="2_stQIjKN3dvnfmhALIY-19" target="2_stQIjKN3dvnfmhALIY-26">
          <mxGeometry width="50" height="50" relative="1" as="geometry">
            <mxPoint x="410" y="340" as="sourcePoint" />
            <mxPoint x="460" y="290" as="targetPoint" />
          </mxGeometry>
        </mxCell>
        <mxCell id="2_stQIjKN3dvnfmhALIY-31" value="" style="endArrow=none;dashed=1;html=1;dashPattern=1 3;strokeWidth=2;exitX=0;exitY=0;exitDx=0;exitDy=0;entryX=1;entryY=1;entryDx=0;entryDy=0;" edge="1" parent="1" source="2_stQIjKN3dvnfmhALIY-19" target="2_stQIjKN3dvnfmhALIY-25">
          <mxGeometry width="50" height="50" relative="1" as="geometry">
            <mxPoint x="410" y="340" as="sourcePoint" />
            <mxPoint x="460" y="290" as="targetPoint" />
          </mxGeometry>
        </mxCell>
        <mxCell id="2_stQIjKN3dvnfmhALIY-32" value="" style="endArrow=none;dashed=1;html=1;dashPattern=1 3;strokeWidth=2;exitX=1;exitY=1;exitDx=0;exitDy=0;entryX=0;entryY=0;entryDx=0;entryDy=0;" edge="1" parent="1" source="2_stQIjKN3dvnfmhALIY-19" target="2_stQIjKN3dvnfmhALIY-22">
          <mxGeometry width="50" height="50" relative="1" as="geometry">
            <mxPoint x="410" y="340" as="sourcePoint" />
            <mxPoint x="460" y="290" as="targetPoint" />
          </mxGeometry>
        </mxCell>
        <mxCell id="2_stQIjKN3dvnfmhALIY-33" value="" style="endArrow=none;dashed=1;html=1;dashPattern=1 3;strokeWidth=2;exitX=0;exitY=1;exitDx=0;exitDy=0;entryX=1;entryY=0;entryDx=0;entryDy=0;" edge="1" parent="1" source="2_stQIjKN3dvnfmhALIY-19" target="2_stQIjKN3dvnfmhALIY-20">
          <mxGeometry width="50" height="50" relative="1" as="geometry">
            <mxPoint x="410" y="340" as="sourcePoint" />
            <mxPoint x="460" y="290" as="targetPoint" />
          </mxGeometry>
        </mxCell>
        <mxCell id="2_stQIjKN3dvnfmhALIY-36" value="" style="ellipse;whiteSpace=wrap;html=1;aspect=fixed;fillColor=#e51400;strokeColor=#B20000;fontColor=#ffffff;" vertex="1" parent="1">
          <mxGeometry x="270" y="394" width="20" height="20" as="geometry" />
        </mxCell>
        <mxCell id="2_stQIjKN3dvnfmhALIY-38" value="" style="ellipse;whiteSpace=wrap;html=1;aspect=fixed;fillColor=#e51400;strokeColor=#B20000;fontColor=#ffffff;" vertex="1" parent="1">
          <mxGeometry x="510" y="394" width="20" height="20" as="geometry" />
        </mxCell>
        <mxCell id="2_stQIjKN3dvnfmhALIY-39" value="" style="ellipse;whiteSpace=wrap;html=1;aspect=fixed;fillColor=#e51400;strokeColor=#B20000;fontColor=#ffffff;" vertex="1" parent="1">
          <mxGeometry x="510" y="150" width="20" height="20" as="geometry" />
        </mxCell>
        <mxCell id="2_stQIjKN3dvnfmhALIY-41" value="" style="endArrow=classic;html=1;exitX=0;exitY=0;exitDx=0;exitDy=0;entryX=1;entryY=1;entryDx=0;entryDy=0;" edge="1" parent="1" source="2_stQIjKN3dvnfmhALIY-25" target="2_stQIjKN3dvnfmhALIY-34">
          <mxGeometry width="50" height="50" relative="1" as="geometry">
            <mxPoint x="410" y="340" as="sourcePoint" />
            <mxPoint x="460" y="290" as="targetPoint" />
          </mxGeometry>
        </mxCell>
        <mxCell id="2_stQIjKN3dvnfmhALIY-42" value="" style="ellipse;whiteSpace=wrap;html=1;aspect=fixed;fillColor=#0050ef;strokeColor=#001DBC;fontColor=#ffffff;" vertex="1" parent="1">
          <mxGeometry x="310" y="190" width="20" height="20" as="geometry" />
        </mxCell>
        <mxCell id="2_stQIjKN3dvnfmhALIY-44" value="" style="endArrow=classic;html=1;exitX=1;exitY=0;exitDx=0;exitDy=0;entryX=0;entryY=1;entryDx=0;entryDy=0;" edge="1" parent="1" source="2_stQIjKN3dvnfmhALIY-26" target="2_stQIjKN3dvnfmhALIY-39">
          <mxGeometry width="50" height="50" relative="1" as="geometry">
            <mxPoint x="410" y="340" as="sourcePoint" />
            <mxPoint x="460" y="290" as="targetPoint" />
          </mxGeometry>
        </mxCell>
        <mxCell id="2_stQIjKN3dvnfmhALIY-45" value="" style="endArrow=classic;html=1;exitX=0;exitY=1;exitDx=0;exitDy=0;entryX=1;entryY=0;entryDx=0;entryDy=0;" edge="1" parent="1" source="2_stQIjKN3dvnfmhALIY-20" target="2_stQIjKN3dvnfmhALIY-36">
          <mxGeometry width="50" height="50" relative="1" as="geometry">
            <mxPoint x="410" y="340" as="sourcePoint" />
            <mxPoint x="460" y="290" as="targetPoint" />
          </mxGeometry>
        </mxCell>
        <mxCell id="2_stQIjKN3dvnfmhALIY-46" value="" style="endArrow=classic;html=1;exitX=1;exitY=1;exitDx=0;exitDy=0;entryX=0;entryY=0;entryDx=0;entryDy=0;" edge="1" parent="1" source="2_stQIjKN3dvnfmhALIY-22" target="2_stQIjKN3dvnfmhALIY-38">
          <mxGeometry width="50" height="50" relative="1" as="geometry">
            <mxPoint x="410" y="340" as="sourcePoint" />
            <mxPoint x="460" y="290" as="targetPoint" />
          </mxGeometry>
        </mxCell>
        <mxCell id="2_stQIjKN3dvnfmhALIY-47" value="" style="shape=crossbar;whiteSpace=wrap;html=1;rounded=1;" vertex="1" parent="1">
          <mxGeometry x="280" y="126" width="40" height="20" as="geometry" />
        </mxCell>
        <mxCell id="2_stQIjKN3dvnfmhALIY-48" value="" style="shape=crossbar;whiteSpace=wrap;html=1;rounded=1;direction=south;" vertex="1" parent="1">
          <mxGeometry x="330" y="160" width="20" height="40" as="geometry" />
        </mxCell>
        <mxCell id="2_stQIjKN3dvnfmhALIY-54" value="" style="ellipse;whiteSpace=wrap;html=1;aspect=fixed;fillColor=#647687;strokeColor=#314354;fontColor=#ffffff;" vertex="1" parent="1">
          <mxGeometry x="630" y="110" width="20" height="20" as="geometry" />
        </mxCell>
        <mxCell id="2_stQIjKN3dvnfmhALIY-55" value="" style="ellipse;whiteSpace=wrap;html=1;aspect=fixed;fillColor=#0050ef;strokeColor=#001DBC;fontColor=#ffffff;" vertex="1" parent="1">
          <mxGeometry x="630" y="150" width="20" height="20" as="geometry" />
        </mxCell>
        <mxCell id="2_stQIjKN3dvnfmhALIY-56" value="" style="ellipse;whiteSpace=wrap;html=1;aspect=fixed;fillColor=#e51400;strokeColor=#B20000;fontColor=#ffffff;" vertex="1" parent="1">
          <mxGeometry x="630" y="190" width="20" height="20" as="geometry" />
        </mxCell>
        <mxCell id="2_stQIjKN3dvnfmhALIY-57" value="Principal Point" style="text;html=1;strokeColor=none;fillColor=none;align=center;verticalAlign=middle;whiteSpace=wrap;rounded=0;" vertex="1" parent="1">
          <mxGeometry x="660" y="110" width="120" height="20" as="geometry" />
        </mxCell>
        <mxCell id="2_stQIjKN3dvnfmhALIY-58" value="Disotorted Pixels" style="text;html=1;strokeColor=none;fillColor=none;align=center;verticalAlign=middle;whiteSpace=wrap;rounded=0;" vertex="1" parent="1">
          <mxGeometry x="665" y="190" width="130" height="20" as="geometry" />
        </mxCell>
        <mxCell id="2_stQIjKN3dvnfmhALIY-59" value="Original Pixels" style="text;html=1;strokeColor=none;fillColor=none;align=center;verticalAlign=middle;whiteSpace=wrap;rounded=0;" vertex="1" parent="1">
          <mxGeometry x="665" y="150" width="110" height="20" as="geometry" />
        </mxCell>
        <mxCell id="2_stQIjKN3dvnfmhALIY-60" value="" style="endArrow=classic;html=1;" edge="1" parent="1">
          <mxGeometry width="50" height="50" relative="1" as="geometry">
            <mxPoint x="630" y="240" as="sourcePoint" />
            <mxPoint x="660" y="240" as="targetPoint" />
          </mxGeometry>
        </mxCell>
        <mxCell id="2_stQIjKN3dvnfmhALIY-61" value="Pixel flow vector" style="text;html=1;strokeColor=none;fillColor=none;align=center;verticalAlign=middle;whiteSpace=wrap;rounded=0;" vertex="1" parent="1">
          <mxGeometry x="665" y="230" width="135" height="20" as="geometry" />
        </mxCell>
        <mxCell id="2_stQIjKN3dvnfmhALIY-62" value="$$ \Delta u$$" style="text;html=1;strokeColor=none;fillColor=none;align=center;verticalAlign=middle;whiteSpace=wrap;rounded=0;" vertex="1" parent="1">
          <mxGeometry x="220" y="110" width="160" height="20" as="geometry" />
        </mxCell>
        <mxCell id="2_stQIjKN3dvnfmhALIY-63" value="$$ \Delta v$$" style="text;html=1;strokeColor=none;fillColor=none;align=center;verticalAlign=middle;whiteSpace=wrap;rounded=0;" vertex="1" parent="1">
          <mxGeometry x="280" y="170" width="160" height="20" as="geometry" />
        </mxCell>
        <mxCell id="2_stQIjKN3dvnfmhALIY-64" value="" style="ellipse;whiteSpace=wrap;html=1;aspect=fixed;fillColor=#e51400;strokeColor=#B20000;fontColor=#ffffff;" vertex="1" parent="1">
          <mxGeometry x="852" y="160" width="20" height="20" as="geometry" />
        </mxCell>
        <mxCell id="2_stQIjKN3dvnfmhALIY-65" value="" style="ellipse;whiteSpace=wrap;html=1;aspect=fixed;fillColor=#647687;strokeColor=#314354;fontColor=#ffffff;" vertex="1" parent="1">
          <mxGeometry x="972" y="280" width="20" height="20" as="geometry" />
        </mxCell>
        <mxCell id="2_stQIjKN3dvnfmhALIY-66" value="" style="ellipse;whiteSpace=wrap;html=1;aspect=fixed;fillColor=#0050ef;strokeColor=#001DBC;fontColor=#ffffff;" vertex="1" parent="1">
          <mxGeometry x="892" y="360" width="20" height="20" as="geometry" />
        </mxCell>
        <mxCell id="2_stQIjKN3dvnfmhALIY-67" value="" style="ellipse;whiteSpace=wrap;html=1;aspect=fixed;fillColor=#0050ef;strokeColor=#001DBC;fontColor=#ffffff;" vertex="1" parent="1">
          <mxGeometry x="1052" y="360" width="20" height="20" as="geometry" />
        </mxCell>
        <mxCell id="2_stQIjKN3dvnfmhALIY-68" value="" style="ellipse;whiteSpace=wrap;html=1;aspect=fixed;" vertex="1" parent="1">
          <mxGeometry x="892" y="200" width="20" height="20" as="geometry" />
        </mxCell>
        <mxCell id="2_stQIjKN3dvnfmhALIY-69" value="" style="ellipse;whiteSpace=wrap;html=1;aspect=fixed;fillColor=#0050ef;strokeColor=#001DBC;fontColor=#ffffff;" vertex="1" parent="1">
          <mxGeometry x="1052" y="200" width="20" height="20" as="geometry" />
        </mxCell>
        <mxCell id="2_stQIjKN3dvnfmhALIY-70" value="" style="endArrow=none;dashed=1;html=1;dashPattern=1 3;strokeWidth=2;exitX=1;exitY=0;exitDx=0;exitDy=0;entryX=0;entryY=1;entryDx=0;entryDy=0;" edge="1" parent="1" source="2_stQIjKN3dvnfmhALIY-65" target="2_stQIjKN3dvnfmhALIY-69">
          <mxGeometry width="50" height="50" relative="1" as="geometry">
            <mxPoint x="992" y="350" as="sourcePoint" />
            <mxPoint x="1042" y="300" as="targetPoint" />
          </mxGeometry>
        </mxCell>
        <mxCell id="2_stQIjKN3dvnfmhALIY-71" value="" style="endArrow=none;dashed=1;html=1;dashPattern=1 3;strokeWidth=2;exitX=0;exitY=0;exitDx=0;exitDy=0;entryX=1;entryY=1;entryDx=0;entryDy=0;" edge="1" parent="1" source="2_stQIjKN3dvnfmhALIY-65" target="2_stQIjKN3dvnfmhALIY-68">
          <mxGeometry width="50" height="50" relative="1" as="geometry">
            <mxPoint x="992" y="350" as="sourcePoint" />
            <mxPoint x="1042" y="300" as="targetPoint" />
          </mxGeometry>
        </mxCell>
        <mxCell id="2_stQIjKN3dvnfmhALIY-72" value="" style="endArrow=none;dashed=1;html=1;dashPattern=1 3;strokeWidth=2;exitX=1;exitY=1;exitDx=0;exitDy=0;entryX=0;entryY=0;entryDx=0;entryDy=0;" edge="1" parent="1" source="2_stQIjKN3dvnfmhALIY-65" target="2_stQIjKN3dvnfmhALIY-67">
          <mxGeometry width="50" height="50" relative="1" as="geometry">
            <mxPoint x="992" y="350" as="sourcePoint" />
            <mxPoint x="1042" y="300" as="targetPoint" />
          </mxGeometry>
        </mxCell>
        <mxCell id="2_stQIjKN3dvnfmhALIY-73" value="" style="endArrow=none;dashed=1;html=1;dashPattern=1 3;strokeWidth=2;exitX=0;exitY=1;exitDx=0;exitDy=0;entryX=1;entryY=0;entryDx=0;entryDy=0;" edge="1" parent="1" source="2_stQIjKN3dvnfmhALIY-65" target="2_stQIjKN3dvnfmhALIY-66">
          <mxGeometry width="50" height="50" relative="1" as="geometry">
            <mxPoint x="992" y="350" as="sourcePoint" />
            <mxPoint x="1042" y="300" as="targetPoint" />
          </mxGeometry>
        </mxCell>
        <mxCell id="2_stQIjKN3dvnfmhALIY-74" value="" style="ellipse;whiteSpace=wrap;html=1;aspect=fixed;fillColor=#e51400;strokeColor=#B20000;fontColor=#ffffff;" vertex="1" parent="1">
          <mxGeometry x="852" y="404" width="20" height="20" as="geometry" />
        </mxCell>
        <mxCell id="2_stQIjKN3dvnfmhALIY-75" value="" style="ellipse;whiteSpace=wrap;html=1;aspect=fixed;fillColor=#e51400;strokeColor=#B20000;fontColor=#ffffff;" vertex="1" parent="1">
          <mxGeometry x="1092" y="404" width="20" height="20" as="geometry" />
        </mxCell>
        <mxCell id="2_stQIjKN3dvnfmhALIY-76" value="" style="ellipse;whiteSpace=wrap;html=1;aspect=fixed;fillColor=#e51400;strokeColor=#B20000;fontColor=#ffffff;" vertex="1" parent="1">
          <mxGeometry x="1092" y="160" width="20" height="20" as="geometry" />
        </mxCell>
        <mxCell id="2_stQIjKN3dvnfmhALIY-77" value="" style="endArrow=classic;html=1;exitX=0;exitY=0;exitDx=0;exitDy=0;entryX=1;entryY=1;entryDx=0;entryDy=0;" edge="1" parent="1" source="2_stQIjKN3dvnfmhALIY-68" target="2_stQIjKN3dvnfmhALIY-64">
          <mxGeometry width="50" height="50" relative="1" as="geometry">
            <mxPoint x="992" y="350" as="sourcePoint" />
            <mxPoint x="1042" y="300" as="targetPoint" />
          </mxGeometry>
        </mxCell>
        <mxCell id="2_stQIjKN3dvnfmhALIY-78" value="" style="ellipse;whiteSpace=wrap;html=1;aspect=fixed;fillColor=#0050ef;strokeColor=#001DBC;fontColor=#ffffff;" vertex="1" parent="1">
          <mxGeometry x="892" y="200" width="20" height="20" as="geometry" />
        </mxCell>
        <mxCell id="2_stQIjKN3dvnfmhALIY-79" value="" style="endArrow=classic;html=1;exitX=1;exitY=0;exitDx=0;exitDy=0;entryX=0;entryY=1;entryDx=0;entryDy=0;" edge="1" parent="1" source="2_stQIjKN3dvnfmhALIY-69" target="2_stQIjKN3dvnfmhALIY-76">
          <mxGeometry width="50" height="50" relative="1" as="geometry">
            <mxPoint x="992" y="350" as="sourcePoint" />
            <mxPoint x="1042" y="300" as="targetPoint" />
          </mxGeometry>
        </mxCell>
        <mxCell id="2_stQIjKN3dvnfmhALIY-80" value="" style="endArrow=classic;html=1;exitX=0;exitY=1;exitDx=0;exitDy=0;entryX=1;entryY=0;entryDx=0;entryDy=0;" edge="1" parent="1" source="2_stQIjKN3dvnfmhALIY-66" target="2_stQIjKN3dvnfmhALIY-74">
          <mxGeometry width="50" height="50" relative="1" as="geometry">
            <mxPoint x="992" y="350" as="sourcePoint" />
            <mxPoint x="1042" y="300" as="targetPoint" />
          </mxGeometry>
        </mxCell>
        <mxCell id="2_stQIjKN3dvnfmhALIY-81" value="" style="endArrow=classic;html=1;exitX=1;exitY=1;exitDx=0;exitDy=0;entryX=0;entryY=0;entryDx=0;entryDy=0;" edge="1" parent="1" source="2_stQIjKN3dvnfmhALIY-67" target="2_stQIjKN3dvnfmhALIY-75">
          <mxGeometry width="50" height="50" relative="1" as="geometry">
            <mxPoint x="992" y="350" as="sourcePoint" />
            <mxPoint x="1042" y="300" as="targetPoint" />
          </mxGeometry>
        </mxCell>
        <mxCell id="2_stQIjKN3dvnfmhALIY-82" value="" style="shape=crossbar;whiteSpace=wrap;html=1;rounded=1;" vertex="1" parent="1">
          <mxGeometry x="862" y="136" width="40" height="20" as="geometry" />
        </mxCell>
        <mxCell id="2_stQIjKN3dvnfmhALIY-83" value="" style="shape=crossbar;whiteSpace=wrap;html=1;rounded=1;direction=south;" vertex="1" parent="1">
          <mxGeometry x="912" y="170" width="20" height="40" as="geometry" />
        </mxCell>
        <mxCell id="2_stQIjKN3dvnfmhALIY-84" value="" style="ellipse;whiteSpace=wrap;html=1;aspect=fixed;fillColor=#647687;strokeColor=#314354;fontColor=#ffffff;" vertex="1" parent="1">
          <mxGeometry x="1212" y="120" width="20" height="20" as="geometry" />
        </mxCell>
        <mxCell id="2_stQIjKN3dvnfmhALIY-85" value="" style="ellipse;whiteSpace=wrap;html=1;aspect=fixed;fillColor=#0050ef;strokeColor=#001DBC;fontColor=#ffffff;" vertex="1" parent="1">
          <mxGeometry x="1212" y="160" width="20" height="20" as="geometry" />
        </mxCell>
        <mxCell id="2_stQIjKN3dvnfmhALIY-86" value="" style="ellipse;whiteSpace=wrap;html=1;aspect=fixed;fillColor=#e51400;strokeColor=#B20000;fontColor=#ffffff;" vertex="1" parent="1">
          <mxGeometry x="1212" y="200" width="20" height="20" as="geometry" />
        </mxCell>
        <mxCell id="2_stQIjKN3dvnfmhALIY-87" value="主点" style="text;html=1;strokeColor=none;fillColor=none;align=center;verticalAlign=middle;whiteSpace=wrap;rounded=0;" vertex="1" parent="1">
          <mxGeometry x="1232" y="120" width="120" height="20" as="geometry" />
        </mxCell>
        <mxCell id="2_stQIjKN3dvnfmhALIY-88" value="畸变像素" style="text;html=1;strokeColor=none;fillColor=none;align=center;verticalAlign=middle;whiteSpace=wrap;rounded=0;" vertex="1" parent="1">
          <mxGeometry x="1242" y="200" width="130" height="20" as="geometry" />
        </mxCell>
        <mxCell id="2_stQIjKN3dvnfmhALIY-89" value="原始像素" style="text;html=1;strokeColor=none;fillColor=none;align=center;verticalAlign=middle;whiteSpace=wrap;rounded=0;" vertex="1" parent="1">
          <mxGeometry x="1252" y="156" width="110" height="20" as="geometry" />
        </mxCell>
        <mxCell id="2_stQIjKN3dvnfmhALIY-90" value="" style="endArrow=classic;html=1;" edge="1" parent="1">
          <mxGeometry width="50" height="50" relative="1" as="geometry">
            <mxPoint x="1212" y="250" as="sourcePoint" />
            <mxPoint x="1242" y="250" as="targetPoint" />
          </mxGeometry>
        </mxCell>
        <mxCell id="2_stQIjKN3dvnfmhALIY-91" value="像素流向量" style="text;html=1;strokeColor=none;fillColor=none;align=center;verticalAlign=middle;whiteSpace=wrap;rounded=0;" vertex="1" parent="1">
          <mxGeometry x="1247" y="240" width="135" height="20" as="geometry" />
        </mxCell>
        <mxCell id="2_stQIjKN3dvnfmhALIY-92" value="$$ \Delta v$$" style="text;html=1;strokeColor=none;fillColor=none;align=center;verticalAlign=middle;whiteSpace=wrap;rounded=0;" vertex="1" parent="1">
          <mxGeometry x="862" y="180" width="160" height="20" as="geometry" />
        </mxCell>
        <mxCell id="2_stQIjKN3dvnfmhALIY-93" value="$$ \Delta u$$" style="text;html=1;strokeColor=none;fillColor=none;align=center;verticalAlign=middle;whiteSpace=wrap;rounded=0;" vertex="1" parent="1">
          <mxGeometry x="802" y="120" width="160" height="20" as="geometry" />
        </mxCell>
        <mxCell id="2_stQIjKN3dvnfmhALIY-94" value="" style="endArrow=classic;html=1;" edge="1" parent="1">
          <mxGeometry relative="1" as="geometry">
            <mxPoint x="490" y="670" as="sourcePoint" />
            <mxPoint x="670" y="530" as="targetPoint" />
          </mxGeometry>
        </mxCell>
        <mxCell id="2_stQIjKN3dvnfmhALIY-95" value="真实光流" style="edgeLabel;resizable=0;html=1;align=center;verticalAlign=middle;" connectable="0" vertex="1" parent="2_stQIjKN3dvnfmhALIY-94">
          <mxGeometry relative="1" as="geometry" />
        </mxCell>
        <mxCell id="2_stQIjKN3dvnfmhALIY-96" value="" style="endArrow=classic;html=1;" edge="1" parent="1">
          <mxGeometry relative="1" as="geometry">
            <mxPoint x="490" y="670" as="sourcePoint" />
            <mxPoint x="710" y="600" as="targetPoint" />
          </mxGeometry>
        </mxCell>
        <mxCell id="2_stQIjKN3dvnfmhALIY-97" value="预测光流" style="edgeLabel;resizable=0;html=1;align=center;verticalAlign=middle;" connectable="0" vertex="1" parent="2_stQIjKN3dvnfmhALIY-96">
          <mxGeometry relative="1" as="geometry" />
        </mxCell>
        <mxCell id="2_stQIjKN3dvnfmhALIY-98" value="" style="endArrow=classic;html=1;" edge="1" parent="1">
          <mxGeometry relative="1" as="geometry">
            <mxPoint x="670" y="530" as="sourcePoint" />
            <mxPoint x="710" y="600" as="targetPoint" />
          </mxGeometry>
        </mxCell>
        <mxCell id="2_stQIjKN3dvnfmhALIY-99" value="端点误差" style="edgeLabel;resizable=0;html=1;align=center;verticalAlign=middle;" connectable="0" vertex="1" parent="2_stQIjKN3dvnfmhALIY-98">
          <mxGeometry relative="1" as="geometry" />
        </mxCell>
        <mxCell id="2_stQIjKN3dvnfmhALIY-100" value="" style="shape=parallelogram;perimeter=parallelogramPerimeter;whiteSpace=wrap;html=1;fixedSize=1;fillColor=#d80073;strokeColor=#A50040;fontColor=#ffffff;opacity=80;" vertex="1" parent="1">
          <mxGeometry x="667" y="1160" width="120" height="60" as="geometry" />
        </mxCell>
        <mxCell id="2_stQIjKN3dvnfmhALIY-101" value="" style="shape=parallelogram;perimeter=parallelogramPerimeter;whiteSpace=wrap;html=1;fixedSize=1;fillColor=#d80073;strokeColor=#A50040;fontColor=#ffffff;opacity=80;" vertex="1" parent="1">
          <mxGeometry x="767" y="1160" width="120" height="60" as="geometry" />
        </mxCell>
        <mxCell id="2_stQIjKN3dvnfmhALIY-102" value="" style="shape=parallelogram;perimeter=parallelogramPerimeter;whiteSpace=wrap;html=1;fixedSize=1;fillColor=#d80073;strokeColor=#A50040;fontColor=#ffffff;opacity=80;" vertex="1" parent="1">
          <mxGeometry x="647" y="1220" width="120" height="60" as="geometry" />
        </mxCell>
        <mxCell id="2_stQIjKN3dvnfmhALIY-103" value="" style="shape=parallelogram;perimeter=parallelogramPerimeter;whiteSpace=wrap;html=1;fixedSize=1;fillColor=#d80073;strokeColor=#A50040;fontColor=#ffffff;opacity=80;" vertex="1" parent="1">
          <mxGeometry x="747" y="1220" width="120" height="60" as="geometry" />
        </mxCell>
        <mxCell id="2_stQIjKN3dvnfmhALIY-104" value="" style="shape=parallelogram;perimeter=parallelogramPerimeter;whiteSpace=wrap;html=1;fixedSize=1;fillColor=#d80073;strokeColor=#A50040;fontColor=#ffffff;opacity=80;" vertex="1" parent="1">
          <mxGeometry x="867" y="1160" width="120" height="60" as="geometry" />
        </mxCell>
        <mxCell id="2_stQIjKN3dvnfmhALIY-105" value="" style="shape=parallelogram;perimeter=parallelogramPerimeter;whiteSpace=wrap;html=1;fixedSize=1;fillColor=#d80073;strokeColor=#A50040;fontColor=#ffffff;opacity=80;" vertex="1" parent="1">
          <mxGeometry x="967" y="1160" width="120" height="60" as="geometry" />
        </mxCell>
        <mxCell id="2_stQIjKN3dvnfmhALIY-106" value="" style="shape=parallelogram;perimeter=parallelogramPerimeter;whiteSpace=wrap;html=1;fixedSize=1;fillColor=#d80073;strokeColor=#A50040;fontColor=#ffffff;opacity=80;" vertex="1" parent="1">
          <mxGeometry x="847" y="1220" width="120" height="60" as="geometry" />
        </mxCell>
        <mxCell id="2_stQIjKN3dvnfmhALIY-107" value="" style="shape=parallelogram;perimeter=parallelogramPerimeter;whiteSpace=wrap;html=1;fixedSize=1;fillColor=#d80073;strokeColor=#A50040;fontColor=#ffffff;opacity=80;" vertex="1" parent="1">
          <mxGeometry x="947" y="1220" width="120" height="60" as="geometry" />
        </mxCell>
        <mxCell id="2_stQIjKN3dvnfmhALIY-108" value="" style="shape=parallelogram;perimeter=parallelogramPerimeter;whiteSpace=wrap;html=1;fixedSize=1;fillColor=#d80073;strokeColor=#A50040;fontColor=#ffffff;opacity=80;" vertex="1" parent="1">
          <mxGeometry x="629" y="1277" width="120" height="60" as="geometry" />
        </mxCell>
        <mxCell id="2_stQIjKN3dvnfmhALIY-109" value="" style="shape=parallelogram;perimeter=parallelogramPerimeter;whiteSpace=wrap;html=1;fixedSize=1;fillColor=#d80073;strokeColor=#A50040;fontColor=#ffffff;opacity=80;" vertex="1" parent="1">
          <mxGeometry x="729" y="1277" width="120" height="60" as="geometry" />
        </mxCell>
        <mxCell id="2_stQIjKN3dvnfmhALIY-110" value="" style="shape=parallelogram;perimeter=parallelogramPerimeter;whiteSpace=wrap;html=1;fixedSize=1;fillColor=#d80073;strokeColor=#A50040;fontColor=#ffffff;opacity=80;" vertex="1" parent="1">
          <mxGeometry x="609" y="1337" width="120" height="60" as="geometry" />
        </mxCell>
        <mxCell id="2_stQIjKN3dvnfmhALIY-111" value="" style="shape=parallelogram;perimeter=parallelogramPerimeter;whiteSpace=wrap;html=1;fixedSize=1;fillColor=#d80073;strokeColor=#A50040;fontColor=#ffffff;opacity=80;" vertex="1" parent="1">
          <mxGeometry x="709" y="1337" width="120" height="60" as="geometry" />
        </mxCell>
        <mxCell id="2_stQIjKN3dvnfmhALIY-112" value="" style="shape=parallelogram;perimeter=parallelogramPerimeter;whiteSpace=wrap;html=1;fixedSize=1;fillColor=#d80073;strokeColor=#A50040;fontColor=#ffffff;opacity=80;" vertex="1" parent="1">
          <mxGeometry x="829" y="1277" width="120" height="60" as="geometry" />
        </mxCell>
        <mxCell id="2_stQIjKN3dvnfmhALIY-113" value="" style="shape=parallelogram;perimeter=parallelogramPerimeter;whiteSpace=wrap;html=1;fixedSize=1;fillColor=#d80073;strokeColor=#A50040;fontColor=#ffffff;opacity=80;" vertex="1" parent="1">
          <mxGeometry x="929" y="1277" width="120" height="60" as="geometry" />
        </mxCell>
        <mxCell id="2_stQIjKN3dvnfmhALIY-114" value="" style="shape=parallelogram;perimeter=parallelogramPerimeter;whiteSpace=wrap;html=1;fixedSize=1;fillColor=#d80073;strokeColor=#A50040;fontColor=#ffffff;opacity=80;" vertex="1" parent="1">
          <mxGeometry x="809" y="1337" width="120" height="60" as="geometry" />
        </mxCell>
        <mxCell id="2_stQIjKN3dvnfmhALIY-115" value="" style="shape=parallelogram;perimeter=parallelogramPerimeter;whiteSpace=wrap;html=1;fixedSize=1;fillColor=#d80073;strokeColor=#A50040;fontColor=#ffffff;opacity=80;" vertex="1" parent="1">
          <mxGeometry x="909" y="1337" width="120" height="60" as="geometry" />
        </mxCell>
        <mxCell id="2_stQIjKN3dvnfmhALIY-116" value="" style="shape=parallelogram;perimeter=parallelogramPerimeter;whiteSpace=wrap;html=1;fixedSize=1;fillColor=#d80073;strokeColor=#A50040;fontColor=#ffffff;opacity=80;" vertex="1" parent="1">
          <mxGeometry x="1065" y="1160" width="120" height="60" as="geometry" />
        </mxCell>
        <mxCell id="2_stQIjKN3dvnfmhALIY-117" value="" style="shape=parallelogram;perimeter=parallelogramPerimeter;whiteSpace=wrap;html=1;fixedSize=1;fillColor=#d80073;strokeColor=#A50040;fontColor=#ffffff;opacity=80;" vertex="1" parent="1">
          <mxGeometry x="1165" y="1160" width="120" height="60" as="geometry" />
        </mxCell>
        <mxCell id="2_stQIjKN3dvnfmhALIY-118" value="" style="shape=parallelogram;perimeter=parallelogramPerimeter;whiteSpace=wrap;html=1;fixedSize=1;fillColor=#d80073;strokeColor=#A50040;fontColor=#ffffff;opacity=80;" vertex="1" parent="1">
          <mxGeometry x="1045" y="1220" width="120" height="60" as="geometry" />
        </mxCell>
        <mxCell id="2_stQIjKN3dvnfmhALIY-119" value="" style="shape=parallelogram;perimeter=parallelogramPerimeter;whiteSpace=wrap;html=1;fixedSize=1;fillColor=#d80073;strokeColor=#A50040;fontColor=#ffffff;opacity=80;" vertex="1" parent="1">
          <mxGeometry x="1145" y="1220" width="120" height="60" as="geometry" />
        </mxCell>
        <mxCell id="2_stQIjKN3dvnfmhALIY-120" value="" style="shape=parallelogram;perimeter=parallelogramPerimeter;whiteSpace=wrap;html=1;fixedSize=1;fillColor=#d80073;strokeColor=#A50040;fontColor=#ffffff;opacity=80;" vertex="1" parent="1">
          <mxGeometry x="1265" y="1160" width="120" height="60" as="geometry" />
        </mxCell>
        <mxCell id="2_stQIjKN3dvnfmhALIY-121" value="" style="shape=parallelogram;perimeter=parallelogramPerimeter;whiteSpace=wrap;html=1;fixedSize=1;fillColor=#d80073;strokeColor=#A50040;fontColor=#ffffff;opacity=80;" vertex="1" parent="1">
          <mxGeometry x="1365" y="1160" width="120" height="60" as="geometry" />
        </mxCell>
        <mxCell id="2_stQIjKN3dvnfmhALIY-122" value="" style="shape=parallelogram;perimeter=parallelogramPerimeter;whiteSpace=wrap;html=1;fixedSize=1;fillColor=#d80073;strokeColor=#A50040;fontColor=#ffffff;opacity=80;" vertex="1" parent="1">
          <mxGeometry x="1245" y="1220" width="120" height="60" as="geometry" />
        </mxCell>
        <mxCell id="2_stQIjKN3dvnfmhALIY-123" value="" style="shape=parallelogram;perimeter=parallelogramPerimeter;whiteSpace=wrap;html=1;fixedSize=1;fillColor=#d80073;strokeColor=#A50040;fontColor=#ffffff;opacity=80;" vertex="1" parent="1">
          <mxGeometry x="1345" y="1220" width="120" height="60" as="geometry" />
        </mxCell>
        <mxCell id="2_stQIjKN3dvnfmhALIY-124" value="" style="shape=parallelogram;perimeter=parallelogramPerimeter;whiteSpace=wrap;html=1;fixedSize=1;fillColor=#d80073;strokeColor=#A50040;fontColor=#ffffff;opacity=80;" vertex="1" parent="1">
          <mxGeometry x="1027" y="1277" width="120" height="60" as="geometry" />
        </mxCell>
        <mxCell id="2_stQIjKN3dvnfmhALIY-125" value="" style="shape=parallelogram;perimeter=parallelogramPerimeter;whiteSpace=wrap;html=1;fixedSize=1;fillColor=#d80073;strokeColor=#A50040;fontColor=#ffffff;opacity=80;" vertex="1" parent="1">
          <mxGeometry x="1127" y="1277" width="120" height="60" as="geometry" />
        </mxCell>
        <mxCell id="2_stQIjKN3dvnfmhALIY-126" value="" style="shape=parallelogram;perimeter=parallelogramPerimeter;whiteSpace=wrap;html=1;fixedSize=1;fillColor=#d80073;strokeColor=#A50040;fontColor=#ffffff;opacity=80;" vertex="1" parent="1">
          <mxGeometry x="1007" y="1337" width="120" height="60" as="geometry" />
        </mxCell>
        <mxCell id="2_stQIjKN3dvnfmhALIY-127" value="" style="shape=parallelogram;perimeter=parallelogramPerimeter;whiteSpace=wrap;html=1;fixedSize=1;fillColor=#d80073;strokeColor=#A50040;fontColor=#ffffff;opacity=80;" vertex="1" parent="1">
          <mxGeometry x="1107" y="1337" width="120" height="60" as="geometry" />
        </mxCell>
        <mxCell id="2_stQIjKN3dvnfmhALIY-128" value="" style="shape=parallelogram;perimeter=parallelogramPerimeter;whiteSpace=wrap;html=1;fixedSize=1;fillColor=#d80073;strokeColor=#A50040;fontColor=#ffffff;opacity=80;" vertex="1" parent="1">
          <mxGeometry x="1227" y="1277" width="120" height="60" as="geometry" />
        </mxCell>
        <mxCell id="2_stQIjKN3dvnfmhALIY-129" value="" style="shape=parallelogram;perimeter=parallelogramPerimeter;whiteSpace=wrap;html=1;fixedSize=1;fillColor=#d80073;strokeColor=#A50040;fontColor=#ffffff;opacity=80;" vertex="1" parent="1">
          <mxGeometry x="1327" y="1277" width="120" height="60" as="geometry" />
        </mxCell>
        <mxCell id="2_stQIjKN3dvnfmhALIY-130" value="" style="shape=parallelogram;perimeter=parallelogramPerimeter;whiteSpace=wrap;html=1;fixedSize=1;fillColor=#d80073;strokeColor=#A50040;fontColor=#ffffff;opacity=80;" vertex="1" parent="1">
          <mxGeometry x="1207" y="1337" width="120" height="60" as="geometry" />
        </mxCell>
        <mxCell id="2_stQIjKN3dvnfmhALIY-131" value="" style="shape=parallelogram;perimeter=parallelogramPerimeter;whiteSpace=wrap;html=1;fixedSize=1;fillColor=#d80073;strokeColor=#A50040;fontColor=#ffffff;opacity=80;" vertex="1" parent="1">
          <mxGeometry x="1307" y="1337" width="120" height="60" as="geometry" />
        </mxCell>
        <mxCell id="2_stQIjKN3dvnfmhALIY-132" value="" style="shape=parallelogram;perimeter=parallelogramPerimeter;whiteSpace=wrap;html=1;fixedSize=1;fillColor=#d80073;strokeColor=#A50040;fontColor=#ffffff;opacity=80;" vertex="1" parent="1">
          <mxGeometry x="588" y="1397" width="120" height="60" as="geometry" />
        </mxCell>
        <mxCell id="2_stQIjKN3dvnfmhALIY-133" value="" style="shape=parallelogram;perimeter=parallelogramPerimeter;whiteSpace=wrap;html=1;fixedSize=1;fillColor=#d80073;strokeColor=#A50040;fontColor=#ffffff;opacity=80;" vertex="1" parent="1">
          <mxGeometry x="688" y="1397" width="120" height="60" as="geometry" />
        </mxCell>
        <mxCell id="2_stQIjKN3dvnfmhALIY-134" value="" style="shape=parallelogram;perimeter=parallelogramPerimeter;whiteSpace=wrap;html=1;fixedSize=1;fillColor=#d80073;strokeColor=#A50040;fontColor=#ffffff;opacity=80;" vertex="1" parent="1">
          <mxGeometry x="568" y="1457" width="120" height="60" as="geometry" />
        </mxCell>
        <mxCell id="2_stQIjKN3dvnfmhALIY-135" value="" style="shape=parallelogram;perimeter=parallelogramPerimeter;whiteSpace=wrap;html=1;fixedSize=1;fillColor=#d80073;strokeColor=#A50040;fontColor=#ffffff;opacity=80;" vertex="1" parent="1">
          <mxGeometry x="668" y="1457" width="120" height="60" as="geometry" />
        </mxCell>
        <mxCell id="2_stQIjKN3dvnfmhALIY-136" value="" style="shape=parallelogram;perimeter=parallelogramPerimeter;whiteSpace=wrap;html=1;fixedSize=1;fillColor=#d80073;strokeColor=#A50040;fontColor=#ffffff;opacity=80;" vertex="1" parent="1">
          <mxGeometry x="788" y="1397" width="120" height="60" as="geometry" />
        </mxCell>
        <mxCell id="2_stQIjKN3dvnfmhALIY-137" value="" style="shape=parallelogram;perimeter=parallelogramPerimeter;whiteSpace=wrap;html=1;fixedSize=1;fillColor=#d80073;strokeColor=#A50040;fontColor=#ffffff;opacity=80;" vertex="1" parent="1">
          <mxGeometry x="888" y="1397" width="120" height="60" as="geometry" />
        </mxCell>
        <mxCell id="2_stQIjKN3dvnfmhALIY-138" value="" style="shape=parallelogram;perimeter=parallelogramPerimeter;whiteSpace=wrap;html=1;fixedSize=1;fillColor=#d80073;strokeColor=#A50040;fontColor=#ffffff;opacity=80;" vertex="1" parent="1">
          <mxGeometry x="768" y="1457" width="120" height="60" as="geometry" />
        </mxCell>
        <mxCell id="2_stQIjKN3dvnfmhALIY-139" value="" style="shape=parallelogram;perimeter=parallelogramPerimeter;whiteSpace=wrap;html=1;fixedSize=1;fillColor=#d80073;strokeColor=#A50040;fontColor=#ffffff;opacity=80;" vertex="1" parent="1">
          <mxGeometry x="868" y="1457" width="120" height="60" as="geometry" />
        </mxCell>
        <mxCell id="2_stQIjKN3dvnfmhALIY-140" value="" style="shape=parallelogram;perimeter=parallelogramPerimeter;whiteSpace=wrap;html=1;fixedSize=1;fillColor=#d80073;strokeColor=#A50040;fontColor=#ffffff;opacity=80;" vertex="1" parent="1">
          <mxGeometry x="550" y="1514" width="120" height="60" as="geometry" />
        </mxCell>
        <mxCell id="2_stQIjKN3dvnfmhALIY-141" value="" style="shape=parallelogram;perimeter=parallelogramPerimeter;whiteSpace=wrap;html=1;fixedSize=1;fillColor=#d80073;strokeColor=#A50040;fontColor=#ffffff;opacity=80;" vertex="1" parent="1">
          <mxGeometry x="650" y="1514" width="120" height="60" as="geometry" />
        </mxCell>
        <mxCell id="2_stQIjKN3dvnfmhALIY-142" value="" style="shape=parallelogram;perimeter=parallelogramPerimeter;whiteSpace=wrap;html=1;fixedSize=1;fillColor=#d80073;strokeColor=#A50040;fontColor=#ffffff;opacity=80;" vertex="1" parent="1">
          <mxGeometry x="530" y="1574" width="120" height="60" as="geometry" />
        </mxCell>
        <mxCell id="2_stQIjKN3dvnfmhALIY-143" value="" style="shape=parallelogram;perimeter=parallelogramPerimeter;whiteSpace=wrap;html=1;fixedSize=1;fillColor=#d80073;strokeColor=#A50040;fontColor=#ffffff;opacity=80;" vertex="1" parent="1">
          <mxGeometry x="630" y="1574" width="120" height="60" as="geometry" />
        </mxCell>
        <mxCell id="2_stQIjKN3dvnfmhALIY-144" value="" style="shape=parallelogram;perimeter=parallelogramPerimeter;whiteSpace=wrap;html=1;fixedSize=1;fillColor=#d80073;strokeColor=#A50040;fontColor=#ffffff;opacity=80;" vertex="1" parent="1">
          <mxGeometry x="750" y="1514" width="120" height="60" as="geometry" />
        </mxCell>
        <mxCell id="2_stQIjKN3dvnfmhALIY-145" value="" style="shape=parallelogram;perimeter=parallelogramPerimeter;whiteSpace=wrap;html=1;fixedSize=1;fillColor=#d80073;strokeColor=#A50040;fontColor=#ffffff;opacity=80;" vertex="1" parent="1">
          <mxGeometry x="850" y="1514" width="120" height="60" as="geometry" />
        </mxCell>
        <mxCell id="2_stQIjKN3dvnfmhALIY-146" value="" style="shape=parallelogram;perimeter=parallelogramPerimeter;whiteSpace=wrap;html=1;fixedSize=1;fillColor=#d80073;strokeColor=#A50040;fontColor=#ffffff;opacity=80;" vertex="1" parent="1">
          <mxGeometry x="730" y="1574" width="120" height="60" as="geometry" />
        </mxCell>
        <mxCell id="2_stQIjKN3dvnfmhALIY-147" value="" style="shape=parallelogram;perimeter=parallelogramPerimeter;whiteSpace=wrap;html=1;fixedSize=1;fillColor=#d80073;strokeColor=#A50040;fontColor=#ffffff;opacity=80;" vertex="1" parent="1">
          <mxGeometry x="830" y="1574" width="120" height="60" as="geometry" />
        </mxCell>
        <mxCell id="2_stQIjKN3dvnfmhALIY-148" value="" style="shape=parallelogram;perimeter=parallelogramPerimeter;whiteSpace=wrap;html=1;fixedSize=1;fillColor=#d80073;strokeColor=#A50040;fontColor=#ffffff;opacity=80;" vertex="1" parent="1">
          <mxGeometry x="987" y="1397" width="120" height="60" as="geometry" />
        </mxCell>
        <mxCell id="2_stQIjKN3dvnfmhALIY-149" value="" style="shape=parallelogram;perimeter=parallelogramPerimeter;whiteSpace=wrap;html=1;fixedSize=1;fillColor=#d80073;strokeColor=#A50040;fontColor=#ffffff;opacity=80;" vertex="1" parent="1">
          <mxGeometry x="1087" y="1397" width="120" height="60" as="geometry" />
        </mxCell>
        <mxCell id="2_stQIjKN3dvnfmhALIY-150" value="" style="shape=parallelogram;perimeter=parallelogramPerimeter;whiteSpace=wrap;html=1;fixedSize=1;fillColor=#d80073;strokeColor=#A50040;fontColor=#ffffff;opacity=80;" vertex="1" parent="1">
          <mxGeometry x="967" y="1457" width="120" height="60" as="geometry" />
        </mxCell>
        <mxCell id="2_stQIjKN3dvnfmhALIY-151" value="" style="shape=parallelogram;perimeter=parallelogramPerimeter;whiteSpace=wrap;html=1;fixedSize=1;fillColor=#d80073;strokeColor=#A50040;fontColor=#ffffff;opacity=80;" vertex="1" parent="1">
          <mxGeometry x="1067" y="1457" width="120" height="60" as="geometry" />
        </mxCell>
        <mxCell id="2_stQIjKN3dvnfmhALIY-152" value="" style="shape=parallelogram;perimeter=parallelogramPerimeter;whiteSpace=wrap;html=1;fixedSize=1;fillColor=#d80073;strokeColor=#A50040;fontColor=#ffffff;opacity=80;" vertex="1" parent="1">
          <mxGeometry x="1187" y="1397" width="120" height="60" as="geometry" />
        </mxCell>
        <mxCell id="2_stQIjKN3dvnfmhALIY-153" value="" style="shape=parallelogram;perimeter=parallelogramPerimeter;whiteSpace=wrap;html=1;fixedSize=1;fillColor=#d80073;strokeColor=#A50040;fontColor=#ffffff;opacity=80;" vertex="1" parent="1">
          <mxGeometry x="1287" y="1397" width="120" height="60" as="geometry" />
        </mxCell>
        <mxCell id="2_stQIjKN3dvnfmhALIY-154" value="" style="shape=parallelogram;perimeter=parallelogramPerimeter;whiteSpace=wrap;html=1;fixedSize=1;fillColor=#d80073;strokeColor=#A50040;fontColor=#ffffff;opacity=80;" vertex="1" parent="1">
          <mxGeometry x="1167" y="1457" width="120" height="60" as="geometry" />
        </mxCell>
        <mxCell id="2_stQIjKN3dvnfmhALIY-155" value="" style="shape=parallelogram;perimeter=parallelogramPerimeter;whiteSpace=wrap;html=1;fixedSize=1;fillColor=#d80073;strokeColor=#A50040;fontColor=#ffffff;opacity=80;" vertex="1" parent="1">
          <mxGeometry x="1267" y="1457" width="120" height="60" as="geometry" />
        </mxCell>
        <mxCell id="2_stQIjKN3dvnfmhALIY-156" value="" style="shape=parallelogram;perimeter=parallelogramPerimeter;whiteSpace=wrap;html=1;fixedSize=1;fillColor=#d80073;strokeColor=#A50040;fontColor=#ffffff;opacity=80;" vertex="1" parent="1">
          <mxGeometry x="949" y="1514" width="120" height="60" as="geometry" />
        </mxCell>
        <mxCell id="2_stQIjKN3dvnfmhALIY-157" value="" style="shape=parallelogram;perimeter=parallelogramPerimeter;whiteSpace=wrap;html=1;fixedSize=1;fillColor=#d80073;strokeColor=#A50040;fontColor=#ffffff;opacity=80;" vertex="1" parent="1">
          <mxGeometry x="1049" y="1514" width="120" height="60" as="geometry" />
        </mxCell>
        <mxCell id="2_stQIjKN3dvnfmhALIY-158" value="" style="shape=parallelogram;perimeter=parallelogramPerimeter;whiteSpace=wrap;html=1;fixedSize=1;fillColor=#d80073;strokeColor=#A50040;fontColor=#ffffff;opacity=80;" vertex="1" parent="1">
          <mxGeometry x="929" y="1574" width="120" height="60" as="geometry" />
        </mxCell>
        <mxCell id="2_stQIjKN3dvnfmhALIY-159" value="" style="shape=parallelogram;perimeter=parallelogramPerimeter;whiteSpace=wrap;html=1;fixedSize=1;fillColor=#d80073;strokeColor=#A50040;fontColor=#ffffff;opacity=80;" vertex="1" parent="1">
          <mxGeometry x="1029" y="1574" width="120" height="60" as="geometry" />
        </mxCell>
        <mxCell id="2_stQIjKN3dvnfmhALIY-160" value="" style="shape=parallelogram;perimeter=parallelogramPerimeter;whiteSpace=wrap;html=1;fixedSize=1;fillColor=#d80073;strokeColor=#A50040;fontColor=#ffffff;opacity=80;" vertex="1" parent="1">
          <mxGeometry x="1149" y="1514" width="120" height="60" as="geometry" />
        </mxCell>
        <mxCell id="2_stQIjKN3dvnfmhALIY-161" value="" style="shape=parallelogram;perimeter=parallelogramPerimeter;whiteSpace=wrap;html=1;fixedSize=1;fillColor=#d80073;strokeColor=#A50040;fontColor=#ffffff;opacity=80;" vertex="1" parent="1">
          <mxGeometry x="1249" y="1514" width="120" height="60" as="geometry" />
        </mxCell>
        <mxCell id="2_stQIjKN3dvnfmhALIY-162" value="" style="shape=parallelogram;perimeter=parallelogramPerimeter;whiteSpace=wrap;html=1;fixedSize=1;fillColor=#d80073;strokeColor=#A50040;fontColor=#ffffff;opacity=80;" vertex="1" parent="1">
          <mxGeometry x="1129" y="1574" width="120" height="60" as="geometry" />
        </mxCell>
        <mxCell id="2_stQIjKN3dvnfmhALIY-163" value="" style="shape=parallelogram;perimeter=parallelogramPerimeter;whiteSpace=wrap;html=1;fixedSize=1;fillColor=#d80073;strokeColor=#A50040;fontColor=#ffffff;opacity=80;" vertex="1" parent="1">
          <mxGeometry x="1229" y="1574" width="120" height="60" as="geometry" />
        </mxCell>
        <mxCell id="2_stQIjKN3dvnfmhALIY-228" value="" style="shape=parallelogram;perimeter=parallelogramPerimeter;whiteSpace=wrap;html=1;fixedSize=1;fillColor=#1ba1e2;strokeColor=#006EAF;fontColor=#ffffff;opacity=80;" vertex="1" parent="1">
          <mxGeometry x="668.5" y="1020" width="120" height="60" as="geometry" />
        </mxCell>
        <mxCell id="2_stQIjKN3dvnfmhALIY-229" value="" style="shape=parallelogram;perimeter=parallelogramPerimeter;whiteSpace=wrap;html=1;fixedSize=1;fillColor=#1ba1e2;strokeColor=#006EAF;fontColor=#ffffff;opacity=80;" vertex="1" parent="1">
          <mxGeometry x="768.5" y="1020" width="120" height="60" as="geometry" />
        </mxCell>
        <mxCell id="2_stQIjKN3dvnfmhALIY-230" value="" style="shape=parallelogram;perimeter=parallelogramPerimeter;whiteSpace=wrap;html=1;fixedSize=1;fillColor=#1ba1e2;strokeColor=#006EAF;fontColor=#ffffff;opacity=80;" vertex="1" parent="1">
          <mxGeometry x="648.5" y="1080" width="120" height="60" as="geometry" />
        </mxCell>
        <mxCell id="2_stQIjKN3dvnfmhALIY-231" value="" style="shape=parallelogram;perimeter=parallelogramPerimeter;whiteSpace=wrap;html=1;fixedSize=1;fillColor=#1ba1e2;strokeColor=#006EAF;fontColor=#ffffff;opacity=80;" vertex="1" parent="1">
          <mxGeometry x="748.5" y="1080" width="120" height="60" as="geometry" />
        </mxCell>
        <mxCell id="2_stQIjKN3dvnfmhALIY-232" value="" style="shape=parallelogram;perimeter=parallelogramPerimeter;whiteSpace=wrap;html=1;fixedSize=1;fillColor=#1ba1e2;strokeColor=#006EAF;fontColor=#ffffff;opacity=80;" vertex="1" parent="1">
          <mxGeometry x="868.5" y="1020" width="120" height="60" as="geometry" />
        </mxCell>
        <mxCell id="2_stQIjKN3dvnfmhALIY-233" value="" style="shape=parallelogram;perimeter=parallelogramPerimeter;whiteSpace=wrap;html=1;fixedSize=1;fillColor=#1ba1e2;strokeColor=#006EAF;fontColor=#ffffff;opacity=80;" vertex="1" parent="1">
          <mxGeometry x="968.5" y="1020" width="120" height="60" as="geometry" />
        </mxCell>
        <mxCell id="2_stQIjKN3dvnfmhALIY-234" value="" style="shape=parallelogram;perimeter=parallelogramPerimeter;whiteSpace=wrap;html=1;fixedSize=1;fillColor=#1ba1e2;strokeColor=#006EAF;fontColor=#ffffff;opacity=80;" vertex="1" parent="1">
          <mxGeometry x="848.5" y="1080" width="120" height="60" as="geometry" />
        </mxCell>
        <mxCell id="2_stQIjKN3dvnfmhALIY-235" value="" style="shape=parallelogram;perimeter=parallelogramPerimeter;whiteSpace=wrap;html=1;fixedSize=1;fillColor=#1ba1e2;strokeColor=#006EAF;fontColor=#ffffff;opacity=80;" vertex="1" parent="1">
          <mxGeometry x="948.5" y="1080" width="120" height="60" as="geometry" />
        </mxCell>
        <mxCell id="2_stQIjKN3dvnfmhALIY-236" value="" style="shape=parallelogram;perimeter=parallelogramPerimeter;whiteSpace=wrap;html=1;fixedSize=1;fillColor=#1ba1e2;strokeColor=#006EAF;fontColor=#ffffff;opacity=80;" vertex="1" parent="1">
          <mxGeometry x="630.5" y="1137" width="120" height="60" as="geometry" />
        </mxCell>
        <mxCell id="2_stQIjKN3dvnfmhALIY-237" value="" style="shape=parallelogram;perimeter=parallelogramPerimeter;whiteSpace=wrap;html=1;fixedSize=1;fillColor=#1ba1e2;strokeColor=#006EAF;fontColor=#ffffff;opacity=80;" vertex="1" parent="1">
          <mxGeometry x="730.5" y="1137" width="120" height="60" as="geometry" />
        </mxCell>
        <mxCell id="2_stQIjKN3dvnfmhALIY-238" value="" style="shape=parallelogram;perimeter=parallelogramPerimeter;whiteSpace=wrap;html=1;fixedSize=1;fillColor=#1ba1e2;strokeColor=#006EAF;fontColor=#ffffff;opacity=80;" vertex="1" parent="1">
          <mxGeometry x="610.5" y="1197" width="120" height="60" as="geometry" />
        </mxCell>
        <mxCell id="2_stQIjKN3dvnfmhALIY-239" value="" style="shape=parallelogram;perimeter=parallelogramPerimeter;whiteSpace=wrap;html=1;fixedSize=1;fillColor=#1ba1e2;strokeColor=#006EAF;fontColor=#ffffff;opacity=80;" vertex="1" parent="1">
          <mxGeometry x="710.5" y="1197" width="120" height="60" as="geometry" />
        </mxCell>
        <mxCell id="2_stQIjKN3dvnfmhALIY-240" value="" style="shape=parallelogram;perimeter=parallelogramPerimeter;whiteSpace=wrap;html=1;fixedSize=1;fillColor=#1ba1e2;strokeColor=#006EAF;fontColor=#ffffff;opacity=80;" vertex="1" parent="1">
          <mxGeometry x="830.5" y="1137" width="120" height="60" as="geometry" />
        </mxCell>
        <mxCell id="2_stQIjKN3dvnfmhALIY-241" value="" style="shape=parallelogram;perimeter=parallelogramPerimeter;whiteSpace=wrap;html=1;fixedSize=1;fillColor=#1ba1e2;strokeColor=#006EAF;fontColor=#ffffff;opacity=80;" vertex="1" parent="1">
          <mxGeometry x="930.5" y="1137" width="120" height="60" as="geometry" />
        </mxCell>
        <mxCell id="2_stQIjKN3dvnfmhALIY-242" value="" style="shape=parallelogram;perimeter=parallelogramPerimeter;whiteSpace=wrap;html=1;fixedSize=1;fillColor=#1ba1e2;strokeColor=#006EAF;fontColor=#ffffff;opacity=80;" vertex="1" parent="1">
          <mxGeometry x="810.5" y="1197" width="120" height="60" as="geometry" />
        </mxCell>
        <mxCell id="2_stQIjKN3dvnfmhALIY-243" value="" style="shape=parallelogram;perimeter=parallelogramPerimeter;whiteSpace=wrap;html=1;fixedSize=1;fillColor=#1ba1e2;strokeColor=#006EAF;fontColor=#ffffff;opacity=80;" vertex="1" parent="1">
          <mxGeometry x="910.5" y="1197" width="120" height="60" as="geometry" />
        </mxCell>
        <mxCell id="2_stQIjKN3dvnfmhALIY-244" value="" style="shape=parallelogram;perimeter=parallelogramPerimeter;whiteSpace=wrap;html=1;fixedSize=1;fillColor=#1ba1e2;strokeColor=#006EAF;fontColor=#ffffff;opacity=80;" vertex="1" parent="1">
          <mxGeometry x="1066.5" y="1020" width="120" height="60" as="geometry" />
        </mxCell>
        <mxCell id="2_stQIjKN3dvnfmhALIY-245" value="" style="shape=parallelogram;perimeter=parallelogramPerimeter;whiteSpace=wrap;html=1;fixedSize=1;fillColor=#1ba1e2;strokeColor=#006EAF;fontColor=#ffffff;opacity=80;" vertex="1" parent="1">
          <mxGeometry x="1166.5" y="1020" width="120" height="60" as="geometry" />
        </mxCell>
        <mxCell id="2_stQIjKN3dvnfmhALIY-246" value="" style="shape=parallelogram;perimeter=parallelogramPerimeter;whiteSpace=wrap;html=1;fixedSize=1;fillColor=#1ba1e2;strokeColor=#006EAF;fontColor=#ffffff;opacity=80;" vertex="1" parent="1">
          <mxGeometry x="1046.5" y="1080" width="120" height="60" as="geometry" />
        </mxCell>
        <mxCell id="2_stQIjKN3dvnfmhALIY-247" value="" style="shape=parallelogram;perimeter=parallelogramPerimeter;whiteSpace=wrap;html=1;fixedSize=1;fillColor=#1ba1e2;strokeColor=#006EAF;fontColor=#ffffff;opacity=80;" vertex="1" parent="1">
          <mxGeometry x="1146.5" y="1080" width="120" height="60" as="geometry" />
        </mxCell>
        <mxCell id="2_stQIjKN3dvnfmhALIY-248" value="" style="shape=parallelogram;perimeter=parallelogramPerimeter;whiteSpace=wrap;html=1;fixedSize=1;fillColor=#1ba1e2;strokeColor=#006EAF;fontColor=#ffffff;opacity=80;" vertex="1" parent="1">
          <mxGeometry x="1266.5" y="1020" width="120" height="60" as="geometry" />
        </mxCell>
        <mxCell id="2_stQIjKN3dvnfmhALIY-249" value="" style="shape=parallelogram;perimeter=parallelogramPerimeter;whiteSpace=wrap;html=1;fixedSize=1;fillColor=#1ba1e2;strokeColor=#006EAF;fontColor=#ffffff;opacity=80;" vertex="1" parent="1">
          <mxGeometry x="1366.5" y="1020" width="120" height="60" as="geometry" />
        </mxCell>
        <mxCell id="2_stQIjKN3dvnfmhALIY-250" value="" style="shape=parallelogram;perimeter=parallelogramPerimeter;whiteSpace=wrap;html=1;fixedSize=1;fillColor=#1ba1e2;strokeColor=#006EAF;fontColor=#ffffff;opacity=80;" vertex="1" parent="1">
          <mxGeometry x="1246.5" y="1080" width="120" height="60" as="geometry" />
        </mxCell>
        <mxCell id="2_stQIjKN3dvnfmhALIY-251" value="" style="shape=parallelogram;perimeter=parallelogramPerimeter;whiteSpace=wrap;html=1;fixedSize=1;fillColor=#1ba1e2;strokeColor=#006EAF;fontColor=#ffffff;opacity=80;" vertex="1" parent="1">
          <mxGeometry x="1346.5" y="1080" width="120" height="60" as="geometry" />
        </mxCell>
        <mxCell id="2_stQIjKN3dvnfmhALIY-252" value="" style="shape=parallelogram;perimeter=parallelogramPerimeter;whiteSpace=wrap;html=1;fixedSize=1;fillColor=#1ba1e2;strokeColor=#006EAF;fontColor=#ffffff;opacity=80;" vertex="1" parent="1">
          <mxGeometry x="1028.5" y="1137" width="120" height="60" as="geometry" />
        </mxCell>
        <mxCell id="2_stQIjKN3dvnfmhALIY-253" value="" style="shape=parallelogram;perimeter=parallelogramPerimeter;whiteSpace=wrap;html=1;fixedSize=1;fillColor=#1ba1e2;strokeColor=#006EAF;fontColor=#ffffff;opacity=80;" vertex="1" parent="1">
          <mxGeometry x="1128.5" y="1137" width="120" height="60" as="geometry" />
        </mxCell>
        <mxCell id="2_stQIjKN3dvnfmhALIY-254" value="" style="shape=parallelogram;perimeter=parallelogramPerimeter;whiteSpace=wrap;html=1;fixedSize=1;fillColor=#1ba1e2;strokeColor=#006EAF;fontColor=#ffffff;opacity=80;" vertex="1" parent="1">
          <mxGeometry x="1008.5" y="1197" width="120" height="60" as="geometry" />
        </mxCell>
        <mxCell id="2_stQIjKN3dvnfmhALIY-255" value="" style="shape=parallelogram;perimeter=parallelogramPerimeter;whiteSpace=wrap;html=1;fixedSize=1;fillColor=#1ba1e2;strokeColor=#006EAF;fontColor=#ffffff;opacity=80;" vertex="1" parent="1">
          <mxGeometry x="1108.5" y="1197" width="120" height="60" as="geometry" />
        </mxCell>
        <mxCell id="2_stQIjKN3dvnfmhALIY-256" value="" style="shape=parallelogram;perimeter=parallelogramPerimeter;whiteSpace=wrap;html=1;fixedSize=1;fillColor=#1ba1e2;strokeColor=#006EAF;fontColor=#ffffff;opacity=80;" vertex="1" parent="1">
          <mxGeometry x="1228.5" y="1137" width="120" height="60" as="geometry" />
        </mxCell>
        <mxCell id="2_stQIjKN3dvnfmhALIY-257" value="" style="shape=parallelogram;perimeter=parallelogramPerimeter;whiteSpace=wrap;html=1;fixedSize=1;fillColor=#1ba1e2;strokeColor=#006EAF;fontColor=#ffffff;opacity=80;" vertex="1" parent="1">
          <mxGeometry x="1328.5" y="1137" width="120" height="60" as="geometry" />
        </mxCell>
        <mxCell id="2_stQIjKN3dvnfmhALIY-258" value="" style="shape=parallelogram;perimeter=parallelogramPerimeter;whiteSpace=wrap;html=1;fixedSize=1;fillColor=#1ba1e2;strokeColor=#006EAF;fontColor=#ffffff;opacity=80;" vertex="1" parent="1">
          <mxGeometry x="1208.5" y="1197" width="120" height="60" as="geometry" />
        </mxCell>
        <mxCell id="2_stQIjKN3dvnfmhALIY-259" value="" style="shape=parallelogram;perimeter=parallelogramPerimeter;whiteSpace=wrap;html=1;fixedSize=1;fillColor=#1ba1e2;strokeColor=#006EAF;fontColor=#ffffff;opacity=80;" vertex="1" parent="1">
          <mxGeometry x="1308.5" y="1197" width="120" height="60" as="geometry" />
        </mxCell>
        <mxCell id="2_stQIjKN3dvnfmhALIY-260" value="" style="shape=parallelogram;perimeter=parallelogramPerimeter;whiteSpace=wrap;html=1;fixedSize=1;fillColor=#1ba1e2;strokeColor=#006EAF;fontColor=#ffffff;opacity=80;" vertex="1" parent="1">
          <mxGeometry x="589.5" y="1257" width="120" height="60" as="geometry" />
        </mxCell>
        <mxCell id="2_stQIjKN3dvnfmhALIY-261" value="" style="shape=parallelogram;perimeter=parallelogramPerimeter;whiteSpace=wrap;html=1;fixedSize=1;fillColor=#1ba1e2;strokeColor=#006EAF;fontColor=#ffffff;opacity=80;" vertex="1" parent="1">
          <mxGeometry x="689.5" y="1257" width="120" height="60" as="geometry" />
        </mxCell>
        <mxCell id="2_stQIjKN3dvnfmhALIY-262" value="" style="shape=parallelogram;perimeter=parallelogramPerimeter;whiteSpace=wrap;html=1;fixedSize=1;fillColor=#1ba1e2;strokeColor=#006EAF;fontColor=#ffffff;opacity=80;" vertex="1" parent="1">
          <mxGeometry x="569.5" y="1317" width="120" height="60" as="geometry" />
        </mxCell>
        <mxCell id="2_stQIjKN3dvnfmhALIY-263" value="" style="shape=parallelogram;perimeter=parallelogramPerimeter;whiteSpace=wrap;html=1;fixedSize=1;fillColor=#1ba1e2;strokeColor=#006EAF;fontColor=#ffffff;opacity=80;" vertex="1" parent="1">
          <mxGeometry x="669.5" y="1317" width="120" height="60" as="geometry" />
        </mxCell>
        <mxCell id="2_stQIjKN3dvnfmhALIY-264" value="" style="shape=parallelogram;perimeter=parallelogramPerimeter;whiteSpace=wrap;html=1;fixedSize=1;fillColor=#1ba1e2;strokeColor=#006EAF;fontColor=#ffffff;opacity=80;" vertex="1" parent="1">
          <mxGeometry x="789.5" y="1257" width="120" height="60" as="geometry" />
        </mxCell>
        <mxCell id="2_stQIjKN3dvnfmhALIY-265" value="" style="shape=parallelogram;perimeter=parallelogramPerimeter;whiteSpace=wrap;html=1;fixedSize=1;fillColor=#1ba1e2;strokeColor=#006EAF;fontColor=#ffffff;opacity=80;" vertex="1" parent="1">
          <mxGeometry x="889.5" y="1257" width="120" height="60" as="geometry" />
        </mxCell>
        <mxCell id="2_stQIjKN3dvnfmhALIY-266" value="" style="shape=parallelogram;perimeter=parallelogramPerimeter;whiteSpace=wrap;html=1;fixedSize=1;fillColor=#1ba1e2;strokeColor=#006EAF;fontColor=#ffffff;opacity=80;" vertex="1" parent="1">
          <mxGeometry x="769.5" y="1317" width="120" height="60" as="geometry" />
        </mxCell>
        <mxCell id="2_stQIjKN3dvnfmhALIY-267" value="" style="shape=parallelogram;perimeter=parallelogramPerimeter;whiteSpace=wrap;html=1;fixedSize=1;fillColor=#1ba1e2;strokeColor=#006EAF;fontColor=#ffffff;opacity=80;" vertex="1" parent="1">
          <mxGeometry x="869.5" y="1317" width="120" height="60" as="geometry" />
        </mxCell>
        <mxCell id="2_stQIjKN3dvnfmhALIY-268" value="" style="shape=parallelogram;perimeter=parallelogramPerimeter;whiteSpace=wrap;html=1;fixedSize=1;fillColor=#1ba1e2;strokeColor=#006EAF;fontColor=#ffffff;opacity=80;" vertex="1" parent="1">
          <mxGeometry x="551.5" y="1374" width="120" height="60" as="geometry" />
        </mxCell>
        <mxCell id="2_stQIjKN3dvnfmhALIY-269" value="" style="shape=parallelogram;perimeter=parallelogramPerimeter;whiteSpace=wrap;html=1;fixedSize=1;fillColor=#1ba1e2;strokeColor=#006EAF;fontColor=#ffffff;opacity=80;" vertex="1" parent="1">
          <mxGeometry x="651.5" y="1374" width="120" height="60" as="geometry" />
        </mxCell>
        <mxCell id="2_stQIjKN3dvnfmhALIY-270" value="" style="shape=parallelogram;perimeter=parallelogramPerimeter;whiteSpace=wrap;html=1;fixedSize=1;fillColor=#1ba1e2;strokeColor=#006EAF;fontColor=#ffffff;opacity=80;" vertex="1" parent="1">
          <mxGeometry x="531.5" y="1434" width="120" height="60" as="geometry" />
        </mxCell>
        <mxCell id="2_stQIjKN3dvnfmhALIY-271" value="" style="shape=parallelogram;perimeter=parallelogramPerimeter;whiteSpace=wrap;html=1;fixedSize=1;fillColor=#1ba1e2;strokeColor=#006EAF;fontColor=#ffffff;opacity=80;" vertex="1" parent="1">
          <mxGeometry x="631.5" y="1434" width="120" height="60" as="geometry" />
        </mxCell>
        <mxCell id="2_stQIjKN3dvnfmhALIY-272" value="" style="shape=parallelogram;perimeter=parallelogramPerimeter;whiteSpace=wrap;html=1;fixedSize=1;fillColor=#1ba1e2;strokeColor=#006EAF;fontColor=#ffffff;opacity=80;" vertex="1" parent="1">
          <mxGeometry x="751.5" y="1374" width="120" height="60" as="geometry" />
        </mxCell>
        <mxCell id="2_stQIjKN3dvnfmhALIY-273" value="" style="shape=parallelogram;perimeter=parallelogramPerimeter;whiteSpace=wrap;html=1;fixedSize=1;fillColor=#1ba1e2;strokeColor=#006EAF;fontColor=#ffffff;opacity=80;" vertex="1" parent="1">
          <mxGeometry x="851.5" y="1374" width="120" height="60" as="geometry" />
        </mxCell>
        <mxCell id="2_stQIjKN3dvnfmhALIY-274" value="" style="shape=parallelogram;perimeter=parallelogramPerimeter;whiteSpace=wrap;html=1;fixedSize=1;fillColor=#1ba1e2;strokeColor=#006EAF;fontColor=#ffffff;opacity=80;" vertex="1" parent="1">
          <mxGeometry x="731.5" y="1434" width="120" height="60" as="geometry" />
        </mxCell>
        <mxCell id="2_stQIjKN3dvnfmhALIY-275" value="" style="shape=parallelogram;perimeter=parallelogramPerimeter;whiteSpace=wrap;html=1;fixedSize=1;fillColor=#1ba1e2;strokeColor=#006EAF;fontColor=#ffffff;opacity=80;" vertex="1" parent="1">
          <mxGeometry x="831.5" y="1434" width="120" height="60" as="geometry" />
        </mxCell>
        <mxCell id="2_stQIjKN3dvnfmhALIY-276" value="" style="shape=parallelogram;perimeter=parallelogramPerimeter;whiteSpace=wrap;html=1;fixedSize=1;fillColor=#1ba1e2;strokeColor=#006EAF;fontColor=#ffffff;opacity=80;" vertex="1" parent="1">
          <mxGeometry x="988.5" y="1257" width="120" height="60" as="geometry" />
        </mxCell>
        <mxCell id="2_stQIjKN3dvnfmhALIY-277" value="" style="shape=parallelogram;perimeter=parallelogramPerimeter;whiteSpace=wrap;html=1;fixedSize=1;fillColor=#1ba1e2;strokeColor=#006EAF;fontColor=#ffffff;opacity=80;" vertex="1" parent="1">
          <mxGeometry x="1088.5" y="1257" width="120" height="60" as="geometry" />
        </mxCell>
        <mxCell id="2_stQIjKN3dvnfmhALIY-278" value="" style="shape=parallelogram;perimeter=parallelogramPerimeter;whiteSpace=wrap;html=1;fixedSize=1;fillColor=#1ba1e2;strokeColor=#006EAF;fontColor=#ffffff;opacity=80;" vertex="1" parent="1">
          <mxGeometry x="968.5" y="1317" width="120" height="60" as="geometry" />
        </mxCell>
        <mxCell id="2_stQIjKN3dvnfmhALIY-279" value="" style="shape=parallelogram;perimeter=parallelogramPerimeter;whiteSpace=wrap;html=1;fixedSize=1;fillColor=#1ba1e2;strokeColor=#006EAF;fontColor=#ffffff;opacity=80;" vertex="1" parent="1">
          <mxGeometry x="1068.5" y="1317" width="120" height="60" as="geometry" />
        </mxCell>
        <mxCell id="2_stQIjKN3dvnfmhALIY-280" value="" style="shape=parallelogram;perimeter=parallelogramPerimeter;whiteSpace=wrap;html=1;fixedSize=1;fillColor=#1ba1e2;strokeColor=#006EAF;fontColor=#ffffff;opacity=80;" vertex="1" parent="1">
          <mxGeometry x="1188.5" y="1257" width="120" height="60" as="geometry" />
        </mxCell>
        <mxCell id="2_stQIjKN3dvnfmhALIY-281" value="" style="shape=parallelogram;perimeter=parallelogramPerimeter;whiteSpace=wrap;html=1;fixedSize=1;fillColor=#1ba1e2;strokeColor=#006EAF;fontColor=#ffffff;opacity=80;" vertex="1" parent="1">
          <mxGeometry x="1288.5" y="1257" width="120" height="60" as="geometry" />
        </mxCell>
        <mxCell id="2_stQIjKN3dvnfmhALIY-282" value="" style="shape=parallelogram;perimeter=parallelogramPerimeter;whiteSpace=wrap;html=1;fixedSize=1;fillColor=#1ba1e2;strokeColor=#006EAF;fontColor=#ffffff;opacity=80;" vertex="1" parent="1">
          <mxGeometry x="1168.5" y="1317" width="120" height="60" as="geometry" />
        </mxCell>
        <mxCell id="2_stQIjKN3dvnfmhALIY-283" value="" style="shape=parallelogram;perimeter=parallelogramPerimeter;whiteSpace=wrap;html=1;fixedSize=1;fillColor=#1ba1e2;strokeColor=#006EAF;fontColor=#ffffff;opacity=80;" vertex="1" parent="1">
          <mxGeometry x="1268.5" y="1317" width="120" height="60" as="geometry" />
        </mxCell>
        <mxCell id="2_stQIjKN3dvnfmhALIY-284" value="" style="shape=parallelogram;perimeter=parallelogramPerimeter;whiteSpace=wrap;html=1;fixedSize=1;fillColor=#1ba1e2;strokeColor=#006EAF;fontColor=#ffffff;opacity=80;" vertex="1" parent="1">
          <mxGeometry x="950.5" y="1374" width="120" height="60" as="geometry" />
        </mxCell>
        <mxCell id="2_stQIjKN3dvnfmhALIY-285" value="" style="shape=parallelogram;perimeter=parallelogramPerimeter;whiteSpace=wrap;html=1;fixedSize=1;fillColor=#1ba1e2;strokeColor=#006EAF;fontColor=#ffffff;opacity=80;" vertex="1" parent="1">
          <mxGeometry x="1050.5" y="1374" width="120" height="60" as="geometry" />
        </mxCell>
        <mxCell id="2_stQIjKN3dvnfmhALIY-286" value="" style="shape=parallelogram;perimeter=parallelogramPerimeter;whiteSpace=wrap;html=1;fixedSize=1;fillColor=#1ba1e2;strokeColor=#006EAF;fontColor=#ffffff;opacity=80;" vertex="1" parent="1">
          <mxGeometry x="930.5" y="1434" width="120" height="60" as="geometry" />
        </mxCell>
        <mxCell id="2_stQIjKN3dvnfmhALIY-287" value="" style="shape=parallelogram;perimeter=parallelogramPerimeter;whiteSpace=wrap;html=1;fixedSize=1;fillColor=#1ba1e2;strokeColor=#006EAF;fontColor=#ffffff;opacity=80;" vertex="1" parent="1">
          <mxGeometry x="1030.5" y="1434" width="120" height="60" as="geometry" />
        </mxCell>
        <mxCell id="2_stQIjKN3dvnfmhALIY-288" value="" style="shape=parallelogram;perimeter=parallelogramPerimeter;whiteSpace=wrap;html=1;fixedSize=1;fillColor=#1ba1e2;strokeColor=#006EAF;fontColor=#ffffff;opacity=80;" vertex="1" parent="1">
          <mxGeometry x="1150.5" y="1374" width="120" height="60" as="geometry" />
        </mxCell>
        <mxCell id="2_stQIjKN3dvnfmhALIY-289" value="" style="shape=parallelogram;perimeter=parallelogramPerimeter;whiteSpace=wrap;html=1;fixedSize=1;fillColor=#1ba1e2;strokeColor=#006EAF;fontColor=#ffffff;opacity=80;" vertex="1" parent="1">
          <mxGeometry x="1250.5" y="1374" width="120" height="60" as="geometry" />
        </mxCell>
        <mxCell id="2_stQIjKN3dvnfmhALIY-290" value="" style="shape=parallelogram;perimeter=parallelogramPerimeter;whiteSpace=wrap;html=1;fixedSize=1;fillColor=#1ba1e2;strokeColor=#006EAF;fontColor=#ffffff;opacity=80;" vertex="1" parent="1">
          <mxGeometry x="1130.5" y="1434" width="120" height="60" as="geometry" />
        </mxCell>
        <mxCell id="2_stQIjKN3dvnfmhALIY-291" value="" style="shape=parallelogram;perimeter=parallelogramPerimeter;whiteSpace=wrap;html=1;fixedSize=1;fillColor=#1ba1e2;strokeColor=#006EAF;fontColor=#ffffff;opacity=80;" vertex="1" parent="1">
          <mxGeometry x="1230.5" y="1434" width="120" height="60" as="geometry" />
        </mxCell>
        <mxCell id="2_stQIjKN3dvnfmhALIY-294" value="" style="shape=flexArrow;endArrow=classic;html=1;endWidth=200;endSize=42.333333333333336;width=100;opacity=80;fillColor=#bac8d3;strokeColor=#23445d;" edge="1" parent="1">
          <mxGeometry width="50" height="50" relative="1" as="geometry">
            <mxPoint x="1610" y="1280.67" as="sourcePoint" />
            <mxPoint x="2100" y="1283.7372781065087" as="targetPoint" />
            <Array as="points">
              <mxPoint x="1633" y="1280.67" />
            </Array>
          </mxGeometry>
        </mxCell>
        <mxCell id="2_stQIjKN3dvnfmhALIY-296" value="" style="whiteSpace=wrap;html=1;aspect=fixed;fillColor=#1ba1e2;strokeColor=#006EAF;fontColor=#ffffff;opacity=80;" vertex="1" parent="1">
          <mxGeometry x="2743" y="760" width="80" height="80" as="geometry" />
        </mxCell>
        <mxCell id="2_stQIjKN3dvnfmhALIY-297" value="" style="whiteSpace=wrap;html=1;aspect=fixed;fillColor=#d80073;strokeColor=#A50040;fontColor=#ffffff;opacity=80;" vertex="1" parent="1">
          <mxGeometry x="2743" y="640" width="80" height="80" as="geometry" />
        </mxCell>
        <mxCell id="2_stQIjKN3dvnfmhALIY-298" value="horizontal shift" style="text;html=1;strokeColor=none;fillColor=none;align=center;verticalAlign=middle;whiteSpace=wrap;rounded=0;fontSize=65;opacity=80;" vertex="1" parent="1">
          <mxGeometry x="2780" y="670" width="550" height="20" as="geometry" />
        </mxCell>
        <mxCell id="2_stQIjKN3dvnfmhALIY-299" value="vertical shift" style="text;html=1;strokeColor=none;fillColor=none;align=center;verticalAlign=middle;whiteSpace=wrap;rounded=0;fontSize=65;opacity=80;" vertex="1" parent="1">
          <mxGeometry x="2750" y="780" width="550" height="20" as="geometry" />
        </mxCell>
        <mxCell id="2_stQIjKN3dvnfmhALIY-300" value="" style="shape=image;verticalLabelPosition=bottom;labelBackgroundColor=#ffffff;verticalAlign=top;aspect=fixed;imageAspect=0;image=data:image/png,iVBORw0KGgoAAAANSUhEUgAAAQAAAAEACAIAAADTED8xAAAgAElEQVR4AVTBAafvbcMm5OM8r3W/fa1m5p2ZL51EIpGIRERERERk7r3X+l1n67/23s/qOY74d9ceHnvs8Z8eHnvssYfHHnv8/XDt4bHLY5fHj2sPl2sPl+vH5eHa5XK5fl6uXS6Xcb1fu4zLZVzvl3EZl/kYlzHumzEum7E3Y1zG2JvNGGNvhhljx5iXsWNexlDzMoZjXoaa34Zjvsxw/DIcv81wfDu+Hf+kvh0vEV+OX4LjJeLLEUR8eRMvwZsgQvAmiETwJpGIl/wlJBLBm0QikcibRCKRauQviURINfKXVCOR6r8QqUaqkbrVSLUaqdRTjVSr1Wp9VCvVavU49V6tHq1Wj9bH0erR6tHjVI/3o8c5evQ4R49z/Dx6nKPxb9957LHHHvvw92OPXR577OGxx9+Xxx6uPVx7uH5cHrtce7hcP69dHq5dLtfPy7hcrl2u93G5jMu8Xy7jMubjMi5j7M2dMcZlb8YYY8cYY+wYY152jDEvO4YZwzHmZah5mZcdLzMc89tQvwzHy8yX49vxrRbxR307fougXiI4fokvb4IISgQRvImXIPImiBC8SQSRyJtEECF/SYREIn9JhEQif0mkGolE/tJIJFKN/GcSiVQj1bqRaqRajY9KtVqtRuqjWq1Wj1bro1o5TrV6tN6rx6kcp3Kco/V+9DhHj3O0evR4f3OOHj1O/Nu/7bHHHvuwh8d/enjs2sNjjz1cfz9ce3jscu3h+vFw7XJ57HL9vFy7XC7XrvfL5dplXO+XcbmMa/NxuYxxmY/LGJexY1zG2JsxxtgxxhhjxxjD7M1mXsaOeRmOzbwMxzDzsuPTfKn5bTheZjh+mS/17fhtdrxEfKlvxz8Ex0sE9RLx5U38lkPES/AmiCByBBG8SSTiJW8SQSTyJpFIJEL+kkgkQv6SSCRS/UsikWgk8p9JpBqJVOtGqpFqNVJPNVKpVuupVqrVarU+KtXjVKrV46N6tFo9epzK8VE9evQ4R6tHj/ejx3lzjh6Nf/P/2mOPfdjDY489/n7s8thjD9cee/y4PHZ57PLY5frxcLl2eexy/bxcLtcul+t9drlcLvN+ucwu4/oYl3EZ18cYlzF2XMYYY2/GuDP25tMYm73ZjHnZMca87BhmDMe8DDUv87L6NF+O+TLD8TLD8ct8qW/Ht+Of1LfjH4LjJYJ6ifhyxJfI8SmI4E28BG+CSARHIohE3iTiJZE3iUQikUMkUo28SSQSiUT+RSORSDTyL1Qj1Ug1nmqkGqnWE6lWq5X4qFarlWq1PqrVo9Vq9fioVo5TPVo9Wu/HOVo9evQ4leP9OEePHufNORr/+f9jj33Yw2OPPfbY48e1xx4eu/bw2PXj4drDtctj189rD5drl8u1x/u1y7hcu94vl8u4dpmPa5dxGdfHuIzLbJ7LGOOyY4wx7pvNGGNvNvMydowxhmOMYXbMyxhqXuZlh5mXHZ/my+z4ZahfhvqHob4d345/Ut+OX+LL8UtwvERQIr5ESgSREkEERxCJ4E0iXhJ5E0QikTchEUTeJBKJRN6kGolE/pJINRKJ/ItEItVINZ5qpBqp1hOpViPVan1Uq9VItT6OU6lWq5Xj1EflOJXqcSrHR/XocSrHOXq03o8ePc7Ro8d5c+I//t/+04c9PPbYY489XHv8/fDYY5fHLo89flyuPVx7uHb9vDx2uVy7XD8vl8u1y2XeL9cu43KZ98tlXMb1MWaXcT1jjMvYMcZljB1jjLFjzMvYMca8rMa8jB2fNsMxL8Ps+DQvq1/mZfXLUL/Ml+NlhuNbfTv+SX2rlwiOfwiOX4JDxEtwiHjJIeIleBNEyCESQeRNCCKRN4lEEHmTSIRE/pJIhFQjf0kkUo1E/qIaqUbiqUaqkWrdUK1GqtV6ItVKtVqtj2q1Uq0ep96r1aPVo9V6P87R6tHq0eMc70erR48e5+jR48R/+L/sw9+PPfbYYw+PXXvs8eOxy2MP1x67PH5ce7hce7h2/bxcrj1cu1zv1y7jcrl2vY/L5TKu93EZl3F9zC5jXOYZlzHGjssYY8cYY+wYY152jM287BjzMlafxrysPs3LDjMvw2HmyzFfZsdvMxy/zY5v9e34J/WtRHypl4gvJeLLEV8i9RJBpEQQOT4FkcghQhB5kwgi5E0iiETeJBKJRN4kEolE/tJIJBKp/kWkGolU46lGqpFqPNVIpVqNj2q1Wg3VeqqV6nEq1fqoVo9WK8ep9+NUjlM5ztHq8X6co9WjR48e5+jxHv/+/7QPe/z92GMPj1177OGx68djD9ceuzx27fHz2sPl2uWx6+flcu1yuXa9Xy7XLuNyvV/Gtcu4PsZlXBvXxxiXMa5njDHuMcYYO8YYY+wY87LZMeZlxxhm7Pg0L5sdn4bZ8Wl+W32aLzW/rf5hqG81f9S345/UtyP+qJeILyXiyxFfIiXitxwiXnKIRLzkEIkgciSCyJtECCJvEolEIpE3iUQikTepRiKRv6hGItVI3EqkGqnGU41Uq6FutRKpVqv1Ua1WK9VqfVSPVquV49T7cSrHqRyncpzjo3L0OEerR48ePd6Pxr/+Hzzuhz3+frj22GMPjz127fHj4drDtccu14+Hy7WHa5dr1/tjl8u1y2Xer10ul2vzcbk2LuNyfcwuY1zm4zLGuJ4xxmXsGGOMHWOMsWMzL2PHmJexmpcx1LwMNeZlOMy8rH4Zar6t/mH1rX4Z6tvxT+qX4PhWIr7Up/jjTbwEx6cgcvwSRI4ggjfxkgjeJEIQeZNIBJEjkUgk8iaRSCTyJpFINRL5i2okEqlFqpFQjadajVQj1Xoi1Uq1Wk+kWqlWq8dTqVYrx6lWjqdSPVo9Wj0+jlaPHj3O0aPV4/3omxP/+r/bY4899vj7scceHnvs2sNj14+Ha49dHrtcPx4u1y6PXa5d75drl8u1y/V+Gdcul3m/XMZlXO/jMi5jPi5jXMY8Y1zGjjHG2DHG2Iwd8zJ2jGHGjk9jXlbzMtS8zMvq0zA7fpkvNX/E/FHzx/GtzHw5/v9S3+rbEX8c8ccRXyIoEURKBBEcQQRHIoiQQySCyJFIBG8SiZBI5E0ikUjkTSKRauQvIpFqJFKLRKqRSjzVSDVSrSdSrVYj9VSq1WqlWk+lWj1arVSPp1I9Wj1aPT6qR49Wjx49ztHj/ehxjsa/+9/ssccee+zx98Njj117eOzaw/Xjsctjl8cu14+Hy7XLtcv1fu1yuXa5XO/XLuNyuTYfl3GZXebjMi7jMh9jXMY84zLG2DHGGDs2Y4wdn8YYq09jDMdmXnZ82szLDjMvq0/zpea3oT7Nl/o0X+qXob7Vt/on9a1eIqjfIvVbpF4ivhzxW45PQaREEImUCCJHEIlEjk+JRCKHSCQSORKJRCJvEolEItW/iESqkbiRaqQaqRupRKqRupFKtRqp1lOtVKvVSj3VSrVaqR5PpXq0erR6fFSPVo8erR49enwcPXr0OPFv/1d77LHHHnvs8ePaYw+PXXt47Nrj57XLY5drD9fPa5fHLtcu1/u1y+Uyu1zvl8u4dpmPy7VxGZf5uIxxmY9xGWPMcxlj7BhjbHaMMcaOT2OM1acxL6t5GatP8zLUvAw1L/OlhhmOlxnql6G+1fxR3+qf1Lcj/qiXCOqX4PglOOJLBEcQwREvQeQQIXiTiJdEDpEIiRwikUjkTSIkEnmTSCQS+ReJRCKRatxINRKpG6lGKpFq3Ui1EqnWU61GqpVqPZVqtXKcan1UjlOpHq3Wx9Hq0aPVo0ePUz+Pc/To0aPxb/4Xe+yxxx57uPb4++Gxaw+PXXu4fjxcu/ZwuXbt8X7tcu1yuXa9X65dLpfZ9XHtMi6Xeb+My7jMx2WMa2OeyxhjXM8YY+zYjDF2jDEvO8ZmXnaMeVnNy7ys5mWoYeZl9ctQ89vqH1bfYv6of1h9q39SIr7Ut4o/SsSXEvHliJfg+BREcAQRHIkggiMRRI5EEIkciSASeZNIJBI5EolEIn9RjUQikVokUo1E6kaqkWqknki1GqnWU41UqtVqfVSrlWq1Us/RaqV6tFo9PqpHq0ePVo8eH0crxzl69Gj8x//Z3489XHvssccee/y49vDYtYdrj10/rz1crj12uXa9X7s8drnMrvfL5drlMq73y7h2GdfHuIxr43rG7DLG9YwxxvWMMcZqjDF2jHkZqzEvY8cwYzg287LDzMtQ8zLU/LYy8+Uw86Xmj/plqG/1rf5Jfatfgvp2xG85/iEl4ssRRHDESxA5PgWRI4hEcCQSQeRNSASRN4lEIpE3iZBI5C+qkUgkbjUSqUbiqUaqkWo81VCtRupWItVqpVpPNVKpHq3WU6lWjlOpHq2P6tHq0erRo/V+9DhHjx6tHo3/8D/Z48djjz322GPXHh4/rj32cO2xy7XHz2sP1y7XLo9d79cul2uXa9fH7HK5dpmPy7VxGZf5uMwu4zIf4zLG9YwxxrieMcZYjTGGY4wxVp/GWH0a87Kal7H6NC9DDTMcZl5Wvwz1y1AvM1/qH1bf6rf6Ft9KxJf6LYL6JaiXCErES+olgiOIIFIiERyJeEnkECGRQyQSIW+CSCTyJpFIJPJGNRKJROJWI5FqPJFqpBqpG6lGKpFq3UilWq3GR7VSrVaq9VSOU6lWqkfrOVqpHq0ePVofR49WjnP06NHjPf79/2iPPX489ti1xx4eu/b48XDtsctj1y6Pn9cu1x6uXa5d75drl2uXy/U+rl0u43q/jMu4dn2McRmX+RiXMcb1jDFmcy9jjNWYl7FjjDHUGPOyGvOy+jTmZfVpmNWneVn9MtSn+TKrX4b6bVbf6lt9GuofUt/qW32KL/USQYn4LfUSQYl4yfEpiJQIIpESQeRIBJHIEUQikSORCCJvEolEIn9JJBKJxK1GIpFq3EglUo3EU61GqpF6qpFqpRpPpVqtVKv1Ua1WqkerlXqOVitHq0erx8fR6tGjR6tHj/ej8a//gz1ce/z92GMP1x577PLY48fl2mOXxy7Xz8cu1y7XLteu98u1y+Xa5Xofl2uXcX2Ma5dxmY9xGZfZPJcxxmWe2Rhj7hhjrMYYY8cYZuyYl7Gal81wDDPUvAw1L/OyepmhPs2Xmj9i/qhfhvhWv9W3+la/BPXtiD8qvkTqJYL6FERwBBEc8RIcQSSCI5EIjkQiiByJRCKRN4lEIpE3IpFIJG6kGolEapFINVTjRiqRajWeaqhWq/FRrVaq1Uo91Uq1WqlWjlupHq0erdTH0aPVo0erR48eH0cr8a//vT322GOPvx+uPfbY5bFrj10/H7s8drn22PV+7XLtcu3h2vU+Ltcu166Pce1yGdfm43IZl9k8l9lljOsZY8yuZ4wx5o4xxmqMMXaYMcaOT5sx1JiX1ad5Wc3LfKlhhprfVi8z1C9D/Tarb/Ut5kt9q/ijvpWIL/ESQb1EECK+HEEEFV8iOBJBpES85AgikUiJRCKR41MikcibRCKRyBuRSCQStxqJROJWI5FqpG4kUg3VupFqpFKtxlOpVivV+KhWjlOpViv1VI5TqR6tHh/Vo5Wj1aNHq8fH0aNH49/9d/bYY9cee/x47NrDY9ceuzx2/Xzscu2xy7Xr/drDtcu1y/V+mV2uXS7X+7hcZpdxfVxmlzGuj3EZY57LmI1xPWOMMXeMMVZjXsZqjHlZzctYzctQY16GGmao+W31MkPNHzV/xPxRLzPUt/qtvsW3eokgvh3xR8UfR7wEJeLLEURQQQSRI4jgSITgTSJeEnmTSMRL3iQSiUTeiEQikVg1RCKRWiQSqcZTjUSqkbrVUI1UK/FUq5VqNdStVCvV6tF6KtXKcSrV46N6tHq0cvQ4lePj6NHq0fi3/6099thjj117/Hi49thjl8euPXa9X3vscu1y7fF+7XLtcu1yvV9ml8u1y3xcu4zL7Hpml3EZ18cYlzHm4zLGmGdcxhhzxxhDjTFW8zLG6tMYaszLWH0aZvVpXla/DDG/rV5mqF+G+m1W3+pbfBrqH1Lf4luJ+BIvEdRLBCHiyxEvQYkgUiJeUiIRRI4gEimRSARHIpHIEUQikTcikUikGotEIqEWiUSqkbiVSDVSjacaqUSqdSOVarUSqadarVQr1XqOVivVynHqo3K0erR69GjleI5Wjh49Gv/mv7HHrj322GMP1x4/rj1ce+zaw7XHz8u1y7XHLtf7tcu1y7XL9T4u1y6X2fVxGdfGZT4u4zK7zDMuYzauZ4wx5hljjLljjLEaY15WYww15mWsPs3LYl6Gmpd5Wfwy1Kf5EvOl5o+YP+q3WX2L3+pbfQsRX+pbxR8VX474LfUSQX0KIjiCCI4QREokgsgRRCJHIohEjkQikcgbkUgkEotEIpG4lUgkUo0bqYZqpG6kGqlG6qlGqpVqNT6qlWq1Uq2nUj1arVTr42j1aOU4laP1cbRynKNHj1biP/7X/n7ssYdrjz322LXHz2uPXXu4du3h+nm59tjl2uV6v3a5drl2uT5ml2uXce16ZpdxmV3PuDbGZZ7ZZYx5xmWMMc8YY8wdY4zVpzFW8zLG6tMYapgx1LwMNcxQn+Zl8ctQvwzxaYhvNX/Et/qtvsW3+lbxR/2SeokgXiKoT0GkXiKoIIIjiERQQSRSIpEIjkQikRKJRCJvRCKRSCwSiUSqcSORUI0bqUYilbjVSCVSjadaiVSrlXiqlWqlWq2nUq1Uj1bro3q0Uj1aOU69H6dy9OjR6tGj8R/+K7t+PPbYY49de+zaY4+fl2uPXXu4drl+Pna5drl2ud6vXa5drl3m49plXLuM6+Myu4zLfIzLGNfHGJcx5hnjMuYZY4y5Y17Gaox5WY15Wc3LZqgxL6tP87L4NF9qmKE+zZeYP2r+iPkS38rMl/qtvsVvkfhWv1X8UfHHEb+lXiKo+BIpES8pEUSOIEJwJILIkQgikSORCCJvRCKRSCwSqUbiRiKRaohbjUSq8USqkWqoVSLVSqRaN1SrlWqlbqVaqVaqx1OtVI9WjlOpj6NHq0crR48ePT7i3/+X9tjjx7XHHnvs2sO1x66fj12uPXa59tj1fu1y7XLtcr1fu1y7jGvXx2V2ucyuZ3YZl9n1jMuYXeYZ4zLGPGOMMc8YY8wdY4zVpzFWn8YYYszL6tMYapih5rfFp/lS82VWvwzxD4vf6pchvtVv8a2+xUsE8Vt9ii/1EkGI+FLxJVKf4ssRRFBBJFIiiBzxkkikRCKREolEIm9EIpFILBKJROJGIpFqJG6kEolU41Yi1Ug1nmqoViP1VKuhWq3UrVQr1Uq1nsrRauVotXI81aOVo9WjR4/W+9H41//CHnvssevHYw/XHrv22LXH+7XHLteuPXa53q9drl2uXa73a5fL7HLt+hiXa+MyH5dxbVzmmV3GuMwzxuwyd4zZGHPHGHPHvIzVmJexGmasPo2h5mVeFvPb6tMwq1+G+DSUmS/1ab7EL0P8Vt/it/oW3+K3eokgfovEb5F4idQvQYkgEiK+HIl4CY4gEimRCCqRCCJHIhFE3ohEIrFIJBKJxI1UI5G4kWokVONGqpFKpG6kGqlU46lWqpFKtW6l/j+24AbFtnXLCmCMuapjvp+qvimiiCKiiIiIiIggIjbtncxvDvfauc7Jey8VMSNjRsaMMzLmMiNjRi4zzmVGLjPmMiOXuXyOucxl4s//j7VHjx7W344eXT26elhdPw6rq6uH1WV9rC6ry+rq+lyqy+pS1udqWVbLOtWylNU6ZSmlurZaSqmtLqXU1q2U2lJKMUopopS6dbyUYhRVjLoVUbdiqHob9Wg8on6K+mk84qXe4jG+xS8Zj/g24qdLvIWItxFvkbhFcIlbcAkiGEEkMkQQiVzilsgliEQif0ckEkE0EomMiY1EIpHYMZFIZEycyJjImEicMZGRMZGxI5ExI2Mi44wZMzJmZMw4I2NGLjNmZMzljIy5zMhlxlzm8jlymctcJv78f+1h9eixh/W3o6uH1aOrq8fH6uphdVldXZ+ry+rqsro+y+qyVJf1WVbLUl2nLNWy1ClLtdQpSymlTiml1JZSSi1K6SiqlI6XUoy6lcZL3Tpe6tZ4qbeoR8etiqHqbXxpfIuXIr6NR3yLb+NLxrcQQTwicYtgvMTbJR4ZIoiECCLjJRFcgkhkiEQiGIlEIpdGIpFINBKJRKIhEomMiY1EImNiIyORyJjYkciYyEjsyJjIyJiROGNGxowZGTPOyJiRMSOXGTM+LzNm5DJjLjNyOSOXucxlRuJP/0ePHl09enT1+LF6dPXo6mF1faweXVZXl9X1ubq6rC5lfSxLdVmq63Mpq6WsU11KWa2tlqXUKaUsdUoppbZupdSWUrdGqVtH3Uox6lYaL3XrUPU26lbESxEv9Rb101DFeFTHI77FY3yLb/EYL/EWt8j4NuKRcYvELYIRb5HxEkSGSAQjiERwSQSRSyJuifwdkUgE0UgkEolGRiKRaCSMicRGxkQiI7FjImFMZOyYyMiYyMjYMWHMyJgx44yMGRkzMuYy44yMXGbMZUYuMz4vM+Yylxm5TPzD//a3o0ePrh5dPXr8WF09rB5dXdaPw+rqsrqsro9ldSmry/qsLkt1WZ9ltSzVpU5ZqmWdUkpZrS2lVGtLKaW2lFIvW0ppvJS6ddStdLwU1fFSt8ZL3TpUvY16q45bdXyLeosvRXyLx3jEt3iMb3GLIB4jfgoRhIi3EW+R8RJEhohbhggiIRLBJRFEIkMkErncIpFINBKJRKKRSCQSGxkTCZHoSCQyJjaMiYwJY2JHxkRGxsQZMzImjBkZOzJmZMzImJHLjowZuczI5RoZn5e5zMhlxlzmMvH3/0vX344eXT16dPWwun4cXT26rK6uHh/L6rK6uqyPpawuq0t9ri5ltazPslSXsk6pLqXUWUq1lNrVUkptKXWrLdVSrVspjZdSjFK3Rt3q1vFSRN2KeKlb40sRXzoe1fFb9Ta+xUsRj/gWt0h8i8eIn8ZLvI2XYHwJxksQGbcIRhAJEURwCUHkEkQiQyQSwUUkEolGEIlEI5FIZDQSiUQio5FIGBOJHRPGRMbEGRMZiYwZGxkZMzImjB0ZMzJmZMw4lxkZMzLmMiOXMzLmMiOXuczIZS4n/vo/dfX422H12MPq0dXV48eyenR1WV09PpbV1WWprs/VZXWpLuuzrJbVpc5qKUt1nVKWaqmtLqXUKaWU2lJKqVO3Uqqlbo26lWKUujVe6tbxUlTHS90aXxpfinipt3gp4pfGI35pPOIxvsUjXuJtPELEW9wi8YjELYIQQYggEiKIhAgiQwSREUQiuCSCyEUkEkE0EolEopFIJBIbiUTGxEYikTEhdkxkTIiMRkbGREZiR8ZERsaMjB2JjIwZGTPOZcaMjIy5zMg4lxkZucyYy1xm5HIuib/8Dz26evw4unp09ejq6mH9WD26rK4uq+vj6FJWV5f1ubpUl9WyPpfqUlbrLKW6lDpLtSylTiml1ClLqZctpVpqS6mXllK3Rt1Kx0vdGnUrom7FqLfqeKm3qLeon6Le4ksRj/hSxCMe8S0ecYsgHnGLIB4jfhrxNuItEiLeRhDBJW7BJRFEQiSCSyKIRC63SCSESCQSRSQyJhoikUg0RMZEIqORMCYSGRsZExmJjB0TGRkTGRk7MmZkTBhz2ZExI2NGRi4zzshlxoxcZuQyYy6flxkTf/7venT16NH14+jq0WX16Or6cVhdXVZXl/WxrK4uq0t9ri6rZXWpz6WslqU+l1JWS52llFJnKaVaaksppU4pdastpV5aShGlbqXjpW6Nl7o1XurWeCmGqreoR+NL41vUWzyGqrd4xGN8i0f8kvGIx4if4iUYL/E24i0yvmSIuGWIIBIiiIRIBJFLEIlcbpFIiCASopFIJBKNRCIhMkRCJDIaiYwJkdHISGRMZGxkZExkZMzYMGZkzMiYccaMjIwZGTNyOWNGLjMy5jIjlzNymcuMxJ//mz2sPXp09fixelhdPbq6rB9Hl9XVZXV1fa4uq0t1WZ+rZXUpq3VWy1Jd6izVspQ6pbqU2lItpbaUUq0tpZRalFIvLaWIUreOl1Yx6lZE3Yp4qVvjS+NLEV8avzQe8UvjEY94xLd4xCNEvMUjRLyFCOIWQYggRBCJWwQjiGAEkUiIIHIJIpHLLRKJ0EgkEomNRCKRaCQSicRGImNCNBLGRCKjYUxkJDIaGYmMjImMHRkTxoyMGWfMyJiRkTEjlx0ZGXOZkZHLjHOZkctcZiT+9F/16OrR1WMP68fq0dXVw+rq+ji6uqyuLqvrc7WsLqtLfa4uZbWs1lmqS1mtU5ZSLeuUUkqdpZRSWy2lXraUUmpRShWlbo26lcZL3Tpe6tZ4KaIejS9FvBTxpYhbdTziVkU84hGP8S0e8YgvQTzGSxC3COIWiVsEIeJtBJEQQSREEBkiBJdEEImMRiIRGolEIlFEQiQaiUQio5FIJBI7JhIJY2IjY8KYyNjImMhIZGQ0jBkZMxIZOzIyZmTMyMhlR8aMXGZkzGXG58hlLjPmkjHxD//F346uHl09unp0/Ti6rB5dXV1W18fR1WW1rK7P1WW1rC7rs6yW1aW6TimrZalTqkupU8pSLbWllGptKaXUopTaupVSRSmi1K3xUreOl6I6Xorq+NL4UoQqhqq3+NJ4xJciHvGIR3yLRzziFkE8QgTxS+IWiVsEIYIQQSREEAkRRIYIIiOIREYjkQhCJBJhI5FIJDYSiUSikUgYE4mNRMZEYiMjkTEhdkxkZExkJHZkzEhkZMw4Y0YiI2NGLjsyZmRkzGVGRi47cpmRy4xcZiT+/j/b48fq0dWjq0dXj66P1dWjy+rq6vpcXV1WV5f1uVpWl+qyPsvqUl1KndWyVMs6pVSX2lItpdSWaim1pZTaUrdSW7dSrVspom5FlLo1Xoqh6tZxqyLqLeqnqLf40vgWL0U84hGP+BaPeMSXxLcQQTxG/MMPkkUAACAASURBVDTibcQtGC9BJG6RIeKWSxDBCCIRXEQiCJEIItFIJBKNhEgkGolEIiEaGYlEYsdEIiOR0UgYExkZE2fMSGTMSGTsyMiYkTEj44wZGRkzcpmRccZcMuYyI5cZucz4jL/+J109/nZ09ejq0WXtYX2srh5dXV1W18eyurqslvW5ulSX1bI+y+pSqkudpVqWUme1lFKnlKXUKaWUWpRSakvdSm3dShWliLqVxkvdGi91a3xpvNRb1FvUT1Fv8VLEb9VbPOIRj/gWj3jEY8RP8SXxGPHTiLcRb5EQQYi4ZYggEiIRjCASGY1EECIRRKKRSCTCRiKREI1ExkRiI5FIZDQSxkQio2FMJIwZiR0TxoxExowdiYyMjBkZOzIyZmTkMmPGGbnMyMhlxlwy5vJ5mfjLf9TVo6vHj9Wjq0dXV4+uj9Vl7WF1dVkfS3V1WV1d6nNZLatlfS6lupTVOmUp1XVKKdWltpRqqS2llNq6lWq11K22bqVUUbdG3YqoW+Olbo0vRdRb1KPxiHoLVW/xiJciHvGIR/wj4hG3SDziEYlHxFuIeBvxNoIIQgSREMEIIhiJIDIaiUQQIohEI5EIopFIJBINkUgkGhmJRCKxYyJhTGxkTBgTCaMjkTFhzNjIyJiRkTFh7MiYkZHLjBkZZ+QyY0YuM3KZ8XmZkcvEn/+Drh5dPbp+HF09urq6enRZH6ury+rq6vpcXVaX6upSn8tqWarrVJeyWlZrS3UpdcpqKaW2WkqpLaVUq/XSUi11q1brVqooRdStiLoVUbciXoqoR+NL45f6KV6KeIQq4hGPeMS3eMQjviQecYvEtxFv8RKEiLcRROIWwQgiGEEEI4hERiMRhEgEkWgkgmgkEolEI5EQiUYikTAmGiJjIrGRkciYMCZ2JDISGTM2MjISGTMyMnZkzMjImJFxxoxcZmRkzGVGLmfkMiOXiT//e3v06OrR1fXj6OrRZXV19ej6WFZXV5fVpT6W1dWluqzPslSX6jpltayWsk4p1aVOKaVUa0sppbZUS6mtW6lW61aqKPXSUrfGS90aL0XUrYiXIurRuFXjl8YjXor4rSIe8YhH/CPiEbdIPOJL4hEi3kIE8RJvI4jELYIRREIEkRBB5HKLRGgkgkg0EkE0EolEopFIJBIbiUQikdjImBCJjkQiI5ExsSORkchI7JiRyMjImLFhzMjImJGRsSOXGRkzMnKZkcsZM3KZkcvEn/6dPaw9unp09ej6WD26urq6rK6PZXV1dVldXZ9LdXWpLutUl+pSXaeslrJaW6pLqdaWUl1KbamWetlSSm2pW6mtW6nWrV5a6tZ4qVvjpW6NlyJe6ta4VeOXxpfGI1QRj/jS+KN4xLd4xCNegnjELeKnEEGIeAsRxEsQiVskRBAJEURCBJHLLYIQiSAaiSASQiQSRSQSiUYiI5FINEQiY0I0MhKJjMSOiYxERmJHxkRGRiJjR8aMjIwZGRk7MjJmZGTMJeOMXGbkMiOXGYm//7d+HF17WF17WHt0fayuHl1WV1fX5+rqsrpUV9fnUl1dqss61aW6lPpcymopdZZSLWWdUkqprZZSautWSm2pW22pW6mibtW6FVG3IurWeKm3KKrxpYgvjV/qLb40HvFLvcUjHvGPiMeI3wsRxCPiLUQQtwhCBBFvkRDBCCIYQQQXEURoJIJIiFskRCJxC5EQiUQjkUiIjomESGQ0EomMREYjYUxkJHZkTBgzEhk7MiaMGRkZM86YkZGRMZcZGWfkMiOXGRm5zEj89d/o6vFj9ejq0dXVo6vrY3V1dfXoslqfq8vq6lJdn6tLdaku61SXUl3qrJZSXWqrpayW2lKqpbaUUmrrVqrVupXaupUqSr20bkXUrYi6FVGPejS+NL40fqm3+KXxR/FSvxG3eMQjviQe8YiXeIvHiJ8iCBGEiLcRbxFEMIIIRhDB5RaJ0EgEIRJBNBKJIBqJREI0EolEoiEyJhKikZFIJDIaxkTCmNiRMWFMGDN2JDIyZmRkbGRk5DJjRkbGGRlzyZiRy4xcZnxeJv76r+3R1ePH6tHVo6urq0fXx+qyurq6uqzP1dWyurrU5+pSXapLnaW6VMtqbXUppc5SLaXUVksptaVUSxXVUq1bqVZR6qWlblXUrfFSt8ZL3erR+NL40vilfop6i1s1HvGIX+otbvFHI34vHiHiN0b8FPEWIggRhIi3EbeECCIhgshoBJG4RSI0EokgGolE2EgkEolGQiQSjURCJDKESGQkGhmJhDGRsZExYUwYMzYyMjImjBk7MjJmZGRkzDgjlxkZGbnMyGXGucxI/OVf2aOrR9fH2qPL2qOry+r6WD26urpUV9fnsrpUV5fq+lyqS3Wps1TLainrlFJd6pRSSrW2lFKtVksptSilimqpl5a6VVHqpXVrvNStoeot6tb40vhSxK0aj3ip34iXIv4oHnGLP4pH/E4kHvEl8QgRxJcgRBAiGPEWiZcgEiK43CIRGkEkbpFIhI1EImwkEolEI5FIiEYikUiIRsaESHQkEhmJhNHISGRMGB2JjIxERsaMHRmJjIwZucw4IyNjRi4zMnKZcUYuGRN//pe69ujq0dX1cXR1dfXo6urq+lxdXV1dVqvrrK6W1aW6TnV1KdV1ymopq6W2ulRLbSnVUmpLtZTaUkotSqmXLaVeWupWRamX1q2Ioop4KaLeoh6NL/VT1FvcqvGIL/VTPOJ34hF/FI94CeIRIn5jxFuIeIt4G/E2gkjcIogggsstEqERROIWiUQRiURoiESikUgkEo2ESCQSDZHImNhIZCQSGYkdEyIjY2JHIiMjkZHRkcjIyMiYkXHGjIyMXGZkZMzljIxcZuQy8ad/oUfXHtYeXV0fR1dXV1eX1dX1sayurq4uq/W5rJbVpbpOdaku1aVOWS2lurZaSqmtlrJaL1tKKbWl1MuWUrfaUrdq3eqlpW5V1K0ejZci6tH40vil3uKlfiPqLX6riD+KW/xRPOJL4hGPiLf4kniMeIuXIES8jSASIt5G3DIaQSRuEYQIIiFukUjcIiFEQiQSRWRMiEQjkRCJjkQikZHYyJgwJoyJHYmMjERGRsOYkZGRMSNjR0ZGRsaMjIxcdmTkMiOXGYl/8s919ejq0dW1R1fX59qjy+rq6ur6XF1dqqurS30uq2V1taxTLatltdRZSrWs1pZSLbVLtZTaupVqtVTrVi11qy11q5eWulVRLy31qFvjpd6i3qIe9Wg8QhVxi5f6jXiEKuJ34hG/E4k/ilvEW9wifgoRbyPeIt5GvEVCBCPeIuMWoRFE4hZBJEQQQgSRSDQSiVsIkUhkCJFIJDYyJkQio5EwJjISiR2JjIxERkbDmJGRyMjI2JExIyMjI5cZZ8zIJWNGLhlzSfz1n+n6sXp09ejq2sPq+lhdXV1dVldX1+fqUl1dXepzWa0u1aXOalkt1aW2WlZLqa2WpVpbSqlWUS2lttStVOulpYpSLy11q9K61a1udSvipYh6NG7VeET9TuMRt2r8TjzilyIeEb8Xj3hEEN8iiEfEW4h4i3gbQSRuEYwgEo0gQiOIxC0SoZEIopEIItFIJBJhI5EQiUYiI5FoJETGhGhkJBLGRMZGRiIjkZHRyMjISGRk7MiYkZGRkTEj44yMXGZk5DIjlxkn/vJP9ejq+nF0dfXo6urq0fWxuqyuri7V9bm6ulRXl+o61dWlVJf6XEp1qdaullKqtWW1lNpSLfWypZRSW7dSalHqpaVuVVTrpXWrW93q0Xipt6hHvUW9xUv9RtTvxUv9FH8Ut/ij+J24RfwUj4i3uEX8NOIt4m3EWyREECKIRCOIWyRCI4jELRKhIRJBCJFIJIpIJBKNhMiYaIhEQmQIkZFIZDT+P2NwgmzndmhrMb+plnF9/bpCXQZlAAEEENDme7TmYP1bW5Z0LD+T6TiRjo6Te5SOjtLR0XGPE0fHOTo6Ou7RF+fo6OiLc3T0xevoKH/5f+3ay65d//aya5frvuzatWvX12vXrl2uXbs2u17Xro1rs8v1ml1ml9nsurPLbMyuO8ZszK47xpjNHWMec8eYjRnGbIYxj9k85u3OYzaPecyneQx5G/I2n4a8DXnM8imPWT7lb+Yn+UU+5c/ySD7kh+QnkZBvyiPlm/JIeaRIPhyPhJRHHgmRkBJLkVhKkSKPlLKUUmTHSZFS7nFSpKPsKMVx4ji5R0fpKB0d9zhxdJyjo6Oj4x4dHefoi46Oc/TF6+joi5O//D/uy65de9m164+XXbt27dq1a9eur9euXbt27TK7vl5m1y6zy7yujWuzy5jXtTFml7mzMWaXuWM2xtwxj9lsNuYxm81jNuYxw2zeNo952zzmMY/5tLzNh8wPQ97mJ5mfZH6VP5kPeeTPEvJn+ZSQT8mHPJIPKZ+SDykSIuF4JCQkZEiJJaRISFlCSllKiEiRUpaOUoosHaUUx1I6SkfpWBwnjo4Tx47iOEdHR0fHPTrO0dHR0dHRF/fo6ItzdJR/+b/t2nVfdu3ay64/rl172bVr165du75eZteuXbvMrq+X2WV27TK7XmN2mY3rNWaX2Zg7ZpfZmDvGbMwwG2PumMeYO48xw5i3O48xwzxmmMd8mseQtyFv88PyN/MhZsinfDO/yi/yyJ/lF/mU/CSP5Lsj3yXkkXxIeaRIPhyPhITEUh55pMRSQpYSUpZSStyUUmQppaOURUpHKfc4kY5S7nHiOEfpKI4dpaOjo6N03KOjo+McHX1xjo7X0Rfn6OiLjvIf/F927WXXfdm1a9dedv1x7drl2rVr165dX2eXa9eujWvzunZtXJtd5jWujWtjXuPaGLO549oYY+5sjHm7Y4zZDGM2wxjztnnbmGEeM8zb5jGPecyn5ZshZsg3y9/MTzI/yd/Mh/wiv8gv8in5ST4lH/JNeeQt5JHyTYiESDgeCQmJJSQWCXmklFikxFKklCGllKVI6ShLKdJRluI4cZzcdJSO0tFx01E6Ojo6Tl5HR8c5Ojo6Ojru0RcdHR3ni46+OPnr/2kv/3btZdeuXfdl165du75eu3bt2rVr167Xtdm1y+zaZb5eZpfZZXa9xuwyG/O6jNkYc2eXMRtzxzxmszEb87bZmLeNecydx7xtzGOGecwwn+Yxn5Zv5tPyN/Mh38yH/M18yC/yN/NdfpF8yC/yKflJJD858l1CJB8SIiFlSEhILCHlkUckpDxS5JFSRMojZSmlOE6WIqU4REpHKfc4cZSO0rE4Ok4cHSeOe5yjo6Ojo6PjHh0dHX1xjo6OvjjH1/zr/2HXXnb927WXXbt27dp1X3Z9vXaZXbt27dplvl67dpldG9drdm1cm13mzq6NMbvMa4zZmF2bjTFvd8zGmDvmMebOY8zmbfO2MY8Z5jHDPGaYx3yaD5lP8yHzw5CfDfmTIb/IL/J7+cWRn+Sb8ouUT8mHIx+SD0c+HI+EhMQSEktIGRIiJWQpIWUppcgjUsqOUkqRpaMU6ShLR+kojpN7lI7iOEfHTUdHR0dH6ei4R1+co6Ojo6MvOl5HX5z86//uvuzadV92/XHt2rWXXbt27dr19dq12eXatWvzunZtdpldu8xrdpldZrPrjtm4NubOxpiNuWPMxtwxxmyGMRszjHm7Yx4zjHnbPOZt85j5MI/5NB8yn+ZD3ua7zJ8N+bOY5Rf5jfyQfJdfHPlVQh7Jd0c+JB+OfDgeyYeEPBLySIklRB4psRQpsRQpZSlFylKKlLJIRynlHifSUTrKTUdH6SgdHYujo6PjxNFxj46Ojo7zRUdHx+voi3N0lL/8b/ay677s2rXr31527dq1a9euXbu+XrvMrl27zK5dr9m1y+zamNe1cW3MLvMas8uYzR2zMWaz2Riz2ZjNYzYb87YxbxszjHnbPOZt85hhHjPMp/k05G0+DflmvotZ/t6QX+QX+Y38Ir9IPuSHlB+S71IeyYeUR8qQkJBYQh4JeaTEIiHlkSISUkSKlLIUKUWWUhwnsnSU4jhxLMVx4ug4uUdH6ejoKI5z3KOjo6Ojo6OjL+7R0dEXHeVf/le77suuXbv2smvXH9euXbt27dq1a9fXy+zatWuzy7yuXZtdZpfZvC6zcW3MnV1mYzZ3jNkYc8dsjLnzGGPuPMbcecxjNo9525i3zWPeNt9sHvNpPg15mx+Wv5mf5G1+lW/mV/khv5dPyXf5Ifkuj+RD3kIeyYeUR8qQkHzIIyGPlEdCJOQRKSEiJWQppYhIKVKWIqWjLMVRSsciHaWjdHQsjtLR0VE67tHR0dHR0dHRcY+Ovujo6OiLk3/3v/jjui+7dt2XXbt27dr1x7Vr165du3btMl+vXbvMrl1m12t2mV0bs+s1ZpfZmDu7zMaYOxtjNuaOMebtjjGbt43ZvG3MY4Yxb5vHvG0e87b5ZvOYT/Np+Zv5EDPkm/mQn813+Y38kN/LD/kh+TtHvkv5lHyXEAlZQvIhj4Q8EvJIiSWkDCnlkSLlESllKUVKWaQUx8kipaPIjlIcJ46yozjOURwd57hxdHSco6Ojo+N1dHR0dPTFOTr6ovz1f3Zf/rh27WXXrl332rWXXX9cu8yuXbt27dq8rl2bXa7NLvO6NrvMZpe5s2tjzGbXHWM2xtzZGLPZmLeN2WweY+48xgxj3jZvm8e8bR7ztnnMN5vHfJpPy9/MTzK/mA/5kyG/kd/Ibxz5nYR8Sj7kkXzIW4iELCH5kFhCHgl5JOSREkt5REpIWUqIiJRSFilFyo5SinSUxXEiHaVjcZSOjtLRcdPR0dHRUTo6XkdfnKOjo6OjLzo6XvnX/8muXfflj2vXrl33ZdeuXbt2fb02u3bt2mV27XrNrl1m12aXec0us8tszOsyG7Nx3dkYszF3zMa8bTbGbIYxm7eNeczmbfO2MY8Z5jHzYR7zNsxjPs2HmCHfzId8M3825Bf5rSF/E/Ib+UVCfki+i+S7lE/Jh+ORfEgseSwhIY+UR0IkpAwpJRYppQwpUpZSpJQdpUjpWIp0lI5y01E6iqPj5B4dxdHR0VE67tHR0dHRFx0dHR33i47yl//Rrr3suteur9d92bVr165du+616zW7du3a7NplXteuzS6za2Ne18a1MZtdd8zGmM29zMaYzZ3HmM3GbB6z2TzGDGPe7pjHDPOYYd42n+Yxb8N8mk/zw/I3Q342v8o385P8WX4jv0h+kk/Jd/mmfErII/mQMiQfEks+5JGQkEceKY+UWMojRUKkiJSQpUgpDilFiuwopThKx1IcpaN0dNx0dJSOjo7yOjo6Ojo6Ojr64hyvo6OjL07+8j/YdV927dp1X3b9ce3atWvXrl27Nru+XrvMrl2bXbvu7NrsMptd5s6ujdm4XmPMxmzMHWM25o7ZGHPnMWYzjHnM5m1jhnnMMG+bx7xtHvNp3ob5ND/Mh7zNdzFDfjYf8hv5k/mQ/CS/kU/Jr1J+SL478l3KkHxIHktIyCMhsYQ8IiESUt6WUkKWUqQspUhZSpFSZEcp0lEWx4l0FMfJPTqK4xzF0XGP0tHR0dHR0dFxD1+co6OjL8q//Pf2suteu/Zyr127dn29du26165dZteur9dm1y6za7Nr153NLrPLbF6X2Riza3PHbIzZbDZmY+4Y87Yxm81jNo/ZvG3MY4Z5zOabzWPeNp/mbfNpfphPQ/5mfpK3+VW+mX8gv5HfSMifJR/yKfnJkQ/Jhyz5kJBPCQn5FAmJJUQeKSHySJHySClLkVKWIqXI0lGKFIdIR+kosqOjOEpHR+m4R0dxdHR0dHTco6Ojoy86OjrKv/vv/NvLrl277suuXbvutWvX12vXrl2bXbt2ma/Xrs0us2uz686ujWtjNrvumI3ZtbljzMZsNhtjNm+bjTGbYczbZvMYM8xjNm+bx7xtPs0w32w+zaf5ND/J/GLIn8xP8nv5jfxZfpH8JI/kJ8mHPJIPx6fkQz4lJI8lJJYQCYmlPFIeKW9LKUUekVJEpBQpS0eRUnYUKY7SUXYUR+kojo7F0dFROjo6Ou7R0dHR0eGLc3R0lL/+t+7Lrj+uvdxr165du3btuteur9cus2vXrs2uXa/Ztdlldm123TG7NmbX5o7ZmF1mc8dsjLlj3jbG3DFvG7N5zGYY85hhNm+bx7xtHvNphnkb5tP8MD8M+Wb+bMhvzXf5s/xDeST/wJFfJd8d+S4hQ/IhMSQkjyUklpBHSiwh5REJEQkpSymPFJEiZSmOEymydJTiKOUeJ47SURzlHh2lo6OjODp2ODo6Ojo6Ojr6ouMe8q//jV332nVfvl67dt1r165du3bt2vV1du3atdm1y+x6za7NLrPZdWeX2ZhdG3NnY8zG3NkYszF3jNmYsTHmbbN5zOYxm7fNY4Z5zDCP+WbzaebDfJof5oflZ/OT/M38Tv4s/1D+LPlJPiXf5S3kkXzIkg/Jh3xKHktILCGxhDxSQiREHikSS5FSllKkiEiRUhbpKEU6yj1K6SiOco/S0VEcHR3lHh0dHR0dHR0dHR2vLzo6yl/+a7t27bovu+616+u1a9e9du3atWuz63Xdy+za7Nplvl5m18bs2pjXZTZm18bcMRuzMXfMxmzMZvOYzeYxGzOMedtsHvO2ecwwjxnmm81jPs18mB/mh/mQxyx/Mt/lt+ZD/om8ld/LN+UXCfmUfJcyH5IPyWMJiSEhj4Q8EvJIeaTEIiVkKSEiRUqRpRQpItJRpHQs0lGko3TcdHQUR+nouEfp6OjocHR0dNyjo6MvOjrKX/4r99p1X3bt2rXrXru+Xrt27dq12bVr19fZtcvs2uwyu16za7PLbMyuOxuz2WXMnY3ZGHNnY8zbHbMxb5uNeczmbfO2MY8Z5jHDPGaYt2E+zdswn+aH+WG+yzfzd2KW38s/kd9IPuQXyXd5JN8lZEg+JB8SQ2JISMgjIY+EyCMhEiLlESllSCkiUqSURTpKkbKjSHGUjnKP0lEcpaOj3KOjozg6Ojo67tHR4ejo6IuO8i//pV277suue+3atWvXvXZ9vXbt2uzatWuz63Vtdpldm12bXXc2u8zG7LqzMRuzy9zZGLN5u2PMxmyGMZu3jdm8bR5jhnnMMG+bx7xtPs0wn+ZtmB/mh/lV5jfmu/xD+YfyD+WR/J2E/JB8yJLvkg+JISGfEhJLSCwhsZRHHillSClvSylSypAiRcRRSpGyo0hxlHKP0lEcpaM4dhRHR0fp6Oi4h6Ojo6Ojo6MvOspf/wu7dv3by65du+61a9euXffa9Zpdu3Ztdu3a7Hpdm13mXmazy7xml9mYXZs7xmzM5o4xG7PZbMzbxmw2jzFjY9425m3zmLfN2+Yxb5vHfJr5MJ9mPswP84v5Lt/MPxCz/EP598lbPuQ3ku/ySH6SMh+SD8ljyYfksYTEEhJLyCMh5RGJpTxSREKKiJQiZSlSpCwdRYqjLI5SHKWjOHaUjg7p6Ogor6Ojo6Ojo6PD0dEX9yh//c/da9eu+/LHtWvXrnvt2rVr12bX12vXZtcucy+z6zW7NrvMro15zS6zMZtdm43ZmI25YzZm87bZGPN2x5i3zeYxm7fNY942jxnmMcN8mm82n+ZtmB/mh/mzIX9vfpJ/KP8++UXyOwn5IfmQJd8lH/Ip+ZAYEktIyCOPhMRSQpaQIo8UKY9IkbKUIkXKjlKkOMoiHcVROso9SkdxdBRHx47i6OjocHR0dHS8vjiHo/zrf2bXvXbdl127/rh27dp1r13mXrt2bV7Xrs2uXZtd5l53dm3Mro3ZvC6zMRuz647ZmI0ZG7Mxm81jNmaYjXnbvG3M2+Yxb5vHDPOY+TBvm0/zzeaH+WH+bH6Sb+Z38lvzk+Tv5PeS7/Ip+VXKfEi+SwzJh8SSD3kkJOSRRx4pIY9IiaVIyFKKlLelSCmyoxQpxbEU6SjSUe5ROoqjo3R03Dg6Ooqjo6Ojo+N1dPRFR0f5y39q16577bovu3bd6+u1a9dm165d9zK77nXnXmbXZtdml3ldG7NrYza77mzMxmzMHbMxG3PHbB5j7pi3jRnGvN0xj3nbPOZt87Z5zGPmw8yH+TTz3fwwv5g/W/495if5J/KL5B/IW/lF8l2WfJd8WvIheSz5kJBHQh4JeeSR8kh5RELKUh4pZSlSpCxFihTZUYp0FOlYOqSjOEpHuUdHcXR0dEhHR8fr6Ojoi46ODvnLf+Jeu3btutd92bVr12bX1+teu3Ztdu3a7Nr1ml3mXmbXxux6jdm1MZvNvTZmYzbmjtmYzdtmY8zmbbMxj9m8bczb5m3zmLfN2+Yxj/lm883m03yz+WF+Mb+Yn+Rn8w/kn8g/lHyXXyQ/Sch8SL7Lp+RDPiUfEkvIIyGPhDwiIRIi5REpUh6RImUpUqQ4RIp0FNlRiqM4Ske5R0dxdBRHR0fHPYqjo6MvOjocHeWv/7Fdf1y7du26165du+61a9eur9dm1657mV2bXZvXtdlldm3Mvcydza6N2Zg7G7Nr85g7ZmM2ZvO2MZthzNtm85jN2+Yxb5vHvG0e883m07wN82nmu/lhfjF/J2b5J/JP5J/IW/mN5Lss+S75Lp+SD/mUPJaQR0IeCXmkPCIh5W0p5RGRUqQsIY5SZClSHKUsjlIcpUM6FkfpkI6ODum4R0eHo6Ojo8PR0dHxyl//Y/dl1657fb123WvXrl332rVrs+vrtWuza9dml7mXeV0bs2uz2WXubHZtzMZs7piN2Zg7ZvMYc8e8bczmbWPeNm8b87Z5zNvmMW+bbzaP+Wbzw3yz+WF+Mb8x3+W35h/Iv0/yd/JD8ndS5rvku+RDfkgeS8inhDwS8sgjJZYQiaVISFnKI6UsRYqURYoURymLoxRHKY7FUTqKo6M4Ou5ROhwdHR0djo6Oezg6yl//I/flXrt23WvX12vXvXbt2rXZda9dm9e1a7Nrs2uzy9zrjrmX2ewymzsbs2tjNubOxmwec8eYzWPumLeNGWbz3xyBgQAAIABJREFUmM1j3jZvm8e8bT7N2+abzaf5Yd7mw/xi/mz+Th6z/HP5/yshv5H86vhF8l1iPiQf8ikhnxLySMgjj5RHyiMSIhIiRSREiixFiqMUWYqjFEcp9ygd0lEcpcOxODo6iqOjw9HRcY8OR0dH+df/0K77cq9du+61a9e9vl67zL12/X/M4d2iWFliXteNb/HRHIkyZV9asvwbJ3be/56FNbM3zkEBqEZ1k5ZFcYyu0tVVun675F7SVUqXfEmXFLmXlBspUqTcSJEi5VGkPEqRV25eeaU8yqO88iif8iif8gj5Lh/KT/JH+bX8YP6G+aeaTzO/MvPV5KuZH8y8mvlmRpj5akYzX81rhnnNMGaY15hhzOY1ZvNoNmazMZvGbMzGbJqNY2M2jk3j2GwcG8dmxz02OxybHY4dG8eOe+zY4dixY4e/c+a/+f/p6rrX/aKr615dXaXrt6vrXnKvLrlXV+n6ki65l5SuIl8uKUVKl9wUKVLk5lGkSHkUKY8ijyIhj1JeeZRPCXklX+VT8lV+V77LH+UX8ivzl/JXzfzK/NHMX5hNfjDzzXw389V8mvlqXjPMp3nNMGaY0ZhhNq8xm9cYszHDNBuzMRtjHJuNMRuHMTvMxrHZYTo2jh0bx46NY8eOe2wcOxw7duzv7HBs/u3/pesfr657dXXdq6vrXl1d95Lfrq6u0lW6Slf5cpUuKV1FypdLihQppRQpUkop8ihSHkXKo7xSHuWVR3nlUR7llQ/lUz6U7/LIV/lJfiF/biTMP9t8mK/m12Z+MGHmBzPfzHczX82nma/mNcO85jXDvGY0m9eMZrN5jTHDmE2zMRuzMcZszMZsHM3G7NgYx2ZH49g4No7NDseOxrHDsWPHDseOHTscO77Mv/k/dXXdq+sfr66ue3V13aurdHXd6+Zecq+u0iWl60u6ipSuIuWmS0qRIjdSijxKKfIoRR5FHuVR5FEe5ZVHeZRPeZRP+VC+y4eQn+SP8qfyF+afYX5h5k/MMPlm5gczn5r5ZkaY+WpGM1/Na4Z5zTCvMcO8xgyzaYYxm2YYszGbZmM2ZuPYNBvj2GzMDtOxMTvMjh1mx+YeOxwbx44dOxw7djjuscOx+Tf/p/tFV9e9uu7V9dt1r67S1XWvrtLVVb5cpat0FbmXdH2JlK4ipZRSpEiRmyJFSkiRRymvlEeRR3mUVx7llUfIK/kqn5Kv8rvyk/xRfi1/bv4Z5q+Z+ZXjj2Z+MN/NfDWfZl7NMCPMMK8Z5jXDmNdsXmOGMZtHszEbs2k2ZmM2ZtOYjdlhNqZj49iYHRvHxtE4dmwcO3Y4No4dO+7h2LHDsWPzb/6/7tV1v7hXV9e9uspvV9e9ukpX173kXnKvm67SVUqXlK4vkSL3kiI3RYqUIlGkSAkpr5RHkUd5FHmUVx4hr4R8KJ/yoXyX/CA/ya/lb5l/hvnbZn4w+WrmBzPfNfPNzFfzaT7NMK+Zr+Y1r9mMZhgzms1rNo9mYzZmNGZjNmZjjDE7NmZjOjbGsdk4No7NPTY7zA7Hjo1jxw7HnR2OHTsc+zs7Nv+v/4+ue3Xdq6vrXl336uq615d03aurdJWu0lW6bu4lpatI6bopRYqUUoqUIkVuXinyuJHySkh5JeSVR3mUVz6UR/mUD+W7fAj5o/xC/rb8iflrZv6Wma8m38z8bEa+mvlmRpj5al4zX81rhnnNa4Z5zeY1r9mY15jNa8zGmI3ZGGM2xmzMpsNszA6zcWw6zA6zY+PYOHbsMPfY4dixw7Fjh2PHDvP3/4d7/Xbdq+teXV336rqX3KvrXvLb1VW6Ste9pHSVL5eU0lWklHsVKUWK3BR5FCmlvFIkijzKo8ijvPIoj/LKh/JKvsqn5Jv8rvwkv5C/IX/L/JPM/FXHL8z8YL6b+WY+zbyaYUaYYV4zzGuGMa8ZxozGbF6zMWbzGrNpNmZjNsZhzMY4NhvjMI6NcezYODaOHXd2OHZsHDscO3Y4duxw3Pn7/8O97hf36vrtulfXveReXV33Kl1dpeu3q3SVriL3kvLlklK6ihQpN0WKlFKKlFdKKa+URymvPEp55VFeeYQ8yqc8yqd8CPld+Un+KH9N/snmn2fmVybM/GzmB/PdzDfzaV4zX81r5qt5zWuG2bzmNZswm9dsjBnGbEyzMRuzMc3GmI1jYzaOZuPYmB1mh9lxj41jx8axw7Fj49jh2HEPx/7O5t/+v92r615dXffq+serq+tecq+ue8m9ukrXl3SV0lW6ipSum1KkqxQpN1KKPIrcSHmllEeRRymP8krIK4/yKI/yKR/Kp3wo3+WRb/JH+bX8883/TTPfTL6Z+dnMpzDzzcyrma/m08xX85phXvOa0QwzTDOMGcaYYcym2bzGbMymMRuzw2zMpsNsjGOzw2wcm3tsHDvMDseOjWOHY8c9djh2OHZs/s3/ruteXffqulfXvbpK12/XvbpKV+m6l9xL7nVTukrpKlK6boqUIqXITZEi5VGKlEeRkPJKCXmUVx7lUV55hHwon/KhfJffhfwkv5b/u+Y/y2zyF2Z+MCPfzHwzn2a+mk8zwgzzmmFe85rRbF6zeY0ZxmyaYczGmE2zMWZjNsY4zMY4NmbHxtxj49g4dmwcG8cOR4fZ4djh2LHDscP8m/9d173uF1336ir36rpXV1e515erdN2rdJWu0lXKl0tK6SpSiny5pBQpRaJIKfIopbxSHkUe5VHKK4/yyofyKJ/yCPlQvsuPyk/ya/lnyD/BzD/Z8WszP5ifzHwzn2a+mk/zmvlqXvOaYcxrhjGv2bxm0wxjNmbzaMzGbIzZ0WzMxjg2ZuNozA6zw+wwOxwbR4fZ4dixw7Fx7HDs7+ww/+5/c697/XZ13avrXl336ipd9+oq9+r6kq7SVbpK6Sql66aUriKlyE2RUqRIiSJFHqU8ijxKeZRXQh7llUf5UF75UD7lka/yk+QH+YX8k+Q/w8yfm3w18xdmfjA/mXmFma9mXs0wn2aY17xmNMO8xgxjhjGvMRszGrMxZmM2ptkYs3FszOYeG7PDbBwbx8axuccOs8Oxw+xw7HDs2OHY8eXY/Lv/zZcvuu7Vda/frnvJvbru1VW67lW67iX3urmXlHvJvaSUrptSpBQpRW6KFClFokh5FAkpr5SQR3mUVx7lUx4hj/JdPpSf5EO+yi/kb8j/o2b+wuSbmb8w84P5yXya+WZeM1/Np3nNMK95zWg2r9m8xgxjzGjMxmyM2TQbYzbGbMzmHhuzcWwcG+PYdBjHjo1jh3Hs2OHYOHbcw7HDsfn7/9W9uu7Vda+ue3Xd67erdN2rq3Tdq3SVrtL1JaWryL2klNJ1U6QUKUVu5FGKlEcp5ZXyKPIoj/IorzzKo7zyoXzKI+RD+Ul+VP4of0P+i5n5ZvIXZn428ynM/GA+zXw1n2a+mte85jXDvOY1w5jXbF6zMa8xZvOaTWM2ZmPMxnRsjNk4NsaxMR0bx8Zhdjg2jh2OjeMeO3Y4djh2ODb/9n9xr657dd2r615d5V5d9/qSrnvJvbpKV7mXlHvJl3QVKfeSUqTcFClFSpGbV0qRx408ijxKeZRXQh7lUT7lUT7lQ/ld+S4/Kn+Uvyb/ImaY/MrMz2bkm5lv5ruZVzNfzWvmq3nNa4Z5zWvMMGYY8xqzMa8xZmPMxmxMYzbG7DAb49g0jo1xbBwbxw6zw7G5h2OH2eHY4djh2GH+7f/iXl336rpX17267tVV7tV1L7nXl3TdS+5V5F6lqxT5cpUipci9pJQbeZQipZRHkfJKCSmP8iivlA/llUf5UF75UH5XvsuPyh/lT+Vf1jTzJ2Z+Nj+Z+Wa+m08zzKd5zTCfZvOa17xm8xrzmo0ZptkYs3mNMcbsMBtjNsZhjNlhHBuzw+xwbO6xcTh2mB2OHY4djh2OHebf/c+67nWv366ue3Xdq3Tdq6vcq6vcq6t8uUrpKl2ldJUi5ctVpBQppchNkUcpUh6lyKOUR3kUeZRHeeVRHuVD+ZQP5VMe+So/Kn+UX8u/uMk3M78y87P5ycwrzHw1n2a+mk/zmmFeM5phzGtes3mN2bzGmM1rzKYxG2M2xmwczcaYHWbjMDvMxtE4HBvHDrPDscM4duxw7Phy7DD/7n/Wda97dd2r616/XffqKl336ir3Kl2lq9xLfruk3EtK6SpFyk2RUoqUIjfllVJeKeVR5FFCHkUeIY/yKK98KB/Kd/lQfpL8LL+W/xomP5j5lZmfNPOD+TTzzXyaTzPMa4b5NGaYRzOMGcaY12zMazaN2RizMWZjmo0xjo3ZODbG0Tg2jo3D7DA7HDuMY4fjHjscOxw7zN//T7ru1XWve3Xdq3Tdq+u3q3Tdq3SVe8m9SlcpXV8i95JSipR7SbkpUh5FSpGbR5FHKRLyKOVRXnmUR3nlQ/lQPpRP+V35Lh/yTX4t/zz5Z5g/MfkLM78y8ylfzXwz3818NZ/m08xX85rXDPOa15hhXmPMMGaYxmyMGcaYTWN2mI0xZuPYmA6zcZgdxrFxbBw7jKPDscM4djh2OHaYv/+fdN2r61736rpX173uJfe6l9zrt0vuVbpKVyldpdxLyk3pKqVIKUVuipRHkVIepTyKPEp5lFce5VEe5ZVH+VA+JV/ld+W7/CjkF/LPkP8s87PJn5j5CzPyg5lv5ruZVzNfzacZ5jWvGc0wr3mNGca8ZhNmY8wwxmwaszFmY8wOY5qNw2wcG+PYOMwO4+gwOxwbh2OHY4djh2OH+Yf/5B+ve3Xdq+tepete9+oq9+oq9+oq97q5l5R7SblXkXIvKTelSClFSpGb8kop5ZWbV8qjvFIe5VEe5ZUP5UN55XflQ/lJflR+If9U+X/MfDX5q2b+wvxk5gfzab6bYT7NpxnmNa8ZxrzmNZvXmNeYjXnNptkYYzbGbIxpNg6zMY6NcWyMY3OPjcOxcewwjh2OHcaxw7HDsfmH/+Re9+q6171+u+7Vda/Sda/Sda/SVe4l9ypdXyL3KqWrFCmldJWbIo9SpJRSHqXIo5RHKa88yqM8yiuP8igfyqd8KL8r3+VH5RfyT5L/Ijb5W2b+wvxk5pv5bj7NfDWf5jWvGeY1rxnmNeY1Zhhjhmk2xmzMa8ymcWyM2Rjj2BjHxnSYHcaxcZgdjo3DsXHscDjuscPh2PzDf3KvL1903at03eteXff6knt13at0lXuVrnIvKfcq8uUqpci9ipRSitwUeZRSpDxKeZQij/Ioj1JeeZQP5VE+5VF+Vz4l3+QPyh/lb8t/YfO3zfxs/mjmUzNfzXczzKd5zacZ5jVmmDDDGDNMM4wxG/OajWnMxpiNcWyMMTsa49gYx8ZhdhjHxuHYYe6xw+HYYRw7/J3Nf/s/ute9uu51r657la573aur3Kt8ue5Vusq9ityrlK5SStdNKVJKKVJKkZtHkVIeRR438ijllcfNK4/yKJ/yKB/Kh/JdPoT8qPxC/ob8i5i/YeYvzE9m5KuZb+bTzKsZ5tO8ZpjXvOY1ZhjzGvOajTHDNGZjjNkYszHGdGyM2WGMY2McG8fG4WgcxrHDscM4djgcOxyb//Z/dK97dd3rXl33uldXuVfXvcq95F73ki+5V+kqpauU0lVKKXJTSpFSipTyKKWUV8qjlEd55VEe5VEe5ZUP5VF+Vz7ld+VH5Rfy1+Rf3Pw1M39hfjLfzXw1381r5tUM85phwgzzmteYYcxrzMa8xhizMcZsjGk2xpgdxmwcxuwwjs0dxw7j2DgcO4xjh2OHw7HDsfn3/9G97tX1j1dXude9uu51L7nXvUpXuZfcq9xLym+XlHsVKaWUrlKK3JRHkVLKK6WElEcpr5RHeZRHeZRPeZQP5UP5Lr8rPyp/lL8m/5XMXzPzs/nJfDfzzXyaT/Oa+Wpe85rXjGbzGjOMeY0xr9kYY4YxjdkYx8YYszGOjXE0xrFxGMfGYXY4zA6HY4dj43Dcw7H59//Rve7Vda973avrXl9yr3t1lXuVrnuVrlLuJfcq5V5Sbsq9ipRSipRSyqOUIo9Syis3jyKP8iiP8iivPMqH8qF8yiPkd+Unyc/y1+S/qvlrZn7SzA/muxlh5qv5NJ/mNcO85jWvGca8xrxmY15jNubRbIwxZmOM2TjM5s7GYcwO49gYh9nhMDuMY4fD3GOHw7HD4dj8+//oXvfqute97tV1r3uVrnuVe325yr1KV7lX6SrlXkVKuVeRm1JKkVJKkUcppTxKkUd5lPIoj/LKo4Q8yqN8KJ/yu/K78l1+l2/yp/KvwPypmU/5Zuab+W6+m/lqPs1rXjOaYV7zmtGYYV5jNq8xxrzGbIwxZmOMaTYOYzbGYTYO49g4zA7j6DAOx8bh2OFw7HA4Nv/wH9yr6173ulfpute9usq97lW67lXuVbq+pHSVcq8i5V6lSCmllFJKKVIepRR53MijlEd5FAl5lEf5UB7lU/JVPpTflZ/kD8qfyr8a86fmj2Z+MN/Np5lXM1/Naz7Na4Z5jXnNazavMa8xZvMaYzbGmGZjjDEb4zAb4zAbhzEdxrFxODYOh9nhcOwwDscOh/mH/+BeXfe617267lXu1XWvcq97yb3KvUpXuVcpXV9S5F6lFCml3EsepZRSSnmUIo9SyqM8SnnlUR7lUR7lU/JVPpQP5Xflu/yl8qfyr8b8qfmFmW/mu/k0n2a+mk/zmte8ZpjXmNe8xmxeY8wwxjQbY17j2BhjNsY4NsZ0GOPYOIxj4zCOHcaxw2EcOxyOHQ7z3/8H97rXvbruda97/XaVrnvdq9yrq9yrdJV7lXIvKeVepciXdJVSipRSHkVKKY8bKY9SHkUeJeRRHuVRHuVTHuVD+V35UH6SPyh/Kv/KzJ+aP5r5wXya7+bTDPNpXvOa1wzzmteY15hhjHmNMcYMY4wxG2Mcm8YYh9kYhzE7jMPsMA7HxuHYYRz3cOxwOByb//4/uNe97tV1r3vd615d5V73ulf5cpV7la5yr1LuJeVepRS5VymllFJKKa+UUsqjFInyKPIoj1Ie5UN55VE+lA/lQ/ku+UH+oPxa/lWaX5s/mvmumW/m03yaEWaY13ya15hhXmNe8xpjXrMxxrxmY4xpNsYYx8YY49gYhzE7jMPsMI47OxwOs8PhcOxwOByb/+5/cK97dd3rXuVe9+q6V7nXvUrXvcq9yr3kS+5V5F6llNJVSimlSCmllPIopTxKkUcpj/Io5VEe5ZVHyKN8KB/Kh/JdPoT8QflT+Vdp/tT80Yx8NfPNfJpP82mG+TSvec1rNo/mNZvXGPOajXmNMcYYYzbGGOPYGGMcG+MwjcPsMA6H2eEwjh0Oh3HscDg2/93/4F736rrXve51r9J1r3uVe3WVe5V7lXvJvUq5VynlpquUUkopUkoppbxSys2jyKOURymvPEqUVx7lQ3mUD+V35VN+VP6g/Fr+FZtfmz+an8x8Nd/Np3nNpxnmNa95zWvMazavMa8xxrzGbIwxxmyMMcbsMI0xDrNxGIfZYRzm/08dvCXtli3kecx3qG/WwQoUBAWy+98Najyek+/XOrE2urK9K9OxwzgcO4zD4djhcGz+xz+7173uda9/ve51r65yr3uVe3WVe5V7lXvJvUq5Vymlq5RSSrkpUkoppcijlPIopTzKo5RXHuVRHuVRHuWjfJQv+ab8qPyo/E35OzZ/0/xkfjLzv8yX+TJf5jWjec0wr3mNec1rjBnGmNcYszHGGLNpjDHG7DDGOMzGYRxmh3EYxw7jcGwcDofjHo4d5n/8s3vd6173ulfXve51r3Kve5U/r3uVe5V7FblXuVcppauUUkoppetRSik3RcqjlPIo5VHkUR7lUR7lUR7lUT7KR/mSb8o35Rfl9/J3b35vfjXfzXxp5t/Ml/kyr3nNa4Z5zWteY15jXrMxrzHGGGPM69gYY4wxG4cxxrFxGOPYOIzD0TgcxuHY4XA4HDvM//hnf/7pXvcq9+q6173uVe51r9J1r3Kvcq9yr1L+vEq5l5RSSrlXKVJKeZRSSnkUuXmU8ijyKI9SHuVRPsqjfMlHyb/JN+Wb8ovye/m7N783v5rv5ruZVzP/Zr7Ma77Ma15jhnmNeY15jTGvMRtjXmOMMRuHMcZsjMMYR2McZodxGIdj43AYh2OHw2Ecjs0//OFe97rXvbrKve51r3uVe91L7lXuVe5V7lVKVyn3KqWU8udVSpFSSnmUUkp5pZRHKY/yKOVRHuVRHuVLHuWjfFM+yo/Kj8rv5S9ifm9+Mj+ZL/PdzL+Z13yZ17zmNa/ZPJrXbF5jzGuM2ZjXGGOM2RhHY4wxjo1xGOMwO4zDOIxjh3E4HDuMw+FwbP7hD/e6173u1XWvcq973avc615yr3uVe5Vyr3IvKfcqpZRyr1JKkVJKKVFKKa+U8ijlUR6lPMqjPMqjfMmjfJSP8k35pvyi/F7+Iub35lfz3Xw3X+bLDPNlXvOa17zGvOY1m9cY8xpjNo/GGGOM2RjjMMYYs8MYh3GYjcM4HMaxwzgcjo3D4XA4Nv/4h3vd6173ute97lXuda97lXv9eZV7lXuVe5VyLyn3KqWUe5VSSpFSSimPUkp5lFIepTxKeZRHeZRXHuWjPMpH+SjflG/KL8rv5S9ifm9+Nd/Nd/Nlvsxr5t/Ma17zmte8xrxm82iMec3GmNcYY4wxG2OMwxhjdhjjMMaxcRiHcdxj43A4jMPh2OFwmH/8w73uda973ete9yr3ute9yr26yr3Kvcq9SrlXKfcqN+VepZRSipRSSimPUkp5lPIo5ZXyKI8S5ZVHeZSP8lE+yjflm/KL8hv5S5nfmF/Nd/PdfJkv82WGec1rXvOa15jXmNeY15iNeY0xxhhjNsYY4zCmcRjj2BiHcRiHcTg2DofDOByOHQ6H+cc/3Ote97rXve51r3uVe92r3Kur3Kvcq9yr3KuUe5VSyr1KKaUUKaWUcvMopZRHKY9SXimP8iiP8iiP8igf5aN8lG/KN+VH5ffylzK/Nz+Z7+a7+TJf5su85jWvGeY1rzGvMa8xrzEb85rGGGOM2RhjjMMYYxzG7DAO4zAO43BsHA7jcDgcOxwO849/uNe97nWve93rXvcq97rXvUpXuVe5V7lXuVcp9yql3KuUUkopUkoppZRHKeVRSnmURymP8iiP8iiP8igf5aN8lI/yo/Kj8nv5S5nfm5/MT+bLfJkv82Ve85rXDPOa1zSvGcaY1xjzGmOMMcaYjTHGGIcxxmHMDuMwDuMwDrPD4TAOh8Oxw+Ew//SHe93rXve6173uda9yr3vdq/x5lXuVe5V7lXuVcq9Syr1KKaWUIqWUUkp5lFIepZRHKY/yKI/yKI/yKI/yUT7KR/koPyo/Kr+Xv5T5vfnJ/GS+zJf5Ml/mNa95zWte85rXmGGMeY0xrzHGGGOM2RhjjHEYYxzG7DAO4zAO47izw+EwDofD4XA4zD/94V73ute97nWve93rXuVe9yr3Kve6Vyn3Kvcq5V6llHuVUkoppZRSSinlUUp5lFIepTzKozzKozzKozzKR/koH+Wj/Kj8qPxe/lLm9+Yn85P5Ml/my3yZ17zmNa95zWteY4Yx5jXGvMY0xhhjzMYYY4zDGOMwxmEcxjgcxmF2OIzD4XA4HA6H+ac/3Ote97rXve51r3vdq9zrXuVe9yr3Kvcq5V6l3KuUcq9SSimllFJKKaU8SinlUcqjlEd5lEcpH+VRHuWjPMo35aP8qPyo/F7+Uub35ifzk/ky381rvsxrXvNlzGte8xrzGvMaY8xrjDHGGGM2xhhjHMYYhzEOYxzGYRwOs8NhHA6Hw+FwOMw//eFef/6p3Ote97rXve5V7nWvcq97lXuVe5Vyr1LuVUq5VymllFJKKaWUUh6llPIo5VHKozzKo5RH+SiP8lEe5ZvyUX5UflR+L38p83vzk/nJfJnv5jVf5jVf5jXmNa95jXmNeY0x5jXGGGOMMRtjjDEOY4zDGIcxDuMwDofZ4TAOh8PhcBj/ifmnP/z5p3uVe93rXve6173Kve5V7nWvcq9yr1LuVcq9Sin3KqWUUkoppZRSyqOUUh6lPEp5lEd5lPIoH+VRPsqjfFM+yo/Kj8rv5S9lfm9+Mj+ZL/PdvObLvObLvMa85jWvMa8xrzHGvMYYY4wxxhhjjHEYYxzGOIxxGIdxOIzDYRwOh8PhMA7zxz+6159/Kve6173uda97lXvdK+51r3Kvcq9S7lXKvUop9yqllFKilFJKKeVRSimPUh6lPMqjPEp5lI/yKB/lUb4pH+VH5Uflt/LXMr83P5mfzJf5bl7zZV7zZV5jXvOa15jXmNcYY15jjDHGGGOMMcY4jDEOYxzGOIzDOBzG4TAOh8PhcBj/ifnjH93rXve6173uda973avc615xr3uVe5V7lXKvUu5VSrlXKaWUEqWUUkopj1JKeZTyKOVRHuVRykd5lEf5KI/yTfkoPyo/Kr+Vv5b5vfnJ/GS+zHfzmi/zmtd8GfOa17zGvMa8xhjzGmOMMcYYY4wxxmGMcRjjMMZhHMbhMA6HcTgcDofD4TB//KN73ete97rXve51r3uVe90r7lXuda9S7lXuVcq9Sin3KqWUUqKUUkrpKo9SyqOU8ojyKI/yKI/yKI/yKB/lo3yUj/Kj8qPyW/lrmd+bn8xP5st8mS/zZV7zmte85jWveY15jTGvMeY1xhhjjDHGGGOMwxjjMMZhHMY4HMZhHA7jcDgcDofDYf74R/e6173uda973ete5V73ulfcf1XuVe5V7lXuFeVepZR7lVJKKVFKKaWU8iilPEopjyiP8iiP8iiP8iiP8lE+ykf5KD8qPyq/lb+W+b35yfxkvsyX+TJf5jWvec1rXvOa15jXGPMaY15jjDHG2IwxxhjjMMY4jHEYh3EYh3EyDofDOBwOh8PhMH/8g3vd6173urnXve5V7nWve8W9yr3Kvcq9yr2i3KuUcq9SSiklSimllFI/QjPXAAAgAElEQVQepZRHKeWRV+l6lEd55FUe5VE+ykf5KB/lR+VH5bfy1zK/Nz+Zn8yX+TJf5su85jWvec1rXmNe8xpjXmPMa4wxxhibMcYYYxzGGIcxDuMwDuMwzozD4TAOh8PhcDjMH//gXve6171u7nWve5V73avc3Kvcq9yr3KvcK8q9SinlXqWUUqKUUkrpepQS5VHKo5RHKY/yKI+8yqM8ykf5KB/lm/JN+VH5rfy1zO/NT+a7+W6+zJf5Mq95zWte85rX2DzGvMa8xhjzWsYYY2zGGGOMwxhjHMY4jMM4jMM4cxiHwzgcDofD4TB//IN73ete97q5173Kve51r3Jzr3Kvcq9yr1JuSrlX6Sr3KqWUEqWUUkp5lBLlUcqjlEcpj/Ioj/Ioj/LIl/JRPso35Zvyi/Lv5a9lfmN+Nd/Nd/NlvsyXec1r8xgyr3mNzWPMa8xrjDGvMcYYYzPGGGMcxjIOYxzGOIzDOIwzh3E4HMbhcDgcDvPHP7jXve51r5t73avc6173Kjf3X5V7lXuVm1LuVcq9opRyr1JKiVJKKeVRSsmrlCIlr1Ie5VEe5VEe5SOv8lE+yjflm/KL8lv5q5jfm1/Nd/PdfJkv85ov89o85jWveY15jXmNMa8xxrzGGGNsxhhjHMYY4zDGmTEO4zAO4+QwDofDOBwOh8Nh/vg/3evmXve6173Kzb3uVe51U+51r3KvEvcq9yrlXlFKKfcqpUQppZQiJUp5lFIeJa/yKOVRHuVRHuWjPPKlfJRvyjflF+W38lcxvze/mu/mu/kyX+a1+ZjXvOY1rzGveY15jbF5jDGGjDHG2IwxxmGMMcZhjDPjMMZhHA6bw2EcDodxOHM4HOaP/9O9bu51r3uVe93c617lXjflXuVe5V5xr1LuVcpNKaWU+6dSopRSyqOUKOVRSnmUvIqUvMqjPMqjfJRH+ch35aP8qPyo/Fb+Kub35ifzk/ky320+lsfmY17zmte8xrzmNeY1xuYxxhjzGmOMzRjjZIwxxmGMM2McxmEcxmFzOIzD4XAYZw6Hw/zzf/fnn27uVe51r3vd3Kvc617l5l7lXuVeca9S7p9KuVcpUUq5V4lSSnmUUqI8SimPUh6lPMojyqM8ykd5lI/yEfLId+Wb8ovyW/n7N783v5rv5rvNK5uP+TKv+TKveY15zWszrzGvZTOvMcaY1xhjM8ZhjDHG5jDGyRiHcRiHcTgzDodxOBwOZ8bhMP/8393rXjf3ute97nVzr3Kve5X7p3uVe5WbUu5Vbkop9ypRSiml3DxKKaWUUh6l5FXKo5RHeZRHeeRVHuVRPspH+Qj5yHflF+W38vdvfm9+Nd/Nd5uP+TJf5jWvec1r81ge89rMa8xrjHmNzVjGGPM6M8YYY4xxZoxxGIfNOIzDOJyMw2EcDofDmcPhMP/8393rXjf3uv/qXve6V7m5V7nXTblXuVfcq9yrxL1KKfeKUkopXVFKKSVKeZRSHlHKozxKeZRHeeRVJK/yUT7KR/kmPyk/Kn9L/p7N3zQ/mZ/Md5uP+TJf5jWvec1r85jXmNe8xpjXGPPajDHGGJuxjDHGGGfGGIcxDpvDOIzDOHMYh8M4czic63A4zD//V/e6ude9bu51r3Kvm3uVe92Ue5V7xb3KvUrcq5TSda8opZQSpZRSojxKKeVRyqPkVcqjPMqjPMojX8qjfJRvykd+Un5Rfit/z+b35lfzk83HfDdf5jVf5rV5DNk85jXmNea1mdcyxuYxxhhjbMYYY4xxZhljHMY4bA7jMA7jzGEcDmfG4XA4nDnMP/9X97q5171uyr3uda+bcq97xb3uVe4V9ypd9yrlppRSbkoppUQppZRSHqXkVUp5lLyKlLzKozzKR3nkS/koH+Wb/C/Jr8rfkr9P8zfNrzbysflmvsyX+TKvjTw2j3nNa8xrXmNemzGvMea1WcYYYzPGGGOcGWOMw9gcdm0O4zAOZ8bhMA5nDodxOJw5zL/8N/e6ude97nVzr3vdK+51r3vF/VflXnGvcq8o9yrlppRSbkopJbpKKXmVUkpepZRHeZTyKI8oj/JRHuWRf5N8KR/lm5Bv8qvyW/n7NL83v9p8l80382W+zJd5bR7zZV5jXvPazGvIZsxrjLGZ1xhjjDHGGIfNGOMwxpkxDuPMOIyTcTgcxpnD4XA4czjMv/w397q5173udXOv+6/KvW7uVW7uVe4V9yr3inKvUuJepZSum1JKlFLKI0op5VFKeUR5lPIoj/LIqzzKo3yUR76Ub8pH+VF+Vf6W/L2Zv2l+tfnRfJnv5su8Nh/zmte85rWReW3mNeY1NstjjM2Y1xhjM8YYZ3ZtxjiMMc6McRhnxmGcOYzD4cw41+FwOHM4zL/8Zzf3utfNve51U+51r5tyr5tyr3JT7lVuSrlXVyk3pZQopdyURyklukp5RCmPEuVRHqU8yiOv8iiP8lE+8qV8lG/KN/mN8rfk78f8TfMbm2/mu/kyXzavbD7mNa95zWvzGPOa1xjz2ox5jTHGGPPaHMYYmzHGYTN2nRnjMM6MwzhsDodxOHMYhzOHw+HM/Mt/dnOve93cq9zr5l73invdq9zcq9yUe3WVe5W4Vylxr1KilFKiq5QSpTxKlPIo5VHyKo9SHuWRV/koj/IR8siX8k35UX5V/pb8/Zi/aX61+dF8N182r2w+5jVf5jWvjWzmNa8xr83y2Iwxr7EZY4wxxhhjM8ZhbMZhjDNj15lxGIcz43AYZw6Hw+ZwOJyZ//lf3OvmXve6ude9bu5Vbu5V7nX/VO4V9yo35V4l7lVKlHuV6CqlRCmlRHmUUsqjRHmURxTJqzzKIySv8igf5SPflW/KN/lBPvI35e/B/E2bL/lm8818N99tPubLvOa1kXltHvOa15jXvDZjXmOMeW3GGGMzxhjLZhzG2IzDGGfGYZwZh3FyGIcz43A4nDkczhzmf/4X97q5171u7nWvm/50r3vdlHvFve4V9yrlptwryr1K9Ke4V4lSSpRSSkgpUR6l5FXKo5RHXuVRHuWRV/koH+Uj/yb5rvwo5Ef5j+T/X/Mf2fwkmx/Ndxt5bD7my3yZ1+Yxr3nNa16beS2bxxjz2owxrzHG2IwxxmYcxjI2hzHOjMMYZ8bhzDiMM4fDrsPhzOFw5jD/87+418297r+6V7m518297hX3ulfcq9yUe5WbUu6fSrkpJUopN6VE6SqPKKXkVUp5lPKI8igheZVHeZSPvMpH+Sjf5Lvyo/KL/Efy/5f5j2x+MT+Z7zbfzJf5Mq/Nx7zmNa95jc1jzGtsZIzNY4yxmddYNmOMM2OMsRmHsTnXZhzGmXEYZ8bhsDkczhwO48z505nD/F//h3vd3OvmXve6uddNudfNvcpNuddN6U835V5R7lWi3CtKKdFVSpRSopTyKCXKo5RHlEd5lEdeXY+8yiPkkVf5pnzku/Kj8u/lP5L/781/ZPPvzU/mu83HfDev+bJ5zGte85rX5jGvMa+xeYwx5jXGZoyxGWMsmzHGODPGODPGmXFYxuGwOYzDmcM4czicORzOHOb/+j/c6+ZeN/e610251829bsq9yv3TvcpNuSnlppR7RSk3XaWUKCVKKVG6HlFKXqU8SnlEeZRHeZRHXuWjPEIe+VK+yf+S/KT8e/nfyP835n9j8+/NTzbysflmvsyXeW0+5jWvzWN5bB5jXpvlsZnXGJt5LZsxxmaMMTZjLGfGGGfGOGzGYZwZh5NxGGcOhzPjcOZwOHOY//s/u9ef171uyr1u7nWvm/50r5t7lZtyr7hXuSnlppT7pyil3JQSpUTpKnmVEqU8ousRpTzy6npEeZRHvpRH+SiPfFc+Qj7yq/KL/O/l/23zv7f5xfxq8yWbj/luXpuPec2XeW0eY17zmtdmzGvMa/4f3vAFXbArwc7jYu2al0V2k5/GIFGWLFvW26/xF+7+fQ7u7cwEkFWoJiVG2Iwxr81YNmOMsRmHzRjjZDMOY3MYZ8ZhnBmHM4ddhzOHw5lxOPMX5r/6L93r5l73urm/uNe9bsrNvcrNveJe5abcK+7VVW5KuSmlRCk3pSvKo5QoJboeUcojyqOUR3nkVR7lkVd5lE/lU76Ub8o3+Y3yR/mH5P8MG/lTmz+a39h8M9/Nl82n+TKveW0e85rXvDaPMa8xr82Y1xhjbMa8NmMZZ8YYmzHOjHHY7DozDpvDODMOZ8bhzDicOZzrcDhzmP/qv3T/6uZeN/e6Kfe6uddNuddNublXuenDTSk3pdyUEvcq0VVKlBKllOjKq5Qoj1IeJa/yKOWRV3mUR76UT+WR78qn8qP8Rvmj/KPyf5h5DPn7Nn80v7H50XyZ7zaP+TJfNo95zWteY/OY19g8ls1jjLF5jGUzxmaMsRljGZvD2IzD2BzG5rAcxpnDOHMYZw6HM+Nw5nDmMP/1v3eve93c6+ZeN/e6uVe5uVfc634o94p7lZtSbkrcq0RXuVeUEqVE6YpSHlFKXl15lfKI8iiP8gjJqzzKI1/Kp5BHvivf5LeSn8i/Qv6TzDfzq/wtmz/ayI8238x3m1c2n+bLvDaPec1rXpvHvMa8NvMa8xpjM6+xGctmjLEZY5wZy9gcxjgzxplxZhw25zpsDofN4XDmcOZwOHOY//rfu9e9bu51c6+bcq+be90P5V435abclHvFvUrcq6vclCilxL2idEUpjyglStcjyiNKeZRHlEd5lEde5VE+5Uv5VD7lu/JN/kU+5efyr5N/hfmpIX+0+anNl3zafDPfbT7Nl/kyXzaPec1r85jXmNdGNmNem3ktmzE28xqbsYzNYWzGGJvDWM6McWYcNodxZhzOjHOdOZwZhzOHw5nD/Id/7+ZeN/e6udfN/cW9bsq9bu4V94p7lZtyU+6HUm5KlJtSSnSVKCVKidKVVyl5lVIeUR4h5RHlU3nkVR75Uj6Vb/Kl/CjkR/m5/Gc2v8qPNj+1+Y1sfjRfNt/Ml/myecxrXht5bOa1kXlt5jXG5jHG5jGWzRibMcZmLGMzxpkxxpmxOdfmMM6MM+MwzhzOjDOHcx3OHM4cDvMf/r2be93cv7q5181NudfNveJeN+XmXuV+KHGvuFeJe0UpcT+UKCVKidIV5VGilEeJ8ih5lUcpj5C8yiOv8ql8ypfyKb/KI79Rfic/l//Mhnyz+anN78xvbF55bD7Nl82n+TKveW0e85rXZl7zGvPajHmNzZjXZiybMcZmjM04GZsxzoxxZpwZ42ScOYwzh3HmcGYczhzOnOtwmP/mn93c6+ZeN/e6udfNveJeN/cqN324uVfcK8pNuVeUcq9SopS4V5RSyqNEKdH1iJJXKY+SV3mUR8mX8sirfCqPfCnflG/yG+V38jflP6chm79l8zvzG5tv5rv5snnMl3ltHvNlbB7zmtfYyNg8xmZeY4zNmNdmGWNz2IyxGeNkbMaZcdiMw+ZwZtdhczhzGGcOZw5nDmcOZ+a/+Wc397q51829bu4V97q5Vx9u7hX3uik35aaUm9J1U0rcK0qJ0lWiRClRyqOUKI9SHlEeUR7lUR55lUf5lFf5FPLId+Wb/CD5vfw9+c/jzCs/tfmd+Y3NN/PdfNl8mtfm07zmtZHNY15jXpt5bZbHZozNY9mMsRljM5axGWNzGJtxZtfmMDaHcWacOWwOZ3YdzhzGmcOZw5nDmfm//jv3urnXzb1u7nVzc39Rbu51U27uFfcqN+Wmq9yUclOilJuuEqVEidKVV4lSHqXkVfIq5ZFXeZRHXuVRHuVTvpRP+VJ+lF/lU34vfyL/59l8GvJHm9+Z39j8aL5s5LH5NF82j3nNa/OY17zmtZnX2DzGmNfYjHltls0YmzE2YzkzxtgcNuPM2HVmnBlnxuHMOHM4M851OHM4czhzODP/7b/zcd3c6+Ze9xc35eZeNzflXjfl5qbcq+umlJtyU6Lc9CFKlBKlRFeUEiWKRCmPKI+SVwnJqzzKI6/yqXzKq3yTL+VH5Uf5ifyJ/B9r86P5Vb7Z/NHmlU+bH82XzTfz2shj82lem8e85rWRsXmMjWzmNTZDNmNsxmYsmzE2Y2zGWM6MsTlsDmNzWA6bw5lxODPOHM4cNodzHc4czsx/++/c3Ny/urnXzc29bu4V97q5V9zrpg835abclLhXlJs+RLkpUUp0lShRShSJEuVRyiPKI8qjPELyKo/yyJfyCHnkS36VR36j/Cg/kX9I/lNs/pYhnzZ/tPkumx9tXnlsPs2XzWO+zGvzmNdGNo95jXlt5jXmtRmbIWMzNmNsxrIZYzPOjLGcGePMGGfGmXFm15nDOHM4M84czhzOHM6c6zD/3T+5udfHdXOvm3Jzr5ube8W97odyc6+4V9wr7hXlfihRbkqJEvdDlBIlipQoUR7RlVfJq5RHXqU88iqP8imv8ql8ypfyTX6j/Cg/l3+F/CM2/4h5zc9tfjS/sflmvmzksfk0r/myecxr8xjzmtdmXmPzGGNemzE2QzZjbMbYnGzG2IwzY2xOxjgzzowz43BmnBzGmcOZM4dx5nDmL3OY/+6f3Nzr5l43N/e6uVfc63641025KTc35abc9KHcRLkpJe5VSokSpURXlBLlEV1RHlEeJa8Skld5lEde5ZFfJV/Kp3wp3+QHyW/k5/KfYv7jnZE/2vxoI99svpkvm0/zZSOPzWNe89o85rWRsXmMjWzmNTZjXmMzNmPZjLEZYzOWM2MzzoxxZiyHzWFzODPOjDOHc50ZZw5nDmcOZw7zf/tn97q5udfNvW7uL27udVNubu4V97opN324KXGvuCkl7tUVJe4VJUpXlCiPEl1RHlHKI8ojuh55heRVHuWRV/mUL+VTyCPf5Vf5lN/Lz+U/zvzH2DzmV/lm8zubL3lsvpkvm0/zZfNpXvOa1+axkc1jXmNem3mNsXmMzbKZ12aMzTI2Y5zZjLGcGZtxZpwZ48yuM+PMYXM4c9gczpw5H84czhzOnJn//p/dfFw397q/uLnXTbm5uddNubkpN/cXca+4V5SbEvdDiXJTopToKlGiRFeJ8ohS8ip5deVVHiWvvMqjfMqrfMqrfCrf5Lvyo/xe/p78q8y/wuZ35ld5bH5n86P5biOfNp/mtfk0r408No95bR5jXpvHmNfYPMYYm8fYjDHGZmzGMjZjM86MsTkZm8NmnBlnxrnOjDNnxuHMmcPmcOZwrsOZv8z89//s5v7iXjc397q5uddNubm5V9xf3JSbcnNTyk25VylxU0qUe5USJUp0RXmUKCWvEkWiPPIq5ZFXeeRVHvlV8gp55Ev5Jt+VH+Un8ifyj5g/t/lb5jU/sfnRfLf5ks2nzSubx3zZPOY1r81jXpt5zWszZDM2jzHGZl6bsWzGZozNOIyxGWfG2JyMM2NzODPOjDPn2hzOHDaHM4czZw5nDuea//u/dXOvm5t73dzc6+bmXjd9uNfNTbkpN3GvuFfXTYl7RYl7dUWJUqKUEiVKifIoUR6l5FUeJa/yyKs8yiOv8imv8im/Sr7Lv0h+Lz+RP5e/Y/6mzZ/azK/yzeZ3NvJp88182Xya13zZPOY1r81jI5vH2MjmMTbLYzM2j2UzNmNsxhhjMzZjLGfGZpwZm8NyZpwZZ8aZceZwZtfhzJnDmcOZM4czh/l//JN73XxcN/e6ublX3F/c6+am3NzcK+4VN324KTclbkq56SpRbqKUUqJEiSJRooSUvEpIlEdI5FUe5VNe5ZEv5VP5lO9Cvslv5Ofyp+YfNf+Qzaf5VT5tfrT5Lptv5svm03zZyOaxkcfmMa/NvOa1mdfYPMZGxmZshmzG2IzNWDZjc9iMza4zY3NmjDPjzHLYHDaHM2fGmcOZc40zhzNnDn+ZM/M//JOP6+bmXjc397q/uLkpN/e6uSk3N+V+KDflJspNuekqca8oUbqiRIkSXVGihJQojyiPklcpj7zKI6/yyK+SV8gjX8qnfFd+lN/Lz+XvmH/U/InN78xrfm/zo/lu88rm0+aVzWMjj81jXpvHvOa1mdfYPMa8NmMjYzM2Y9mMzdiMMcbYjDNjs+vM5rAZZ8aZcTLOnBlnDmfOjDOHc505nDmcOTP/wz+5ubnXzf3FvW5u7nVzc1Nu7nXTh5u4103cK8pN172ixE0p0XVTokSJrihRHtEV5RFdeUV5lEeUR3nkVR55lU8h+ZJfJd+FfMpv5PfyN+WP5h81P7f5W8688s3mRxv5tPlmvmw+zWvzaV7z2jzmNa/NvOa1mddmzGszxrw2Y2yWzdiMsTmzjM04MzbjzK4zY3NmnDlsDsvhzJlx5nDmzOHMmfPhzOHM/D//2c39q5t73dzc3Ovm5uZeN+V+uLlX3JSbclPuh7gp5SZK3A8lSpQopUSJEl1RHlHKo0RIXiUkr/LIqzzKI6/yKV/Kp3xXvslv5CfyU/OlPOZfYX4w8/dsPs2v8tj8aPPKY/PNfNl8mi+bx7zmtXnMa/OY19g85jU28xqbeW3GGGMzNmOMsRmbsTkZm3FmbM6Mk3FmnBlnxpkz59oczpw5nDlzOHPmcOZ8mP/x37i5udfHdXNzc6+bcnN/cXNTbm7KzU256bpX3JS4V5R7lSglbkopUaJE1yNKlPIoUR4lryiSV5RHXuVTeeRVPuVL+ZTvyjf5vfxEfmf+hvx9m9+Zn9v8aF4b+dHmm/lu88rm0+aVzWMjm0/z2jzGvDaymddmXmMzr7EZm3ktm7EZm7FszozNGJuTzTgzNofNmV1nxpnD5sxhczhzrjPjzJnDmTN/mcOZ+Z/+rXt95F43Nzf3urm5v7gpNzf3ipt7xc39RdyUmxI3peumRLkp0RUlSpSuKBElpER5lCiPKI/yiPLIqzzyKp9C8iW/Sr4LeeQ38nv5uXyaf9T8ifmNzU9t5lf5tPnRfNl8s5HH5tO8Np/mtXnMa15j89g8ls1jM+Y1NvMam7EZm2VsxmZslrE5bMbmzK7NmTHObA6bc50ZZ86MM2cOmzPnOpw5czhz5vCXmf/53/q4bm5u7nVzf3Fzc6+bm3Jzc1Puh3vFTbmJe8VNH+KmxE2JrhI3JUp0lSiPKCXKI0p5RHmUvEpe5VEeeZVHvpRHvpRP+RfJd/mN/F7+aH6Vf9D8uWEe8xObb+Y1v7F55bH5ZvNpvsxr82lem8e85rV5jM1jbGQzr82yeYzNZtk8xmYsm7EZZzZjGZszY3PYLIfNmXFmnBlnTsaZw5lx5syZw5lznTmcOXOY/+WffFw3N/e6v7i5udfNzc3NveLm/uKm3NyUm7gp90OJmxI3pStuSpQoXVGiRFfkVaIrryghUR4hkVd5lEde5ZEv5RHyyHflU77Lb+Qn8s38TP6O+Zs2fzTfbX5nbOSbzTfzZfPNfNk85su8No95bR7z2sxrXpt5jc28Nstm8xibZTM2Y7OMzdiMM2PZnBnjzGacbA6bM+PMmXHmXGfGmTOHM2fOHM6c63DmzPwv/+Tm/tXNzc29bm5ubu51c3N/Efe6uYl7xU25H+JecVPipnTFTYkSXSVuyiO6okSU8igRUvKK8ih5lUde5ZFXeYQ88qV8ypfyTb7Lb+SPRpk/MX9i/sTY/NTmMb/K5pvNl2w+beSx+TRfNo95bR7z2jzmNTaPMa/NRsZmXmMzNmOzbB7jzGYsm7EZZ8ayOWzGmc2ZcTLOjDObw5kz41xnzpw5nDlz5nDmzJnzYf7X/8LNzc29bj6um5ubcnN/cXNzU25uys1NH27iptyUuOkqN1Gi3KtEiRJdUaI8SpQojxLlEeUR5VEeeZVHXuURki/5Uj7lS/kmv5HfyI/mB/lb5k/M37R5zE9svhmbVz5tvpkvm0/zZb5sHpvHvOa1ecxrXpt5jc1jM+Y1Npsxr7EZm2UzNmMzDmNsxpnNrjObcWZz2JzZdebMOHNmnDlzONeZcebMmb/M4cyZM/O//Rs397q5+bhubm7uX93cxL1ubm7KzU0fbuKm3MS94n6IchMlbrpKlCjRFSVKdEVeJbryivIoeZW8yqM88iqPvMojX0Ie+RLyKd/lN/KjUeZvy4/mT8xvbP5ovmx+Z/OYX2XzzeZLNp82r2xe2Tw2j3nNa/OY1+axWR6bjWzmtVk2m8fYLJuxGZtlMzZjM5YzYzPObMbJ5sw4M85sDsvhzOZw5syZcebMuQ5nzvxlzhzOzP/+b9zc3HxcNzf3r25ubm5uys3NTbm/uImbm3ITN324iXITJe6HElHipqtElJASJaLrESUkojzKI/Iqj/Ioj7zyKp9C8iW/Sr7Ld/m9fJof5KfmZ/KjzY/m79k85jc238xrI58238yXzad5bV7ZPDayecxr85jXZl7z2oyNbMbmMcZmbIZsxmZsljObsRmbk7EZZzbjzHLYnBlnzowzJ+PMmcPmzOHMmTPnw5kzf5kzh/l//Vs3N/f6yP2rm5ubm3vd3NyUm/vhptzclJu46cNN3JSbKF03JUrcdEWJEtEVJcqjRMmrlLyi6xEheeVVHuWRV0h+lXzJl/Ip3+W7fDO/ys/lR/P3zE/MT2x+Z16b39nMr7L5ZiOPzaf5svm0kc1jI5vHvDaPeY3NY8xrs1kem82Y19iMzbIZm7EZ48zYjM2ZXZtxZnNmnNl1ZnPYnDkzzpzrzDhz5syZw5kzZ86Hv8yZM/P//if3uvn4q5ube93c3Nzc3Nz0i5ubm7jXTdzcD+UmbkrclK6bEuUmuqJEia4oEaWUvKKUvEpIlEfJK6/yCMkrJK+QR76EPPIl3+U38pgf5I/mS5m/Z35i/sXM37R5zHebT/PayKfNK5tPm1c2nzaPeW0e85rX5jGvzbw2QzabxxibeW3GGJux2SxjMzabZZzZjM2ZXZszY3PYnBknZ8aZM+PMmTO7zhzOnDlz5nDmzJm/fDgz/5//i5ubj+vm5ubm5ubmXvcXNzdxc3NTbu6HchM35SZu+hA3JcpNV5SIm1JKlLy6IkqElMirK/IqjxKSV0heIcxB0W8AACAASURBVHnlS3nkV8mXfJfv8s38Kj+Rx/xN8zfN3zTfbf7ozO9s5lfZfLORx+bTRjaf5rV5zGsjm8dGNpvHvMZmXmOzkbEZm83yGJvNWDZnNmMzljObsTkzljPjzDizOTNOzowzZ86MM2fOdeZw5syZM4czf5kz8//9L9zcfFw3Nzf3urm5v7i5ubkpNzc3fbi5iZtyEzd9uImbEuWmK0rcROmKKFFKiby6IsqjRHlEeeRVyiOv8sirPPLKr5JfJV/yJd/luzzmB/nR/Iv80fyJ+blh5ic2j/lu82lsXnlsPm3ksfm0kcdGNo+NbB4b2Tw285rX2Dw2Y16bsVkem81YNpuxGctmc2ZsxnJmMzZnxpldZzZnxpnNmTP7cObMmXHmzJkz5zpzOHPmzJm/zJn5//0b97q5+bhubm7uL25ubu51c3MTN/cXN3FTbm7i/iJuotxEuR8iyk2UUqJEdJWIEqU8IroeEUUir5JXeeRVHnmVR36VvEL/f8LgRsXSrMHW6nhWXNfp/tpLEn9RUVFRFFFEEfFOu3Kv6bszorIys+vgGB7zZf4yf5lP+W5+FptH/l5s8v8jX8q/lb+Un0X5WXnkrZhP5W3Kp/LIl2LKo5jyyFt5RN5KMSXKI6I8IkqUKE2JEqUpcVKinClxUuKknKucnMRJOZw5iZOTk5PDycm5Tg4nHzk5yX/4D3fu3Hld9w937ty5c+fOnTt37uzlzp07mzt3xp293NncGePOXu6MzbgzNrvG2IzNZjM2Y+waYzPM2MzbZvMYm8eYt81jmHkbZt6GecyXzaf5Mn+ZR942+cl8yq/mN/n3yu/y98qn/KI88qX8cPJlyqfyNuVTvpRHMeVRTHnkLcojyiPyVkqYEqU0JUqJpkQp0ZQ4KVFOmpMoJ3HSdVJOTuLk5KSXk5OTk5OTk8PJybk+cnLIf/QvXnOv+83runPnzp07d+7cudd9ubO5c+fOuHNnL3c2d8adzWUv485m3Bm7NmNz2YxdYzM2m3nbjLFr3sZm8xibx2behhnztnkMM2/DPOZtvpv5Mn+ZH5q/zG+af6955N8rv8tfyr+Vt/KzkEfeyqcob/Mon4p5FFM+lUfeyiNvUUx5lGKiPKLkrTSl5K00pURpopyUKE2clDgpzUmclJM46To5iZOTk3JyrpPDycnJycnJ4eM4Lyf5j/8Dr391586d19zrzp07d+7cb+7cuTPu3LmzuS93NnfGnc2dXXfGnc3Y3Nk1xubO2DU2Y2w2mzE2j81mjGE287aZt80w8zY2j2HmbZjHvM2Xzaf5Ml/mkT/NL+aRX83P8rv8jfwuf6P8LG/lZyc/O/mUL+VTvhRTPuWtPPIW5VFMKY/IWykmSom8RSkRUaKUJk5KlOYkSpwjTpqTOCkncXKucnJyEicnJ+c6OTmcnJx85OTkJP/JP3nNnTt3XtedO3fu3G/u3Llz587mzp37zbhzZ9zZ3Lmza3Nn3Bmbe23GZtwZuzZjbMauMTZj15i3zdjM22bzGPO22TyGmbex+bR5zNt82Tzmy/xlPjW/mE/50/wm382/lb+R3+VPeeR3Jb8on/JWPp18mfIpb+VT3sojX6I8iimPkrcojyiPiJK3UpoSJSJKidLESSlRzkQ5KSfRnJzESTk5iXOdnJSTk8PJyblOTk4OH8fJ4ST/6T+787ru3Lnzmnvdb+7cuXPnzp0748795s7mzmVz585eLps7Y3PZ7LozNuPOrs0YmzF2jc0Yu8ZmjF2PMYbZzNvYPMbmsXkMM2/ztnnM2zCP+TJf5ofmL/NDmN/Np/yN/Go+lZ/lb+RL+SFv5WclX8qnKOZRzKN8Ko+8lUfeiimPYkreojxKMVHKoyklSlOilKZEiVK6zhElTppyEuUkTpqTkzg5KSfnOomTk5OTk5OT83LykZOTk4/kP/uHe73mzp079w+vuXPnzp07d+7c2Td37twZd+6M+82dcWfc2Yz7Mu5sxrizazM2Y9xrM8Zm7HqMsdmMzWNs5m0zzJi3zbxtHpvHvM3b5tMw82W+zJd55Lv5FJtHfjKf8qv5Wf5GfpdflEd+Vx75S/kU5YeSt2IexTzKo3zKWzHlUUx5lOZRiinlEVEeUSJKeTRRSpRDlBKlOYkS54gzJU7KSZycKScncXJy0nVyODk5OTk5+ci5Tg4nH0f+83+4c+d13W/u3Lnzuu7cuXPnzv1m3Llz587mzp29XO5s7ow7Yy93xp2xGfdljM24s2uMzRi7xmbedo0xNmaMeds1b2PzmLfNvG0e8zbMY5j5Mm/zZT6F+cvkJ/NDvpuf5W/kbfMpb+Xfyi/yVn4W8siX8shb+eHkU96KeZRHeZvyKKY8St7yFuVR8halmCgl8laiNCVKieYcUaKcKVFOyklXOYmTcnLSdXJSTk5OTuJcJycnJycfOTk5OS8fOcl/8S9ec/9w53XduXPnzp3X3Ll/uDPu3Llz586439wZd+6MO5v7Mu6MzWWz687YjHFn19iMsdk1xthsNo8xds3bGJvHZpgxb5vHvG0e87Z5DDNf5m2+TN42+dM88qf5lO/mbzX/Vv5G/kbeys/ypfzs5GcnP5RHlLcpj3wpj7yVR97KI295K8WU8mhKeUSUvJWIUqIpJUppTqKUOGnKSZSTOFNO4hwncXImTk5OTk7KyXk5+ThODicnJx/HyXnJf/kfuH94XXfuvObOnTt37tw/3Llz587lzp3N/eZyZ3Pnsrmz687mshl3dm3ujLHZddmMsdk1xmaMXWNsHpuxmbfNmLdd8zbMmLfNY942j3nbfJq3+TL5bv4yn8L80PyN+SF/yd/LX/KL/K78kC/lke+SL+VTlEeUtymPfMlbeeStPPJWiimPkrcoeYtSmkcppSlRSjSlRDlpSpST0nVS4qScdJ2Uk5NycnKucnJycnJycnJeTk5OTk4+cnLykfxX/+TOa+7cufO67ty539y5c+fOnTt37txvxp07d8adzX25M+6MO2NzX8a4sxm77oyxGbvGZozNZjPG2PUYY7N5jLF5bB5j85i3zbxtHvO2+TRv82UeYb7MI2+b/Gke+cn8kJ/Mp/y9/CW/CHnkdyW/KJ+i/FDyVvJWzKM88iVv5ZG3krfyiPIoj6aUR1NKeTSlRGlKiVKaKFFOmhLniHImykk5iZMz5SROTk7KuU5OTk5OTk5OzsvJycdxcnLykfzX/+w1d17XnTt3Xn+4c+fOnTt37ty531w2d+7cGXfu7OVyZ3PZjPuyuWzGnbFrc9mMsWszxmbsGmMzNpt5G5vNvG3mbWzMmLfNY942j2Hmbd7myzzCfJlHmL/MD2F+yJ/mZ/lF/kZ+kV/krfwmys/KI2/lU8lbyVsxj2LKo5jyyFt55K0UU/JW8lYiyiNKRCkRUUqUJko5KV3lpMQ54kyJk3Jy0nVyUk5OTsrJuU5OTk5OTk5OPl5OTk4+cpL/5h9e1507r7lz/3Dnzuu63Llz58795s7mcufOnc19uTPujDt3xl7ujDtjc9nLGHfGZtcYmzF2jc0Yu8bYDDPGZpgxb5vNY5gxb5vHvG0e82Xe5lPzZT41f5lHvpvfND/LT+aH/I38IiS/y1v5lC/lh5Iv5dPJp5NPeStvUx55K4+8lWLKozSPUkyJUkyUUpoSpTQlSommxDmiNCdRTspJVzk5KSdxciZOTs5xEifnOjk5OTn5OE5OzsvJR05O8t/+w53X3Ll/eF137ty5c+c1d+43d8adO3fu3Bn3mzuXzZ1xZy+XzZ1xZ+y6Mzbjzti1GWPc2TXG5rHZjDF2zdsYux5jbB7ztmvehpm3YeZt3uZtPjVf5lPzZT6F+VlsHvlF87P8vfwiv8hb+Vneyg95Kz+cfCqfTj6dfMpbMeVRTHkUUx4lb3mLUh5NKY/SlBKleZQScVKilK5yUkqcNOUkzhEnXeeIk3Jycq5ycnJyclJOznXykZOTk5OTj+N8c/Jx5L/7F6+5/+o1d+7cec2dO3fu3G/u3Llz586dy/1mc7mzudzZ3JdxZ9zZXPYy7oyxuddmjM3YddmMMXbN22ZsNmPeNpt528zb2Dw2j828DTNv8zZf5m3y3XyZfDc/NL+Y/Go+5Rf50/wsfymf8iW/KJ/ypTzypXyK8qk8ojyiPIp5FFMexZRHyVt5NOVR8lYibyVKRHmUpkQpJ00pUcqZEuWkdJ2Uk3JSzlVOTsrJSZw5OTk5OTk5OdfJycnJR05OTj6O803++3/nzmvuvK7LnTuv68795s6dO3fuXO7c2TeXO3fujDvjfnNn3Bl3xl4um8tm7LozNmPsujPGZuwaY952jbEZZoyNGWPeNo+xMfM2zLzN27zN2+S7ydvmEeaRt03eYvPIn+ZTfjWf8ot8yd/Il/Ipvzj5WfkU5ZG38qk8ojyiPPJWHnkrpjyKKXnLWynFRCkmSinNo5RoSilxjiZKiXN0lThHnKOrnMQ54uRMnCNOTs5x0svJycnJyTlOTs7LycdxcnLykZOPI//DP7lz53XdufOaO/cPd15z587lzp0795tx586dO+POfdncGXcum8texp2xuexl3Bljs2vcGWPs2owxXGOMsWvextj1GMOMeds8NsPM27zN23yZMI8wX+aR7+aH5i/zyK/mU36R3+Utv8jvyiNf8l3ypXyK8sh3yVvJW4nyKW/FlEcxpTyaRymmlEdTyqM0pUQxJUppSpST0pQoJ6XrHFFOStdJOTkpJ+VcJ+Xk5OSknOvk5OTk5OTjODkvJx/HyclHTvI//rPXdefOa+7cef3hzp07d+7cudy539y5c+fOZXPnvmwudzaXzX0Zd8adMe7LZow7Y9dmjDtj1xibsdk8xtg15m3smrexmbdhxrzteszbvM3bvE2+mzBf5lOYL/PIn+ZTvptP+V2+m9/kLV/Kz/K7k5+d/Kzkrfxw8qlEeUR55K088lYeeYtiyqNEeUSUR4mI8ihNKVGaclJKNOWklDhTykmcI86Uk3JyUs51Uk5OTk5OznVycnJycnJy8nGdnHwcJyf5n/7ZndfcufP6V3cud17XncudO/ebO3fu3Lnc2VzuN3fGnXHnzl4um8tm3Nl1Z2zGZS9jbMZl12aMsWvM22YzNmOYsRlmzNvYPOZt89jM27zNlwnzCPOIzSPMIzaPfDf51fyQP80jv8uX/CK/OPlNyCNfQh55K3krn0reSt5KlE95K48oj+ZRHlEepZgoxZQopSmPUpoopTQnJUppTkqUk+Ykykk56TrHSZwjTs6cxMnJOU5OTs51cnJy8pFznJx8vJycfBz5n//hNXfuvP7VnTuvuXPnzmvu3G/u3LlzubO53G/u3Bl37ow7e7ncGZvL5r6McWds7jU2Y2x2XcZm7Bpj3naNMTabxxgbM+ZtM2/DjHnbPOZt3ibfTZhPzZf51PxlHvnTfMpP5pFf5Hd5y+/ylu+S3538rOTLyafy6eRTifKI8iimPPIWxZRHyVsprlLKoymllOZRojSlxDmaKKXEIcpJKecqJ6WcnHSdlJOTcnJyrpNycnJyjpPzcvJxnJycfBwnJx8vJyf5X/7hzv3Da+685s6d19y5c/9w53Lnzp07lzv3mzvjzp07477cGXfGnXG/GZfNuDN2bS5jM3aNO2PsGpsxXGOMsWvextj1GMOMedvM2zDzNm/zaN7mEebRfJkvkz/Np3w3P+S7+ZQv+TfmU97Kp3zJL0Ie+RLlZyefQh5RPp08St7K4+RRTHmEKY+St1JMyVuU8ihNKVFMlFKaKOeIppQ4RzTlpMQ54kw5KSdxjnOVk5OTcnKuk5OTc5ycnJycl5NzfOTk5OM4+TjON/lf/507r+vyuu5cXtedy/3Da+7cuXPncud+c+fOuHPnsrkvd8adO+POXsadcdmM+zLG5jL2MsbY3GuMsdk8NmPsGvM2NpvH2MzbvG3mbZh5G/OpeZswn5ov86n5MvnJPPKneeR3YX6WL/lFvku+5Bclb/ku+RLlU/l08unkU4nyOPlUmkcx5VHyVh6lKY8S5RElopRHU0qUQ4lSmjhHlHKmxDniHNF1jjg5R5zjXOXk5KScnJzr5OTk5BwnHznXyclHTk4+jpOPI//bv/OaO6+585o7d15/uHPnzuXOnTt37jd3Lnfu3Lls7sudcefOuLOXy+ayuYy93Blj3Nk1NmPsGpvLvO0aYzM2m3nbjHnbbOZtbB7ztpm3ic2j+TJhHs2XydsmX5pPsXnkT/MpX2LzyJf8Lm/5Xd7KD/ly8rOSLyc/lEeUTyePEuXTyaO4yqPkrTyiPEpTHqU0j1KaUkppHnGOEk0pJZqTUuIcXeWknJSTrpNyco44x7niHCcnJyfnOC8nJ+c4OTk5Ofm4Tk4+co6PnOR//yd3XnPnNXfuvP7V5c6d19y5c+dy/3DncufOnXHnvtwZd+6MO3u53Bmby17ujHFnjL1cxtjsGmNsxq4xxtg1xsaMMW+7xrxt5m2YMY/mbd7mbR5hHs2n5st8mXxpfjH5krdNvuR3+ZJf5Ev+Uh75EvLIl5NPIY8on04+nTxK3srj5FEezaMUUx4lb6U0j1KKq5TSlBKlKSVKaUqUk6bEOUqco+uklJOTrpNyco44OXMS5zg5OTk518nJycnHcXJy8nGdnHwcJx/J//HPXtfldd25f3jNnTuvuXO5c+f+4TV3LnfGnTv3m8udcefOuHNfNpdxZ9yXzbgzxp1dY3MZuzZjjLFrM8bYNcYYrjGGa4x528zbMGMezduEeWzCfGreJt9N3jaPfDf5EptHvoT5Wb7kd3nLl/wubyW/KPkS5YfyiPKI8jj5VEIe5VAezaMUUx4lbyWKKaW4SikRUUppopRSuspJKV3nKHGOKGfKSTkp5zopJyfl5BznOjkpJycnH8d5OTnHyclHznHykfNy8nGc5P/8h9d15zX3D6+585o7d+685s79w+XOnTuXO3fuN5fN5c6dcb+5bC6by7jfjMtm3Bm77oyxudcYmzF2jbEZu8YYwzXG2PUYY5gxb5t5mzBvE+ZtYvNovky+m3w3+dP80Pxi8iW/a36Tt3wpn/IlX0Ie+XLyQ/kU5RHlEeXTyVuiPMqhPIqrPEreSjFRyiNKFFOilKaUEk0pJcqZUspJE+eIclLOlJNyUk7OVU5OzhEn5zrHycnJyTlOzsvJx3FycvJxnHwc55uP4yT/1z/cec39V6+585o7l9d1uXP/cOfO5TV37oz7zZ07lzvjzv3msrlsLnf2ctmMy+a+jDHujF2bcRmbXWOMsWszxtj1GGPseoyxeYxhxjyat3k0b/No3uZtPjVfJt9Nvpsfmk/5ssmXfInNI1/yJW/5RcmX/KV8ypfyKcojyiPKp5NP5VEeJ4/y+MijPJpHKaaUR1PKI6KUR1NKKU2JUpoS5yjRlJNS4kw5KeWk6xwn5aScnOuknJyc4+RccY6Tj+Pk5OS8nJx8HCcnH8fJx3G++Tjyf/+L17+685o7d15z5zV37h/uvOZy586dy/3D5c6dy+Zy534z7lw2lzt7uTMum3Ffxp0xxn0ZYzMuuzZjjF1jbMbmsRljM2+bzbyNYeZtmrd5NG/zaN4mzJd5m3w3j3w3+dN8yneT3zWf8jfyJV/ypXzKlyiPfCmfojzyVh4hj5NPJcrj5FEeH3mUR1MexZTyKE15lKaU8mhKKdGUUkrXOUqUcqaUOEc5Vykn5aTrHCfl5KSc6+SknJzj5ORcJycn5zj5OE7Oy8lHzvGRk3N85CT/z7/zmjuvufOaO6+5c//wui537lzu3Lnf3LlzuXPncud+M+7cGZc7e7kz7ozLXu6McWfs2lzG2Owa484Yu8aYt11jbDbzNsauxxibxzwa8zZh3ibM24R5hHls8t3kT5PvJj+ZR77kbZMv+ZK/5Et+F+WRL/ku+RLlEeVTyCPKo+StRHmUKI9yKI/SPMojSnk0pTxKU0ppHiVKU8pJKU2UclKaOEeJc3SdlJNy0nWOk3JyUs51cnKOk5OTc5yXk3OcnJycfBzn5eTjOPk4Tj5yjvy//+R1vebOa+5cXv/qzmvu3Lncec2d+82dO5c7d/8fW3CgYmvWZQl1zPXlW1lVf/V7ioiIiIgIIiKICNIgggiC71KZEXtN97nn5A1segxLa78tW1tla+mxVbbKVo+lbJWy1VVaS+lRSimlRymldJVSStdVSle9lKJKXSn1UkG9VFBX6qWuoK7UWyt+qfhbxUdoXfER1BUf8R8RH/ERH/GSiP+fRHyExFtIvCXeJq5EvCSuiSsREldiSFyJ1JVIqETiCiGRuFKJREikEolEIhUSiUQiKzGRSGTNSIQZYUbWRGIiMSPHjInExMSMORITMyYmJmbMMfGMiYkZE8+YeI6JiWdMPCP+03+xdWrr1Nb5y9apZWvr1NayX7aWra1la79tbS1la6vst6Vsla0eS2spW6VHWUqra2mVUrpKq5SuUkrpukrpqpdSWlepoNSVeqkr9VJX6qWuoK7UR8VLKz5SvwV1xUdoXfERH/EjPuIjPuKXiI94ScSPibcgrpB4m7gS8ZK4Jq7ENXElrieuRMJKJK4QElciJOIlhEQikUokEiGVSCTCjKxEYiKRCjPCjMRE1kRiRpgxKzExkZiYMTFrYmJixsTEHDMmnjExMfGMieeYeMbEM+I/+4etU1un9i+ntk5tLae29svWcmpra9nab61la2vZKvttaS1la49WWVpL6bG0ytKjlLJVukopra5SSum6Sild9VJaVykV1EulXupKvVRQLxW/1JV6S31U/K3egnqLj6Cu+Ij/iPiIj/iIl0R8xN8iPibeQuJt4m3iSlwhcSVC4pq4EtcTiSthJRKJK5W4EiEkElcqkUgkUomQSKQSE4lEImsikZiRFWYkJhKJWTPCjDBjVmJiYsbERGKOGRMTM56YMTHHxDMmJp4x8Yz59oyJZ8R//q+2Tp0/LWctp7a2Tm3tl+XU1taytbXftpatrbK135aytbSWHltLqyytPUpZWmWPUkrpUZZSulqlFKuUUrrqpZTWVSoodaVeSgX1UkPrpeKXCuot9Zb6LfUWWlf8SL3FR3zEj/iIj/iIj4n/QCI+Jn6beJt4S4TEFRJXIiSuREgkrieuRMJKJK5UInElUolEImElEolEViIxI5GVSCTCVCIxIySmEhOJxMSMHDPCjInExKwZYcbExIw5JmZMTEw8Y2KOGU/MmHjGxDMmnm/PiP/iX53av5zaOrV1ajlr2S9bp7aWra1lv2wtW8vW1n4rW0vZWvpt2SpLq+xRtkpZepSyVbpapZTSVUqrdJVSuuqllNZVKvVS6kq91DXVeqlBXUFdrfHSulJvqd9Sb/FLxY/QuuIjPuLH+A/FR7wk4kdIXPEx8dvE28RLXEPiJcZLIiSuxMSVuJ64EokrlUhcqUTiSqQSiUQqkQiJVCKRCIlUYiKRyJoREjPCVCIxkZiYkWPGRGJiRpg1Y2JixsTErImJiRkTz5iYY+IZE8+YeMbEM+Zb/Jf/zvnL1qmtU1unts6Xra1Ty9bWsnW+bC1bZWvZL8tW2Vq2emyVZassPVpL2So9ylJKj7K0SukqpZQepZRilVJaVykVlLpS6qUG9VJBvVRQLxW/VPxSV1BXaL3FLxUf8Utd8REf8SM+4iM+4iVxxUdIXPG3GL/E+CWukLgGcSWGxEsMiSsRElfiiSuRsBKJxJVKJBJWIpFIpEIikUglQmJGIiuRmEhkJWaEGYmsicTEjDAjx4yJGWHGxKyJGWHGxMSzJmZMTEw8Y8bEc0w8Y+IZE8+YiP/qn5xazlpOndrav5xatk5tLVvny9bWsrVsbe23srVsLa09tspWWcp+K0trKT2WVilLj1JK2aOUUrpKq166SilFlVJBqZeaulpqUC8V1EsFdaU+Kn6pK6grfqkrXlrjI15aV3zER/wYH/ERH/FLXOMjiCteEle8JOIlcYXE28SVGMSVGBJXIiQS1xOJK5GwEomElUgkEqkrkQipRCKRmEokEomsGSGRmJEVZiQmElNhRpiRmJiVmJgxMSPMmpgxMTFjYuJZExMznjEx8Yz5NuOJZ0w8YyL+6392auvUqa1T++XU1tapZWvrfNlatraWrWW/LFtLa9nab2XZKltlj7JVltYepSyt0tVaSulRSildpZTSo5RSVCl1pZS6ptRLBaWu1EtdqZe6gnqp+KXil7ril4q/VXzE3yo+4iN+xEd8xEdIvMVHSLyFxBUviSskrpC4EvGSuCauxPXESySGxJV44kokUlcikbASiUQiFRKJRCqRCIlUIjGRyEokZoTEVGIiMSNMhRmJiRlh1oyJxMSMiVkTEzMmJmZMPMeMiYlnTMx4xnx7xsQznpgR/82/OLV16tTW+cvWqWXr1NZy/rK1bC1bW8t+WbaWraW135atsmyV/VaWslX2KK2llD1KaZVdpVVK6SqllK5WvZRWqSul1DWlXkoF9VJBvdTQeqmhdQ3qLfXWGi+t+JF6i4+h9RYf8WN8xEf8LcZHfEz8FhJXSLxNfMR4SYTElQiJKxESV2JIJK7EE1cikboSiVTiSiSyEolEIpUIiURiKpFIJKYSYUYiMSsxI8xIzEpMzAgzJmYlJmZMTMyYY8bExIyJiRnPMTHxjBkTz5h4jolnPGMi/tt/OGs5df60nNo6tbWc2tovp7a2lq1l63xZWsvWsrXftsqyVZb9VrbKUvZbKUur7FHKUlpdpZRW11LqpauU0mqVulJKvdTUS6mgXmrqal1TL3WlPiqot9Rb6rfUW/xSV3zEL3XFR/yIj/iIl8QVH+OXuOJj4reJt4m3xCDenrgS18SVuCYSV2JIJK4nElcikboSiVQiJBKpK5GYkZVIJBJZicSMkJhKJCYSiakwIzGRmDUjzJhITMyaMTExIzHxrIkZExMzJp4x32Y8Y2LiGRPPmHiOZ0zEf/cPy1nnL1unTi2ntrZO7ZetU8vW1nJqvyxbyTwxYgAAGrdJREFUy1bZ2m9by1ZZtnpslWWr7FFaS1l6tJZSSo+llNKjlFK6Siml6yqlUuqlpl5KXSn1UoN6qaBeKqiXil8qfqkrqLegrvhbxcf4aMVH/Bgf8RESb/EREm/xkoiPRLwkrpC4QuJKDOJKDIkrERJX4okrkbieSFyJVCKRuLISiUQilUgkElmJRGIilQiJGYmsicSMRJhKTMwIM3LMmEhMzJiYNZGYMTExY45nTMyYmHjGjPn2jImJZ8x44hkznm/PiP/+X22dv5zaOnVq69Sydf6ydWrZWrZO7Zdla9latvZba9latsp+W8pWWfptKUtr6VGWVil7lFJK2aOUUrpKvZSuUir1UkoNSl1T6mpNvdRLBXWlXuoa1NUaL61rvLTGR2v8SL3Fj6Cu+BEf8ZKIH+Nj4rcg3obEFS+JKySuRLwkrokrMSSuxDWRuBJPXInEkEgkrlQiJFKJK5FIJRKJMCQSIZGYSiQSE4msGYmJxIwcM8KMxMSsxMSMiRmJOWZMTMyYmDHHMyYmZkw8Y+I5JmY8Y+IZz5h4xvMt/od/5/zp1Knl1NapU/uXrcPWqa1l63zZWraWrWVrv20trWVr6bdlqyxbPZbWUpZWj6WUra7SKkvpUUopXaWU0lVKXSml1KDUS029lArqpYbWSw3qag3qLfVR8UvFj9Rb/FJX/Bgf8SM+xkf8iJfEFR8Tvw3iGsTbEx8xJK5ESFyJIfESQyJxPZG4EokhkUhkXYlEIpVIJBKpkEgkUmFGIpHImhESM7ISE4kZYUaOGROJGRM5ZkzMSEzMmGNixsSMiYkZzzFjYuIZM54xMd+e8YyJZ0w84xnxP/6TU6e2Tp1aTu1fTm2dWk5tbe2XU8vWsrVs7Zdl2Vpay37bKstWWfZbWVpl6bFVylJ6lKVVukrZKl2llNJ1lVJTqvVSU+qlpl5KXamXUoO6WoN6S73UFdQ1tN5Svw3qio/W+Igf8WN8xI/4GMTb+CXGj4m3RLwk4iVxPfGWCIkrMYjE9cSVSFxPJK7EE4krkchKJBJXKpFIJLISMxKJrERiRkiFGYnERNaMRJiRmDWRmDGRmDHHjMTEjImJWRMzJiZmTDxjjokZz5h4xsQz5tszJp7xjIlnxP/0z05tnTp1auv8ZevUcmprObV/WU5tLVvL1n5ZtpZla+m3rWWrLFs9tspStnospWyVHksppcdSSml1lVJKVymlBqVU6qWUGpS6pl6qNaiXCuqlhtbb1Ftr/FJXUG/xS8WPoXWNH/EjPsaPeEnEj5C4xt9i/BLXkHibeEsM4koMiSsREonriSuRGBKJxPVEIpFwJBKJRCqRSCSyEolEYkZWIiRmZCVmhMSMrInEjDAjx4yJxIyJGTkmZkxMzJiYNTExY2LGMybmeMbExDNmPGPi+TbjiWc8Y0b8z/9sOXXq1Nb506nl1NapZev8ZdlaTm0tW/tl2Vq2lmW/lGVrKVv7rSxbZem3spSl9NtSSll6lFJKj6WU0nWVUlNKqWtKta4ppV5qUOpKvdQ1dbWuqZe6gnpLfVR8TP2W+i0+htZb/Bgf8ZGIj/Fj4reJt5B4e+IjxkvimrgS1xMvcT1xJRJD4koknniJxB9xJRKJrEQicaUSicREKpFIhNREIpGYkRVmJGaErBlhxowwa0ZiYsZEYtbExIyJGRNzzJiY8YyJiRnPMTHjGRPPmHjG823GM57xRPwv/+LUqVPL+dOprVPLqa1T++XU1rJ1atnaL8vWsrVs7bdlqyxbS78tW2Up+61slaX0WFplKT1KWUqPUkopXaXUlHopNaVeSqVeSg1KXVNX66WmPiqolxovrWtQV1BvQb3FL3WNj/gRP8ZH/Bgf8ZK44iMx/hbjJREviWtIvMSQeJtIXInriSuRGBKJayKRuBJ/RCJxJbISiUQqkQiJRCoxkUhkJWYkEhNZiRlhRmJWYkaYMSPHxIyJxIyJOWZMzJiYMTHHjIlnTMyYeMYcz5h4xsQzZjzj+TbxjGfE//oPp07tn06dOrWc2jq1nL9sLae2llNb+2XZWraWrf22tSytZdkvZVlaS78tZSlbPZZStkqPspRSepRSSlcppaaUUmpQSg1Kta4p9VKDUlfqpa6pt9ag3lIfFb/UNT5a4yN+qSt+jB/xMX7ES+IaHyHxFi+JaxBvT7wlQuLtiStxTVyJxJC4Ek+8RCIxJBKJh0QikchKJBKJrEQikchKJBIzElmJiURiRtZEYkZiImsiMWMiMWtiRmJixsQcMyZmTMyYmGPiGTMmnjFj4jkmnjHjGRPPeMYz5ssz4n/7V1vnT6dOndo6tZw6tX/ZOmydWraW85dla9latvbb1rK1LK39tpStpWzt0VrKUvptKWXp0VpKKT3KUkpXKaWm1EupKaVeakq91NTVUteUeqmh9VKDeku91DW03qZ+S/2Wehs/gnqLH+Nj/C3Gj/h44reJ3ybeEuOXuJ54SwziSgyJK/HElRDXE4kr8UTiSiT+iETiSmQlEolEViIxI5GVSCRmJHLMSCRm5EjMSEwkZs1ITMxITMxKTMyYmDExx4yJGRMzJp5jxsSMZ0w8Y8Z8e8YzJp4x8YxnPOP5Fv/7v3P+zalTy6lTp7YO+6fD1qll69Syf1lOLVvL1n5Zlq1la+m3rWUpW0u/LWWrLD22SllKj6VVSo+llFK6Sik1pZRSg1Jq6qWUGpS6Ui+lrqmXulIvdQ3qao1f6opf6hpa1/iR+m38iB/jY/yIH0/8Fi+JeElc4yVxhcSVGC+Ja+JKXE9cCXE9cSUSQyKRuJ5IJBIPiUQikZVIJBJZiUQiMSMrkUhMZCVmJMKMrInEjMRE1sSMxMSMiRwzJmZMzJiYY8bEjIlnzJhvM54xMeMZE8+Yb8+YeMYznjHjGc+If/+fOLV16tSpw9ap/cuprcPWqeXU/mXZWk4tW/tl2VqWraVflmVrKct+KUtZyn4rS2spPZZSylaPUkrpKqXUlFJKTSn1UlNKXVPqpdSgrtbUS11TL3W1xi91Da23qbfUb6nfxt8qfowf4yN+DOJt/Hjit4m3ibfEeElcg7gS1xNX4ppIXIkhkbgST1yJxBOJK5H4IxKJRCIrkUgkshKJRCJrRkgkZmQlJhIzErMSM8KMxKyJxIyJGTPybcbEjIkZE3PMmHjGjIkZ8+0ZM54x8YwZz5gvz5jxjGc84xkT8X/8k1OnTp3aOnX+snXq1HJqObW1fzlsLVvLqf2ybC1by7JfytaybJX9tpStsvTbUpay1aMspZQ9WqWUrqWUUlNKqWtKKTX1UkoNSl1T6qXU0HqpQb3UeGldUx8Vv9Q1fqkr/lbjR/wYWm/jJRE/xo9BvI2XxDV+iWtIvE1ciWtIXIlBXIkhkbgST1yJxJBIJK4nEonEH3ElEomsRCKRmJGVSCQSsxKJxIxEjhmJGYmJrInEjMTErMTEjBkTiTlmTMyYmDExxzNmTMyYeMYcE8+YeB4Tz3jGjOfbMyae8YxnxP/5T06dWk6dOn/aOpzaOrWcWs6flq3D1rK1X04ty9aytd9ay7K1LP22tZSltey3spSy9NtSStmjlNJaukopNaWUUk+1Xko9pVov9dTVUlMvdU2pl7pSL3VNfdR4aV1Tv6V+m/otfqlr/Igf42P8GL/ENX488dvEb0+8xDUk3p64EtfElbgST1yJ64lE4noicSUSTyQSV+KPSCQSiaxEIpHImpEIicRUIpGYkWNGIjGRmDUjMZGYMSPfZsyYmDGRmGPGxIyJGc+YY2LGxDNmTDzHxPOYeMbE83jGxPPtGc+YeEb8X//s1KlTp86fllOnllNbp5bzp+XUsnXY2i9by7J12Fr6Zdlalq1+W5atspT9trSWUvZbWUpZepRSlh6llJpSSqmnlFKtB6WUGpRS11TrpQb1UlMv9ZZ6qWvqo+KXusYvdcXfavwYP1K/jY+J38aPQbyNl8Q1folrSLw9cSWuibfE9UTiSgyJK/HElUiIh0QiIR4SiUTij0gkEomsRCKRyJpIJBJZMxKJicRUSMxIzJgVZiRmTMzIMTFjYsaMfJuY8YwZEzMm5ph4xoyJ5zHxHBPPmHgeE894xoznyzOe8Yz4v//Fqa1T50+nTi2nTi2nTu1ftk4tp5at82Vr2VqWrWW/bC3L1rL0y7IsraXflqVslR5Layllj1LKUnqUUmpKKaWeUkqpKfVSauql1NRLqWvqal1TL3VNvdTVGr/UNai31G9Tv42X1jV+jB/jY/yIl8Q1fjzx28RbYvwS14O4EtcTV+J64iWuP+IlEtcfIRLXH5EQV+KPSCQSiT8ikUgkshKJRMhKzEgkElMhMSMxI0diRmJiRo4ZiYkZM/JtxsSMGRMz5piYMTFjYsbEc8yYeB4Tz5gxX57xPCae8YwZz3jG8+UZM+L/+YdTp86/ObWcOnVqOXX+tJxaTm0tp/bL1nJq2VqW/cuybC3LVr8tW0tZ9ktZyrL0W1nKVumxlFKWHqWUmqWUUk+pl1JTSqlrSqmXmlIvNSj1UoO6Wg+tlxq/1DW0Pmr8Utf4aI0f48fQehsvifFj/BjE23hJXIN4S4yXxDUkrsSQeIkhcSUSQ+JKPJG4EoknrkQi8UckElfij0gkEompkEgksmYkEokZORIzEjMSOSZmJGYk5piRmDExI99mzJiYMTFjjokZEzOeMWNivj2PiYnnMfGMGc+3Z0w8j2c8Y+IZz7dnxP/7D4fzb06dOnXYOnVq/3Lq1HJq2Tq1X04tW8vWYWu/LFvLsrX0y7IsW2W/LWWrLGW/laUspd+WUpYe5f+rCg5ULMui7DDGWvv1fJNnLI30/z8gEAgEAoPBYBAIdVXmOdv3VVZ3uiOWZbm6LMuyZlmW9Zi1y7KswdplDdaut9X1tqxiva1H19t6lF1vq35Zj3rb9ahf1pf6y6pv8a1+q28l8aX+Eo/xSzzqLfEoibcYv8Rj4pF4JEoi8ZhIPBKJkkgkSiKRSLzikUgkXpFIJBI5WolEIpGrlUi0ciRaiUaiV6KVaIVWr0Sj1WrkaLQarVajR2NGo9VoTfXTVKsx1Zqa6ocZU42pqamp+RT/5T87fzrrctZZZx3Ouj+cddblrMtZl/vTWZe7Dndd7rofLmdd7lou98Plrstluet+Wi6XXZf9dFkuy2U/LZdlueyxLMs1y7J2WbMsy7JmWW9r1yzrbVldb8t6dFmPXYP12PXoeluPrt9W2fVl2PWl62/1tutR3+ofxrf4Vm+JR32b+JKov0RJfJl4JB4Tj8QjURJv8YpHQjxekUg8EhOJxCPxikQikXhFIpFI5GglEolcrUSikcjVCq1EK0cr0WglerQSrUar1aORaDVmNHo0Wo2pVmuqnxpTranGjKl+mJqamppqTcV//TdnnXXWWYe7zjo/nHU566zLWZfzw+Vy1uWuy1n3w12Xy12Xy/3pcrnctVzuh8tyuSz3w3JZLsv9tCyXZbnHsizLNcuyLKvLsixrlmW9rS7Leltd1tvqeltvq+ttPbre1mPXeNv16Ppt1V9Wfcv6W/1l1T/Ut5L4Ut8afxvEl5L4MvFIPEriLR6veIvHROKReEwkHolXJB4J8YrEI5F4RSKREH9EIpFI5GglEolEVyK0EoleiVaileiRaLUSjV6NRKvVaPVotFqNVqPHVKPVmmq05lNrqjFjqjFjPky1pqampuK//ZvDWWedddbh/ulw1lmXs866nHV/upx1uetw1/3pcrjrcrnrfrjcdVkul/vhstx1We6ny3LXclnup2W5LHtclmVZc1mWZc2yrF3WLMuyrMHaZVmDtettzXrssgbrsevR9bYeXW/rS9dj12O87XrUL+tR37r+Vv9Q3+rbxN/qLfGot8SjfonHxJfEY+KReEw8Eo9ESSQeE4lHIjGIRCIxJBKJxCtEIpH4IxKJRKJXIpFItHIkWolEr0Qr0QqtXolGK9Hq0WokWq1Gj1aj1ZjR6KfWVKsxo9FPU40ZU40ZU1P9MDU1NTUV//3/dNbhrLPOOj+cddblrLMuZ13OD5ezLmdd7jo/Xe66XO663A93XS6Xuy73w2W5XO5a7qflsty13E/LZbkseyyXZc1yWZZlzbIsy+qyLMsaLMvaNViW9eiy3laxrLdVrMeuYdeXrt/Wo1hfivWlflmP+lb/UN/qW70lHvVbon5L1Fviy8SXREm8xZB4JMSQeItXPBKJREkkEokhkUiIVyQSicQfkUgkEq0ciUQrkSPRSrQSvRKNRCvRK7RarUSjR6vVaLUaPVqNVqPVmk+txozGjMZ8ak01Zkw1pmbMh6mpqan4H//BWWcdzjp/Outw1lmXs866nB8uZ13Outx1frrcdTnrcrnrfrjcdblc7roflsvlstwPl+WyXPbTXctlWe6xLJdlzbJcljXLsixrlmXtsqxZb8vqst6WNeyy3lbX23p0va23Vay3Vb+sL11/6/pb19/qW9n1t/GXqG/j28TfJv7W+JJ4DOKRKIlH4jHxSDwmEo9EYkiIR+IVicTjFQmRSCRekUgkEn9EItFK5EgkWolEr0SilWjlUyvRSrR6JFqNVqJHq9FqNVo9Gq3GjEarNZ9ajRmNqdZ8asyYakzNmJqaD1NTU/F//Udnfa6zzp8uZ511OOusy1nnh8tZl7Mud52f7roc7rpc7jo/XS6Xuy7L/XC53HVZ7ofLclkul/102bVclnssy3LNsiyXZc2yLMuaZVmW1WW9LWuW9dhlzXpbux6z3tajy3rsegzWY9d42/WY9bdd9ZdV38bbrkf9w/hWb4lHfSuJLyXxt4lH4lESbzHeEo/ExCPxmHgkEo+JROKReEUi8UhMJBKJxCsSiUTij0gkWolEjlYikeiVaCUSjRytVqIVWr1Cq9Vq9Ei0Gq1WY65Gq9GaarXmU6sx1ZpqzaepxtSMqamp1nyYelX83//uc511/nTWWWddzjqcddf54XDX4a7DXYf7w+Guy+Wsy/3pcrnrcrncny6Xy3LX5X7adbksl/10WS7LXXssl2W5ZlmW5ZplWZY1y7Isy5plPXZZs6y31WW9LWvY9basYdfbGnb9tor1peu3VX9Zj/rW9bf6h/Gtvk38rd4SXwbxZeJLoiS+JAbxSAwi8UgMCfFIvCLxSLwiIR6JVyQSiUTiFYlEIvFHtBKJRI5WItFK5GiFVqKVo5VotBI9Wq1Eo9Xq0Wi1Gq1WPzVmNFqtqX6aasxoTLWm5lNjxtRUY8bU1HyYiv/n332u86ezDmedddblrMP50+Wsw12Huw73h8Ndl7Mul/vT5a7D5a7L/XDZdblcLvvhcrlrueyny3JZLvvpsiyXNctlWZY1l2VZ1izLsqxZlvW2Zu2y3tYs67HLGizrsWuw3lax3tajWF+6flv1l/Wov6z6Vv8wvtW3QXwZv8SXIfFl4rcYb4m3GBKPREk8EomSSDwSr0i8ReIViUci8YpEIpF4RSKRSPxLJRKJRCtHopVINHK0Eq1EK59aiVarlU+NVquVaPRoNVpTrVY/NVpTrdZUP8xoTLWmZjTm09RUY8bU1NTUfIj/9z/5/N8OZ511OOusy1nnT4ezLmddzjrcHy5nXc66XO4Ph8vlrsvl/nS5XO66LPfD5bJcLrvup8tyWS77abks1yzLclnWa1muXZb1WtYuy5plvS1rlmU9ds2y3pY17LIesx673taw622Nt11va7zteoy3XV/GL+tR3+ofxrf6Nn6Jx/gt8ai3xKMkHolHSTwSg3gkHq94i8SQSDwSE4lHIvGKROKReEUikUi8IpFItBJ/RCLRSiRytBKNRI5WopVo9Ui0WolGq0ei1Wi1Wv3UarRajRn91GhNtaZa/TA1ozGjMTVjPky1pqampmZMxf/8P5z1uQ5nnXU466z7w1lnHe46nHU5P9x1uNx1uOv+dLjrcrncdbg/XZbL5XJ/ulyWy2W5Hy7LZbnsp8tyWdZclmW5rNeyLMs1y7Isa5b1tnbNsizrMcva9bZmvS3r0fW23lax3laxflv1y3qMt12P8duux/hW/zC+jW/1lvhSb4nH+CUeg/iSGBJvMSQeicfEI5F4vEI8EolXPBKJxCsSiUfiFYlEIvGKViKR+CMSrUQi0SskWolWjlailWj0SjRaiVarR6PVSjR6TLVajVZrqp8aMxqtqdZ8asyYasyYmuqHqampqRlTrxH/61+dddbnOpx11uH86a7DWWddzjrcH866nHU53HU5P1wul7Mul/vT5XLX5XLZD3ddLpflfrgsl+Wyny7LZbley9rLsqzXZVmWZc2yXJY1WJZlzbJ2va1ZlvW2ut6W9Zj12PWY9bYeuwbrS9dv61G/rMd42/VlfKt/GN/Gt/ot8Ri/xGP8El9e8SVREo/EY+KReLzikRCPVyQeicQrEo+E+CMSIpF4kUikEn9EIpFIJP6lEolEK5FPrUQr0crRSjQSrR6JVqvVyKdWq9Fqtfqp1ZjRaLXmU6sxozGjMaMfpqZaU1MzGvNhamrG1GtMxZ//6nDWWZ/rcNb501mXsw5nnXU5P9x1OOtyOetyfrhc7jpc7ro/XS6Xy12X++FyuWu53A/L5bJclvvpsiyX9bosay/Lei2XZVmvtcuyrNfaZVmWNcuy3tasXW/LmvW2Hl3W23rMeux6W8OuL7N+W4/6ZT3G264v41v9ZT0G8WV8q98Sj/FLPMZb4svEl8SQeIvHKx6JR2LikXi8IpF4JF4hHonEKxKJRCLxikQikfgjEolE649IJFqJRI9EK5Fo9QqtRKuV6NFKNFqtHo1Wq9Vo9VOrMaPVaM2n1lSrMWOqNR9aU1Mzphoz5qcZU68xNRUf/+asw1lnfa7zp7MuZx3OOpx1fzjrcNfhrsPl/nDW5XK463J/upx1uVwu96flcrlc7toPl8tyWe6ny3JZ1uuyXJZlzWVZlst6LcvaZb2WZe2yXmuX9bZmWdbbmvXYZT1mWY9dj1lv623VL+sx68uux/hlPeqX9WV8q/+fNfG38W38JR7jLfGot8SXV7zFY0g8Eo9XvMUj8YpHQjz+CPFIJF6ReCQSr0gkEolXJBKJxB+RaCUSiX+pRCLRSvRIJFqJVo9EK9Fq5VOr0Wq1Ev3UajVaMxr91GpNtRoz+qE11ZpqTc3oT1MzpqZmNKbmw2tMTU39fxCB8WBZ5ievAAAAAElFTkSuQmCC;opacity=80;" vertex="1" parent="1">
          <mxGeometry x="2360" y="912" width="790" height="790" as="geometry" />
        </mxCell>
      </root>
    </mxGraphModel>
  </diagram>
</mxfile>
